%TF.GenerationSoftware,KiCad,Pcbnew,(6.0.11)*%
%TF.CreationDate,2023-10-05T10:27:59-03:00*%
%TF.ProjectId,gerenciador_de_bateria_2.0,67657265-6e63-4696-9164-6f725f64655f,rev?*%
%TF.SameCoordinates,Original*%
%TF.FileFunction,Legend,Top*%
%TF.FilePolarity,Positive*%
%FSLAX46Y46*%
G04 Gerber Fmt 4.6, Leading zero omitted, Abs format (unit mm)*
G04 Created by KiCad (PCBNEW (6.0.11)) date 2023-10-05 10:27:59*
%MOMM*%
%LPD*%
G01*
G04 APERTURE LIST*
%ADD10C,0.100000*%
%ADD11C,0.152400*%
%ADD12C,0.120000*%
G04 APERTURE END LIST*
D10*
%TO.C,U1*%
X119219047Y-119426190D02*
X119219047Y-119830952D01*
X119242857Y-119878571D01*
X119266666Y-119902380D01*
X119314285Y-119926190D01*
X119409523Y-119926190D01*
X119457142Y-119902380D01*
X119480952Y-119878571D01*
X119504761Y-119830952D01*
X119504761Y-119426190D01*
X120004761Y-119926190D02*
X119719047Y-119926190D01*
X119861904Y-119926190D02*
X119861904Y-119426190D01*
X119814285Y-119497619D01*
X119766666Y-119545238D01*
X119719047Y-119569047D01*
%TO.C,C5*%
X112888571Y-128333333D02*
X112912380Y-128357142D01*
X112936190Y-128428571D01*
X112936190Y-128476190D01*
X112912380Y-128547619D01*
X112864761Y-128595238D01*
X112817142Y-128619047D01*
X112721904Y-128642857D01*
X112650476Y-128642857D01*
X112555238Y-128619047D01*
X112507619Y-128595238D01*
X112460000Y-128547619D01*
X112436190Y-128476190D01*
X112436190Y-128428571D01*
X112460000Y-128357142D01*
X112483809Y-128333333D01*
X112436190Y-127880952D02*
X112436190Y-128119047D01*
X112674285Y-128142857D01*
X112650476Y-128119047D01*
X112626666Y-128071428D01*
X112626666Y-127952380D01*
X112650476Y-127904761D01*
X112674285Y-127880952D01*
X112721904Y-127857142D01*
X112840952Y-127857142D01*
X112888571Y-127880952D01*
X112912380Y-127904761D01*
X112936190Y-127952380D01*
X112936190Y-128071428D01*
X112912380Y-128119047D01*
X112888571Y-128142857D01*
X112602857Y-126423333D02*
X112936190Y-126423333D01*
X112412380Y-126542380D02*
X112769523Y-126661428D01*
X112769523Y-126351904D01*
X112436190Y-126209047D02*
X112436190Y-125875714D01*
X112936190Y-126090000D01*
X112602857Y-125685238D02*
X112936190Y-125685238D01*
X112650476Y-125685238D02*
X112626666Y-125661428D01*
X112602857Y-125613809D01*
X112602857Y-125542380D01*
X112626666Y-125494761D01*
X112674285Y-125470952D01*
X112936190Y-125470952D01*
X112674285Y-125066190D02*
X112674285Y-125232857D01*
X112936190Y-125232857D02*
X112436190Y-125232857D01*
X112436190Y-124994761D01*
%TO.C,R2*%
X116576190Y-129553333D02*
X116338095Y-129720000D01*
X116576190Y-129839047D02*
X116076190Y-129839047D01*
X116076190Y-129648571D01*
X116100000Y-129600952D01*
X116123809Y-129577142D01*
X116171428Y-129553333D01*
X116242857Y-129553333D01*
X116290476Y-129577142D01*
X116314285Y-129600952D01*
X116338095Y-129648571D01*
X116338095Y-129839047D01*
X116123809Y-129362857D02*
X116100000Y-129339047D01*
X116076190Y-129291428D01*
X116076190Y-129172380D01*
X116100000Y-129124761D01*
X116123809Y-129100952D01*
X116171428Y-129077142D01*
X116219047Y-129077142D01*
X116290476Y-129100952D01*
X116576190Y-129386666D01*
X116576190Y-129077142D01*
X118473809Y-129426190D02*
X118473809Y-129473809D01*
X118450000Y-129521428D01*
X118426190Y-129545238D01*
X118378571Y-129569047D01*
X118283333Y-129592857D01*
X118164285Y-129592857D01*
X118069047Y-129569047D01*
X118021428Y-129545238D01*
X117997619Y-129521428D01*
X117973809Y-129473809D01*
X117973809Y-129426190D01*
X117997619Y-129378571D01*
X118021428Y-129354761D01*
X118069047Y-129330952D01*
X118164285Y-129307142D01*
X118283333Y-129307142D01*
X118378571Y-129330952D01*
X118426190Y-129354761D01*
X118450000Y-129378571D01*
X118473809Y-129426190D01*
%TO.C,J1*%
X132378590Y-116366666D02*
X132735733Y-116366666D01*
X132807161Y-116390476D01*
X132854780Y-116438095D01*
X132878590Y-116509523D01*
X132878590Y-116557142D01*
X132878590Y-115866666D02*
X132878590Y-116152380D01*
X132878590Y-116009523D02*
X132378590Y-116009523D01*
X132450019Y-116057142D01*
X132497638Y-116104761D01*
X132521447Y-116152380D01*
X134492380Y-126525238D02*
X134516190Y-126453809D01*
X134516190Y-126334761D01*
X134492380Y-126287142D01*
X134468571Y-126263333D01*
X134420952Y-126239523D01*
X134373333Y-126239523D01*
X134325714Y-126263333D01*
X134301904Y-126287142D01*
X134278095Y-126334761D01*
X134254285Y-126430000D01*
X134230476Y-126477619D01*
X134206666Y-126501428D01*
X134159047Y-126525238D01*
X134111428Y-126525238D01*
X134063809Y-126501428D01*
X134040000Y-126477619D01*
X134016190Y-126430000D01*
X134016190Y-126310952D01*
X134040000Y-126239523D01*
X134278095Y-125930000D02*
X134516190Y-125930000D01*
X134016190Y-126096666D02*
X134278095Y-125930000D01*
X134016190Y-125763333D01*
X134492380Y-125620476D02*
X134516190Y-125549047D01*
X134516190Y-125430000D01*
X134492380Y-125382380D01*
X134468571Y-125358571D01*
X134420952Y-125334761D01*
X134373333Y-125334761D01*
X134325714Y-125358571D01*
X134301904Y-125382380D01*
X134278095Y-125430000D01*
X134254285Y-125525238D01*
X134230476Y-125572857D01*
X134206666Y-125596666D01*
X134159047Y-125620476D01*
X134111428Y-125620476D01*
X134063809Y-125596666D01*
X134040000Y-125572857D01*
X134016190Y-125525238D01*
X134016190Y-125406190D01*
X134040000Y-125334761D01*
X134040000Y-123346666D02*
X134016190Y-123394285D01*
X134016190Y-123465714D01*
X134040000Y-123537142D01*
X134087619Y-123584761D01*
X134135238Y-123608571D01*
X134230476Y-123632380D01*
X134301904Y-123632380D01*
X134397142Y-123608571D01*
X134444761Y-123584761D01*
X134492380Y-123537142D01*
X134516190Y-123465714D01*
X134516190Y-123418095D01*
X134492380Y-123346666D01*
X134468571Y-123322857D01*
X134301904Y-123322857D01*
X134301904Y-123418095D01*
X134516190Y-123108571D02*
X134016190Y-123108571D01*
X134516190Y-122822857D01*
X134016190Y-122822857D01*
X134516190Y-122584761D02*
X134016190Y-122584761D01*
X134016190Y-122465714D01*
X134040000Y-122394285D01*
X134087619Y-122346666D01*
X134135238Y-122322857D01*
X134230476Y-122299047D01*
X134301904Y-122299047D01*
X134397142Y-122322857D01*
X134444761Y-122346666D01*
X134492380Y-122394285D01*
X134516190Y-122465714D01*
X134516190Y-122584761D01*
X134516190Y-122084761D02*
X134016190Y-122084761D01*
X134016190Y-121894285D01*
X134040000Y-121846666D01*
X134063809Y-121822857D01*
X134111428Y-121799047D01*
X134182857Y-121799047D01*
X134230476Y-121822857D01*
X134254285Y-121846666D01*
X134278095Y-121894285D01*
X134278095Y-122084761D01*
X134016190Y-121632380D02*
X134516190Y-121513333D01*
X134159047Y-121418095D01*
X134516190Y-121322857D01*
X134016190Y-121203809D01*
X134516190Y-120727619D02*
X134278095Y-120894285D01*
X134516190Y-121013333D02*
X134016190Y-121013333D01*
X134016190Y-120822857D01*
X134040000Y-120775238D01*
X134063809Y-120751428D01*
X134111428Y-120727619D01*
X134182857Y-120727619D01*
X134230476Y-120751428D01*
X134254285Y-120775238D01*
X134278095Y-120822857D01*
X134278095Y-121013333D01*
X134254285Y-118819523D02*
X134278095Y-118748095D01*
X134301904Y-118724285D01*
X134349523Y-118700476D01*
X134420952Y-118700476D01*
X134468571Y-118724285D01*
X134492380Y-118748095D01*
X134516190Y-118795714D01*
X134516190Y-118986190D01*
X134016190Y-118986190D01*
X134016190Y-118819523D01*
X134040000Y-118771904D01*
X134063809Y-118748095D01*
X134111428Y-118724285D01*
X134159047Y-118724285D01*
X134206666Y-118748095D01*
X134230476Y-118771904D01*
X134254285Y-118819523D01*
X134254285Y-118986190D01*
X134373333Y-118510000D02*
X134373333Y-118271904D01*
X134516190Y-118557619D02*
X134016190Y-118390952D01*
X134516190Y-118224285D01*
X134016190Y-118129047D02*
X134016190Y-117843333D01*
X134516190Y-117986190D02*
X134016190Y-117986190D01*
X134016190Y-117748095D02*
X134016190Y-117462380D01*
X134516190Y-117605238D02*
X134016190Y-117605238D01*
X134016190Y-129524761D02*
X134016190Y-129239047D01*
X134516190Y-129381904D02*
X134016190Y-129381904D01*
X134254285Y-129072380D02*
X134254285Y-128905714D01*
X134516190Y-128834285D02*
X134516190Y-129072380D01*
X134016190Y-129072380D01*
X134016190Y-128834285D01*
X134516190Y-128334285D02*
X134278095Y-128500952D01*
X134516190Y-128620000D02*
X134016190Y-128620000D01*
X134016190Y-128429523D01*
X134040000Y-128381904D01*
X134063809Y-128358095D01*
X134111428Y-128334285D01*
X134182857Y-128334285D01*
X134230476Y-128358095D01*
X134254285Y-128381904D01*
X134278095Y-128429523D01*
X134278095Y-128620000D01*
X134516190Y-128120000D02*
X134016190Y-128120000D01*
X134373333Y-127953333D01*
X134016190Y-127786666D01*
X134516190Y-127786666D01*
%TO.C,C9*%
X122308571Y-122073333D02*
X122332380Y-122097142D01*
X122356190Y-122168571D01*
X122356190Y-122216190D01*
X122332380Y-122287619D01*
X122284761Y-122335238D01*
X122237142Y-122359047D01*
X122141904Y-122382857D01*
X122070476Y-122382857D01*
X121975238Y-122359047D01*
X121927619Y-122335238D01*
X121880000Y-122287619D01*
X121856190Y-122216190D01*
X121856190Y-122168571D01*
X121880000Y-122097142D01*
X121903809Y-122073333D01*
X122356190Y-121835238D02*
X122356190Y-121740000D01*
X122332380Y-121692380D01*
X122308571Y-121668571D01*
X122237142Y-121620952D01*
X122141904Y-121597142D01*
X121951428Y-121597142D01*
X121903809Y-121620952D01*
X121880000Y-121644761D01*
X121856190Y-121692380D01*
X121856190Y-121787619D01*
X121880000Y-121835238D01*
X121903809Y-121859047D01*
X121951428Y-121882857D01*
X122070476Y-121882857D01*
X122118095Y-121859047D01*
X122141904Y-121835238D01*
X122165714Y-121787619D01*
X122165714Y-121692380D01*
X122141904Y-121644761D01*
X122118095Y-121620952D01*
X122070476Y-121597142D01*
X121903809Y-121131428D02*
X121880000Y-121107619D01*
X121856190Y-121060000D01*
X121856190Y-120940952D01*
X121880000Y-120893333D01*
X121903809Y-120869523D01*
X121951428Y-120845714D01*
X121999047Y-120845714D01*
X122070476Y-120869523D01*
X122356190Y-121155238D01*
X122356190Y-120845714D01*
X121903809Y-120655238D02*
X121880000Y-120631428D01*
X121856190Y-120583809D01*
X121856190Y-120464761D01*
X121880000Y-120417142D01*
X121903809Y-120393333D01*
X121951428Y-120369523D01*
X121999047Y-120369523D01*
X122070476Y-120393333D01*
X122356190Y-120679047D01*
X122356190Y-120369523D01*
X122022857Y-119940952D02*
X122356190Y-119940952D01*
X122022857Y-120155238D02*
X122284761Y-120155238D01*
X122332380Y-120131428D01*
X122356190Y-120083809D01*
X122356190Y-120012380D01*
X122332380Y-119964761D01*
X122308571Y-119940952D01*
X122094285Y-119536190D02*
X122094285Y-119702857D01*
X122356190Y-119702857D02*
X121856190Y-119702857D01*
X121856190Y-119464761D01*
%TO.C,USB*%
X107046190Y-129500952D02*
X107450952Y-129500952D01*
X107498571Y-129477142D01*
X107522380Y-129453333D01*
X107546190Y-129405714D01*
X107546190Y-129310476D01*
X107522380Y-129262857D01*
X107498571Y-129239047D01*
X107450952Y-129215238D01*
X107046190Y-129215238D01*
X107522380Y-129000952D02*
X107546190Y-128929523D01*
X107546190Y-128810476D01*
X107522380Y-128762857D01*
X107498571Y-128739047D01*
X107450952Y-128715238D01*
X107403333Y-128715238D01*
X107355714Y-128739047D01*
X107331904Y-128762857D01*
X107308095Y-128810476D01*
X107284285Y-128905714D01*
X107260476Y-128953333D01*
X107236666Y-128977142D01*
X107189047Y-129000952D01*
X107141428Y-129000952D01*
X107093809Y-128977142D01*
X107070000Y-128953333D01*
X107046190Y-128905714D01*
X107046190Y-128786666D01*
X107070000Y-128715238D01*
X107284285Y-128334285D02*
X107308095Y-128262857D01*
X107331904Y-128239047D01*
X107379523Y-128215238D01*
X107450952Y-128215238D01*
X107498571Y-128239047D01*
X107522380Y-128262857D01*
X107546190Y-128310476D01*
X107546190Y-128500952D01*
X107046190Y-128500952D01*
X107046190Y-128334285D01*
X107070000Y-128286666D01*
X107093809Y-128262857D01*
X107141428Y-128239047D01*
X107189047Y-128239047D01*
X107236666Y-128262857D01*
X107260476Y-128286666D01*
X107284285Y-128334285D01*
X107284285Y-128500952D01*
%TO.C,C7*%
X125758571Y-119373333D02*
X125782380Y-119397142D01*
X125806190Y-119468571D01*
X125806190Y-119516190D01*
X125782380Y-119587619D01*
X125734761Y-119635238D01*
X125687142Y-119659047D01*
X125591904Y-119682857D01*
X125520476Y-119682857D01*
X125425238Y-119659047D01*
X125377619Y-119635238D01*
X125330000Y-119587619D01*
X125306190Y-119516190D01*
X125306190Y-119468571D01*
X125330000Y-119397142D01*
X125353809Y-119373333D01*
X125306190Y-119206666D02*
X125306190Y-118873333D01*
X125806190Y-119087619D01*
X127866190Y-119682857D02*
X127366190Y-119682857D01*
X127866190Y-119397142D01*
X127366190Y-119397142D01*
X127818571Y-118873333D02*
X127842380Y-118897142D01*
X127866190Y-118968571D01*
X127866190Y-119016190D01*
X127842380Y-119087619D01*
X127794761Y-119135238D01*
X127747142Y-119159047D01*
X127651904Y-119182857D01*
X127580476Y-119182857D01*
X127485238Y-119159047D01*
X127437619Y-119135238D01*
X127390000Y-119087619D01*
X127366190Y-119016190D01*
X127366190Y-118968571D01*
X127390000Y-118897142D01*
X127413809Y-118873333D01*
%TO.C,C12*%
X114458571Y-121851428D02*
X114482380Y-121875238D01*
X114506190Y-121946666D01*
X114506190Y-121994285D01*
X114482380Y-122065714D01*
X114434761Y-122113333D01*
X114387142Y-122137142D01*
X114291904Y-122160952D01*
X114220476Y-122160952D01*
X114125238Y-122137142D01*
X114077619Y-122113333D01*
X114030000Y-122065714D01*
X114006190Y-121994285D01*
X114006190Y-121946666D01*
X114030000Y-121875238D01*
X114053809Y-121851428D01*
X114506190Y-121375238D02*
X114506190Y-121660952D01*
X114506190Y-121518095D02*
X114006190Y-121518095D01*
X114077619Y-121565714D01*
X114125238Y-121613333D01*
X114149047Y-121660952D01*
X114053809Y-121184761D02*
X114030000Y-121160952D01*
X114006190Y-121113333D01*
X114006190Y-120994285D01*
X114030000Y-120946666D01*
X114053809Y-120922857D01*
X114101428Y-120899047D01*
X114149047Y-120899047D01*
X114220476Y-120922857D01*
X114506190Y-121208571D01*
X114506190Y-120899047D01*
X114506190Y-119917619D02*
X114506190Y-120203333D01*
X114506190Y-120060476D02*
X114006190Y-120060476D01*
X114077619Y-120108095D01*
X114125238Y-120155714D01*
X114149047Y-120203333D01*
X114172857Y-119489047D02*
X114506190Y-119489047D01*
X114172857Y-119703333D02*
X114434761Y-119703333D01*
X114482380Y-119679523D01*
X114506190Y-119631904D01*
X114506190Y-119560476D01*
X114482380Y-119512857D01*
X114458571Y-119489047D01*
X114244285Y-119084285D02*
X114244285Y-119250952D01*
X114506190Y-119250952D02*
X114006190Y-119250952D01*
X114006190Y-119012857D01*
%TO.C,C3*%
X112308571Y-124423333D02*
X112332380Y-124447142D01*
X112356190Y-124518571D01*
X112356190Y-124566190D01*
X112332380Y-124637619D01*
X112284761Y-124685238D01*
X112237142Y-124709047D01*
X112141904Y-124732857D01*
X112070476Y-124732857D01*
X111975238Y-124709047D01*
X111927619Y-124685238D01*
X111880000Y-124637619D01*
X111856190Y-124566190D01*
X111856190Y-124518571D01*
X111880000Y-124447142D01*
X111903809Y-124423333D01*
X111856190Y-124256666D02*
X111856190Y-123947142D01*
X112046666Y-124113809D01*
X112046666Y-124042380D01*
X112070476Y-123994761D01*
X112094285Y-123970952D01*
X112141904Y-123947142D01*
X112260952Y-123947142D01*
X112308571Y-123970952D01*
X112332380Y-123994761D01*
X112356190Y-124042380D01*
X112356190Y-124185238D01*
X112332380Y-124232857D01*
X112308571Y-124256666D01*
X116656190Y-124545714D02*
X116656190Y-124831428D01*
X116656190Y-124688571D02*
X116156190Y-124688571D01*
X116227619Y-124736190D01*
X116275238Y-124783809D01*
X116299047Y-124831428D01*
X116156190Y-124236190D02*
X116156190Y-124188571D01*
X116180000Y-124140952D01*
X116203809Y-124117142D01*
X116251428Y-124093333D01*
X116346666Y-124069523D01*
X116465714Y-124069523D01*
X116560952Y-124093333D01*
X116608571Y-124117142D01*
X116632380Y-124140952D01*
X116656190Y-124188571D01*
X116656190Y-124236190D01*
X116632380Y-124283809D01*
X116608571Y-124307619D01*
X116560952Y-124331428D01*
X116465714Y-124355238D01*
X116346666Y-124355238D01*
X116251428Y-124331428D01*
X116203809Y-124307619D01*
X116180000Y-124283809D01*
X116156190Y-124236190D01*
X116322857Y-123640952D02*
X116656190Y-123640952D01*
X116322857Y-123855238D02*
X116584761Y-123855238D01*
X116632380Y-123831428D01*
X116656190Y-123783809D01*
X116656190Y-123712380D01*
X116632380Y-123664761D01*
X116608571Y-123640952D01*
X116394285Y-123236190D02*
X116394285Y-123402857D01*
X116656190Y-123402857D02*
X116156190Y-123402857D01*
X116156190Y-123164761D01*
%TO.C,GNDPWR*%
X114519000Y-118042666D02*
X114495190Y-118090285D01*
X114495190Y-118161714D01*
X114519000Y-118233142D01*
X114566619Y-118280761D01*
X114614238Y-118304571D01*
X114709476Y-118328380D01*
X114780904Y-118328380D01*
X114876142Y-118304571D01*
X114923761Y-118280761D01*
X114971380Y-118233142D01*
X114995190Y-118161714D01*
X114995190Y-118114095D01*
X114971380Y-118042666D01*
X114947571Y-118018857D01*
X114780904Y-118018857D01*
X114780904Y-118114095D01*
X114995190Y-117804571D02*
X114495190Y-117804571D01*
X114995190Y-117518857D01*
X114495190Y-117518857D01*
X114995190Y-117280761D02*
X114495190Y-117280761D01*
X114495190Y-117161714D01*
X114519000Y-117090285D01*
X114566619Y-117042666D01*
X114614238Y-117018857D01*
X114709476Y-116995047D01*
X114780904Y-116995047D01*
X114876142Y-117018857D01*
X114923761Y-117042666D01*
X114971380Y-117090285D01*
X114995190Y-117161714D01*
X114995190Y-117280761D01*
X114995190Y-116780761D02*
X114495190Y-116780761D01*
X114495190Y-116590285D01*
X114519000Y-116542666D01*
X114542809Y-116518857D01*
X114590428Y-116495047D01*
X114661857Y-116495047D01*
X114709476Y-116518857D01*
X114733285Y-116542666D01*
X114757095Y-116590285D01*
X114757095Y-116780761D01*
X114495190Y-116328380D02*
X114995190Y-116209333D01*
X114638047Y-116114095D01*
X114995190Y-116018857D01*
X114495190Y-115899809D01*
X114995190Y-115423619D02*
X114757095Y-115590285D01*
X114995190Y-115709333D02*
X114495190Y-115709333D01*
X114495190Y-115518857D01*
X114519000Y-115471238D01*
X114542809Y-115447428D01*
X114590428Y-115423619D01*
X114661857Y-115423619D01*
X114709476Y-115447428D01*
X114733285Y-115471238D01*
X114757095Y-115518857D01*
X114757095Y-115709333D01*
X108025190Y-117423619D02*
X108525190Y-117256952D01*
X108025190Y-117090285D01*
X108525190Y-116923619D02*
X108025190Y-116923619D01*
X108525190Y-116685523D02*
X108025190Y-116685523D01*
X108525190Y-116399809D01*
X108025190Y-116399809D01*
%TO.C,R3*%
X125166190Y-129563333D02*
X124928095Y-129730000D01*
X125166190Y-129849047D02*
X124666190Y-129849047D01*
X124666190Y-129658571D01*
X124690000Y-129610952D01*
X124713809Y-129587142D01*
X124761428Y-129563333D01*
X124832857Y-129563333D01*
X124880476Y-129587142D01*
X124904285Y-129610952D01*
X124928095Y-129658571D01*
X124928095Y-129849047D01*
X124666190Y-129396666D02*
X124666190Y-129087142D01*
X124856666Y-129253809D01*
X124856666Y-129182380D01*
X124880476Y-129134761D01*
X124904285Y-129110952D01*
X124951904Y-129087142D01*
X125070952Y-129087142D01*
X125118571Y-129110952D01*
X125142380Y-129134761D01*
X125166190Y-129182380D01*
X125166190Y-129325238D01*
X125142380Y-129372857D01*
X125118571Y-129396666D01*
X127806190Y-130022857D02*
X127306190Y-130022857D01*
X127806190Y-129737142D01*
X127306190Y-129737142D01*
X127758571Y-129213333D02*
X127782380Y-129237142D01*
X127806190Y-129308571D01*
X127806190Y-129356190D01*
X127782380Y-129427619D01*
X127734761Y-129475238D01*
X127687142Y-129499047D01*
X127591904Y-129522857D01*
X127520476Y-129522857D01*
X127425238Y-129499047D01*
X127377619Y-129475238D01*
X127330000Y-129427619D01*
X127306190Y-129356190D01*
X127306190Y-129308571D01*
X127330000Y-129237142D01*
X127353809Y-129213333D01*
%TO.C,C10*%
X130818571Y-124531428D02*
X130842380Y-124555238D01*
X130866190Y-124626666D01*
X130866190Y-124674285D01*
X130842380Y-124745714D01*
X130794761Y-124793333D01*
X130747142Y-124817142D01*
X130651904Y-124840952D01*
X130580476Y-124840952D01*
X130485238Y-124817142D01*
X130437619Y-124793333D01*
X130390000Y-124745714D01*
X130366190Y-124674285D01*
X130366190Y-124626666D01*
X130390000Y-124555238D01*
X130413809Y-124531428D01*
X130866190Y-124055238D02*
X130866190Y-124340952D01*
X130866190Y-124198095D02*
X130366190Y-124198095D01*
X130437619Y-124245714D01*
X130485238Y-124293333D01*
X130509047Y-124340952D01*
X130366190Y-123745714D02*
X130366190Y-123698095D01*
X130390000Y-123650476D01*
X130413809Y-123626666D01*
X130461428Y-123602857D01*
X130556666Y-123579047D01*
X130675714Y-123579047D01*
X130770952Y-123602857D01*
X130818571Y-123626666D01*
X130842380Y-123650476D01*
X130866190Y-123698095D01*
X130866190Y-123745714D01*
X130842380Y-123793333D01*
X130818571Y-123817142D01*
X130770952Y-123840952D01*
X130675714Y-123864761D01*
X130556666Y-123864761D01*
X130461428Y-123840952D01*
X130413809Y-123817142D01*
X130390000Y-123793333D01*
X130366190Y-123745714D01*
X130473809Y-122401428D02*
X130450000Y-122377619D01*
X130426190Y-122330000D01*
X130426190Y-122210952D01*
X130450000Y-122163333D01*
X130473809Y-122139523D01*
X130521428Y-122115714D01*
X130569047Y-122115714D01*
X130640476Y-122139523D01*
X130926190Y-122425238D01*
X130926190Y-122115714D01*
X130473809Y-121925238D02*
X130450000Y-121901428D01*
X130426190Y-121853809D01*
X130426190Y-121734761D01*
X130450000Y-121687142D01*
X130473809Y-121663333D01*
X130521428Y-121639523D01*
X130569047Y-121639523D01*
X130640476Y-121663333D01*
X130926190Y-121949047D01*
X130926190Y-121639523D01*
X130592857Y-121210952D02*
X130926190Y-121210952D01*
X130592857Y-121425238D02*
X130854761Y-121425238D01*
X130902380Y-121401428D01*
X130926190Y-121353809D01*
X130926190Y-121282380D01*
X130902380Y-121234761D01*
X130878571Y-121210952D01*
X130664285Y-120806190D02*
X130664285Y-120972857D01*
X130926190Y-120972857D02*
X130426190Y-120972857D01*
X130426190Y-120734761D01*
%TO.C,L1*%
X128056190Y-126783333D02*
X128056190Y-127021428D01*
X127556190Y-127021428D01*
X128056190Y-126354761D02*
X128056190Y-126640476D01*
X128056190Y-126497619D02*
X127556190Y-126497619D01*
X127627619Y-126545238D01*
X127675238Y-126592857D01*
X127699047Y-126640476D01*
X128146190Y-122805238D02*
X128146190Y-123090952D01*
X128146190Y-122948095D02*
X127646190Y-122948095D01*
X127717619Y-122995714D01*
X127765238Y-123043333D01*
X127789047Y-123090952D01*
X127812857Y-122376666D02*
X128146190Y-122376666D01*
X127812857Y-122590952D02*
X128074761Y-122590952D01*
X128122380Y-122567142D01*
X128146190Y-122519523D01*
X128146190Y-122448095D01*
X128122380Y-122400476D01*
X128098571Y-122376666D01*
X128146190Y-122138571D02*
X127646190Y-122138571D01*
X127884285Y-122138571D02*
X127884285Y-121852857D01*
X128146190Y-121852857D02*
X127646190Y-121852857D01*
%TO.C,C1*%
X111898571Y-121313333D02*
X111922380Y-121337142D01*
X111946190Y-121408571D01*
X111946190Y-121456190D01*
X111922380Y-121527619D01*
X111874761Y-121575238D01*
X111827142Y-121599047D01*
X111731904Y-121622857D01*
X111660476Y-121622857D01*
X111565238Y-121599047D01*
X111517619Y-121575238D01*
X111470000Y-121527619D01*
X111446190Y-121456190D01*
X111446190Y-121408571D01*
X111470000Y-121337142D01*
X111493809Y-121313333D01*
X111946190Y-120837142D02*
X111946190Y-121122857D01*
X111946190Y-120980000D02*
X111446190Y-120980000D01*
X111517619Y-121027619D01*
X111565238Y-121075238D01*
X111589047Y-121122857D01*
X111946190Y-120322857D02*
X111446190Y-120322857D01*
X111946190Y-120037142D01*
X111446190Y-120037142D01*
X111898571Y-119513333D02*
X111922380Y-119537142D01*
X111946190Y-119608571D01*
X111946190Y-119656190D01*
X111922380Y-119727619D01*
X111874761Y-119775238D01*
X111827142Y-119799047D01*
X111731904Y-119822857D01*
X111660476Y-119822857D01*
X111565238Y-119799047D01*
X111517619Y-119775238D01*
X111470000Y-119727619D01*
X111446190Y-119656190D01*
X111446190Y-119608571D01*
X111470000Y-119537142D01*
X111493809Y-119513333D01*
%TO.C,RILIM1*%
X121196190Y-118069523D02*
X120958095Y-118236190D01*
X121196190Y-118355238D02*
X120696190Y-118355238D01*
X120696190Y-118164761D01*
X120720000Y-118117142D01*
X120743809Y-118093333D01*
X120791428Y-118069523D01*
X120862857Y-118069523D01*
X120910476Y-118093333D01*
X120934285Y-118117142D01*
X120958095Y-118164761D01*
X120958095Y-118355238D01*
X121196190Y-117855238D02*
X120696190Y-117855238D01*
X121196190Y-117379047D02*
X121196190Y-117617142D01*
X120696190Y-117617142D01*
X121196190Y-117212380D02*
X120696190Y-117212380D01*
X121196190Y-116974285D02*
X120696190Y-116974285D01*
X121053333Y-116807619D01*
X120696190Y-116640952D01*
X121196190Y-116640952D01*
X121196190Y-116140952D02*
X121196190Y-116426666D01*
X121196190Y-116283809D02*
X120696190Y-116283809D01*
X120767619Y-116331428D01*
X120815238Y-116379047D01*
X120839047Y-116426666D01*
X115523809Y-118509047D02*
X115500000Y-118485238D01*
X115476190Y-118437619D01*
X115476190Y-118318571D01*
X115500000Y-118270952D01*
X115523809Y-118247142D01*
X115571428Y-118223333D01*
X115619047Y-118223333D01*
X115690476Y-118247142D01*
X115976190Y-118532857D01*
X115976190Y-118223333D01*
X115642857Y-117794761D02*
X115976190Y-117794761D01*
X115452380Y-117913809D02*
X115809523Y-118032857D01*
X115809523Y-117723333D01*
X115976190Y-117509047D02*
X115976190Y-117413809D01*
X115952380Y-117366190D01*
X115928571Y-117342380D01*
X115857142Y-117294761D01*
X115761904Y-117270952D01*
X115571428Y-117270952D01*
X115523809Y-117294761D01*
X115500000Y-117318571D01*
X115476190Y-117366190D01*
X115476190Y-117461428D01*
X115500000Y-117509047D01*
X115523809Y-117532857D01*
X115571428Y-117556666D01*
X115690476Y-117556666D01*
X115738095Y-117532857D01*
X115761904Y-117509047D01*
X115785714Y-117461428D01*
X115785714Y-117366190D01*
X115761904Y-117318571D01*
X115738095Y-117294761D01*
X115690476Y-117270952D01*
%TO.C,C4*%
X124608571Y-126553333D02*
X124632380Y-126577142D01*
X124656190Y-126648571D01*
X124656190Y-126696190D01*
X124632380Y-126767619D01*
X124584761Y-126815238D01*
X124537142Y-126839047D01*
X124441904Y-126862857D01*
X124370476Y-126862857D01*
X124275238Y-126839047D01*
X124227619Y-126815238D01*
X124180000Y-126767619D01*
X124156190Y-126696190D01*
X124156190Y-126648571D01*
X124180000Y-126577142D01*
X124203809Y-126553333D01*
X124322857Y-126124761D02*
X124656190Y-126124761D01*
X124132380Y-126243809D02*
X124489523Y-126362857D01*
X124489523Y-126053333D01*
X122326190Y-126585714D02*
X122326190Y-126871428D01*
X122326190Y-126728571D02*
X121826190Y-126728571D01*
X121897619Y-126776190D01*
X121945238Y-126823809D01*
X121969047Y-126871428D01*
X121826190Y-126276190D02*
X121826190Y-126228571D01*
X121850000Y-126180952D01*
X121873809Y-126157142D01*
X121921428Y-126133333D01*
X122016666Y-126109523D01*
X122135714Y-126109523D01*
X122230952Y-126133333D01*
X122278571Y-126157142D01*
X122302380Y-126180952D01*
X122326190Y-126228571D01*
X122326190Y-126276190D01*
X122302380Y-126323809D01*
X122278571Y-126347619D01*
X122230952Y-126371428D01*
X122135714Y-126395238D01*
X122016666Y-126395238D01*
X121921428Y-126371428D01*
X121873809Y-126347619D01*
X121850000Y-126323809D01*
X121826190Y-126276190D01*
X121992857Y-125680952D02*
X122326190Y-125680952D01*
X121992857Y-125895238D02*
X122254761Y-125895238D01*
X122302380Y-125871428D01*
X122326190Y-125823809D01*
X122326190Y-125752380D01*
X122302380Y-125704761D01*
X122278571Y-125680952D01*
X122064285Y-125276190D02*
X122064285Y-125442857D01*
X122326190Y-125442857D02*
X121826190Y-125442857D01*
X121826190Y-125204761D01*
%TO.C,C6*%
X130758571Y-128563333D02*
X130782380Y-128587142D01*
X130806190Y-128658571D01*
X130806190Y-128706190D01*
X130782380Y-128777619D01*
X130734761Y-128825238D01*
X130687142Y-128849047D01*
X130591904Y-128872857D01*
X130520476Y-128872857D01*
X130425238Y-128849047D01*
X130377619Y-128825238D01*
X130330000Y-128777619D01*
X130306190Y-128706190D01*
X130306190Y-128658571D01*
X130330000Y-128587142D01*
X130353809Y-128563333D01*
X130306190Y-128134761D02*
X130306190Y-128230000D01*
X130330000Y-128277619D01*
X130353809Y-128301428D01*
X130425238Y-128349047D01*
X130520476Y-128372857D01*
X130710952Y-128372857D01*
X130758571Y-128349047D01*
X130782380Y-128325238D01*
X130806190Y-128277619D01*
X130806190Y-128182380D01*
X130782380Y-128134761D01*
X130758571Y-128110952D01*
X130710952Y-128087142D01*
X130591904Y-128087142D01*
X130544285Y-128110952D01*
X130520476Y-128134761D01*
X130496666Y-128182380D01*
X130496666Y-128277619D01*
X130520476Y-128325238D01*
X130544285Y-128349047D01*
X130591904Y-128372857D01*
X130846190Y-126482857D02*
X130346190Y-126482857D01*
X130846190Y-126197142D01*
X130346190Y-126197142D01*
X130798571Y-125673333D02*
X130822380Y-125697142D01*
X130846190Y-125768571D01*
X130846190Y-125816190D01*
X130822380Y-125887619D01*
X130774761Y-125935238D01*
X130727142Y-125959047D01*
X130631904Y-125982857D01*
X130560476Y-125982857D01*
X130465238Y-125959047D01*
X130417619Y-125935238D01*
X130370000Y-125887619D01*
X130346190Y-125816190D01*
X130346190Y-125768571D01*
X130370000Y-125697142D01*
X130393809Y-125673333D01*
%TO.C,SDA*%
X123849180Y-117516742D02*
X123872990Y-117445314D01*
X123872990Y-117326266D01*
X123849180Y-117278647D01*
X123825371Y-117254838D01*
X123777752Y-117231028D01*
X123730133Y-117231028D01*
X123682514Y-117254838D01*
X123658704Y-117278647D01*
X123634895Y-117326266D01*
X123611085Y-117421504D01*
X123587276Y-117469123D01*
X123563466Y-117492933D01*
X123515847Y-117516742D01*
X123468228Y-117516742D01*
X123420609Y-117492933D01*
X123396800Y-117469123D01*
X123372990Y-117421504D01*
X123372990Y-117302457D01*
X123396800Y-117231028D01*
X123872990Y-117016742D02*
X123372990Y-117016742D01*
X123372990Y-116897695D01*
X123396800Y-116826266D01*
X123444419Y-116778647D01*
X123492038Y-116754838D01*
X123587276Y-116731028D01*
X123658704Y-116731028D01*
X123753942Y-116754838D01*
X123801561Y-116778647D01*
X123849180Y-116826266D01*
X123872990Y-116897695D01*
X123872990Y-117016742D01*
X123730133Y-116540552D02*
X123730133Y-116302457D01*
X123872990Y-116588171D02*
X123372990Y-116421504D01*
X123872990Y-116254838D01*
X130309180Y-117464838D02*
X130332990Y-117393409D01*
X130332990Y-117274361D01*
X130309180Y-117226742D01*
X130285371Y-117202933D01*
X130237752Y-117179123D01*
X130190133Y-117179123D01*
X130142514Y-117202933D01*
X130118704Y-117226742D01*
X130094895Y-117274361D01*
X130071085Y-117369600D01*
X130047276Y-117417219D01*
X130023466Y-117441028D01*
X129975847Y-117464838D01*
X129928228Y-117464838D01*
X129880609Y-117441028D01*
X129856800Y-117417219D01*
X129832990Y-117369600D01*
X129832990Y-117250552D01*
X129856800Y-117179123D01*
X130285371Y-116679123D02*
X130309180Y-116702933D01*
X130332990Y-116774361D01*
X130332990Y-116821980D01*
X130309180Y-116893409D01*
X130261561Y-116941028D01*
X130213942Y-116964838D01*
X130118704Y-116988647D01*
X130047276Y-116988647D01*
X129952038Y-116964838D01*
X129904419Y-116941028D01*
X129856800Y-116893409D01*
X129832990Y-116821980D01*
X129832990Y-116774361D01*
X129856800Y-116702933D01*
X129880609Y-116679123D01*
X130332990Y-116226742D02*
X130332990Y-116464838D01*
X129832990Y-116464838D01*
%TO.C,R10*%
X120136190Y-130011428D02*
X119898095Y-130178095D01*
X120136190Y-130297142D02*
X119636190Y-130297142D01*
X119636190Y-130106666D01*
X119660000Y-130059047D01*
X119683809Y-130035238D01*
X119731428Y-130011428D01*
X119802857Y-130011428D01*
X119850476Y-130035238D01*
X119874285Y-130059047D01*
X119898095Y-130106666D01*
X119898095Y-130297142D01*
X120136190Y-129535238D02*
X120136190Y-129820952D01*
X120136190Y-129678095D02*
X119636190Y-129678095D01*
X119707619Y-129725714D01*
X119755238Y-129773333D01*
X119779047Y-129820952D01*
X119636190Y-129225714D02*
X119636190Y-129178095D01*
X119660000Y-129130476D01*
X119683809Y-129106666D01*
X119731428Y-129082857D01*
X119826666Y-129059047D01*
X119945714Y-129059047D01*
X120040952Y-129082857D01*
X120088571Y-129106666D01*
X120112380Y-129130476D01*
X120136190Y-129178095D01*
X120136190Y-129225714D01*
X120112380Y-129273333D01*
X120088571Y-129297142D01*
X120040952Y-129320952D01*
X119945714Y-129344761D01*
X119826666Y-129344761D01*
X119731428Y-129320952D01*
X119683809Y-129297142D01*
X119660000Y-129273333D01*
X119636190Y-129225714D01*
X121473809Y-129825238D02*
X121450000Y-129801428D01*
X121426190Y-129753809D01*
X121426190Y-129634761D01*
X121450000Y-129587142D01*
X121473809Y-129563333D01*
X121521428Y-129539523D01*
X121569047Y-129539523D01*
X121640476Y-129563333D01*
X121926190Y-129849047D01*
X121926190Y-129539523D01*
X121926190Y-129325238D02*
X121426190Y-129325238D01*
X121735714Y-129277619D02*
X121926190Y-129134761D01*
X121592857Y-129134761D02*
X121783333Y-129325238D01*
D11*
%TO.C,U1*%
X121530400Y-124157742D02*
X121530400Y-124530400D01*
X121530400Y-120669600D02*
X121530400Y-121042256D01*
X117669600Y-124530400D02*
X117669600Y-124157739D01*
X117669600Y-121042258D02*
X117669600Y-120669600D01*
D12*
%TO.C,C5*%
X113385000Y-127111252D02*
X113385000Y-126588748D01*
X114855000Y-127111252D02*
X114855000Y-126588748D01*
%TO.C,R2*%
X117422664Y-127281000D02*
X116968536Y-127281000D01*
X117422664Y-128751000D02*
X116968536Y-128751000D01*
%TO.C,J1*%
X133830000Y-119537400D02*
X133830000Y-129757400D01*
X131170000Y-119537400D02*
X131170000Y-129757400D01*
X131170000Y-118267400D02*
X131170000Y-116937400D01*
X131170000Y-116937400D02*
X132500000Y-116937400D01*
X131170000Y-129757400D02*
X133830000Y-129757400D01*
X131170000Y-119537400D02*
X133830000Y-119537400D01*
%TO.C,C9*%
X124105000Y-120748748D02*
X124105000Y-121271252D01*
X122635000Y-120748748D02*
X122635000Y-121271252D01*
%TO.C,USB*%
X105922100Y-119233600D02*
X106172100Y-119233600D01*
X108472100Y-119233600D02*
X110322100Y-119233600D01*
X110322100Y-119233600D02*
X110322100Y-119683600D01*
X105922100Y-127033600D02*
X106172100Y-127033600D01*
X110872100Y-121433600D02*
X110422100Y-121433600D01*
X110322100Y-127033600D02*
X110322100Y-126583600D01*
X110872100Y-121433600D02*
X110872100Y-121883600D01*
X108472100Y-127033600D02*
X110322100Y-127033600D01*
%TO.C,C7*%
X126218748Y-120015000D02*
X126741252Y-120015000D01*
X126218748Y-121485000D02*
X126741252Y-121485000D01*
%TO.C,C12*%
X114795000Y-120781252D02*
X114795000Y-120258748D01*
X116265000Y-120781252D02*
X116265000Y-120258748D01*
%TO.C,C3*%
X114431252Y-122795000D02*
X113908748Y-122795000D01*
X114431252Y-124265000D02*
X113908748Y-124265000D01*
%TO.C,GNDPWR*%
X111550000Y-115540000D02*
X114150000Y-115540000D01*
X111550000Y-118200000D02*
X111550000Y-115540000D01*
X108950000Y-118200000D02*
X108950000Y-116870000D01*
X110280000Y-118200000D02*
X108950000Y-118200000D01*
X111550000Y-118200000D02*
X114150000Y-118200000D01*
X114150000Y-118200000D02*
X114150000Y-115540000D01*
%TO.C,R3*%
X126061736Y-127382600D02*
X126515864Y-127382600D01*
X126061736Y-128852600D02*
X126515864Y-128852600D01*
%TO.C,C10*%
X130005000Y-123251252D02*
X130005000Y-122728748D01*
X128535000Y-123251252D02*
X128535000Y-122728748D01*
%TO.C,L1*%
X124780000Y-125122064D02*
X124780000Y-123917936D01*
X127500000Y-125122064D02*
X127500000Y-123917936D01*
%TO.C,C1*%
X113795000Y-120801252D02*
X113795000Y-120278748D01*
X112325000Y-120801252D02*
X112325000Y-120278748D01*
%TO.C,RILIM1*%
X117857064Y-117735000D02*
X117402936Y-117735000D01*
X117857064Y-116265000D02*
X117402936Y-116265000D01*
%TO.C,C4*%
X122455000Y-125229252D02*
X122455000Y-124706748D01*
X123925000Y-125229252D02*
X123925000Y-124706748D01*
%TO.C,C6*%
X129970200Y-127464452D02*
X129970200Y-126941948D01*
X128500200Y-127464452D02*
X128500200Y-126941948D01*
%TO.C,SDA*%
X129390000Y-115550000D02*
X129390000Y-116880000D01*
X126790000Y-118210000D02*
X124190000Y-118210000D01*
X126790000Y-115550000D02*
X126790000Y-118210000D01*
X128060000Y-115550000D02*
X129390000Y-115550000D01*
X126790000Y-115550000D02*
X124190000Y-115550000D01*
X124190000Y-115550000D02*
X124190000Y-118210000D01*
%TO.C,R10*%
X120927864Y-128751000D02*
X120473736Y-128751000D01*
X120927864Y-127281000D02*
X120473736Y-127281000D01*
%TD*%
M02*
