%TF.GenerationSoftware,KiCad,Pcbnew,(6.0.11)*%
%TF.CreationDate,2023-10-05T10:27:59-03:00*%
%TF.ProjectId,gerenciador_de_bateria_2.0,67657265-6e63-4696-9164-6f725f64655f,rev?*%
%TF.SameCoordinates,Original*%
%TF.FileFunction,Soldermask,Top*%
%TF.FilePolarity,Negative*%
%FSLAX46Y46*%
G04 Gerber Fmt 4.6, Leading zero omitted, Abs format (unit mm)*
G04 Created by KiCad (PCBNEW (6.0.11)) date 2023-10-05 10:27:59*
%MOMM*%
%LPD*%
G01*
G04 APERTURE LIST*
G04 Aperture macros list*
%AMRoundRect*
0 Rectangle with rounded corners*
0 $1 Rounding radius*
0 $2 $3 $4 $5 $6 $7 $8 $9 X,Y pos of 4 corners*
0 Add a 4 corners polygon primitive as box body*
4,1,4,$2,$3,$4,$5,$6,$7,$8,$9,$2,$3,0*
0 Add four circle primitives for the rounded corners*
1,1,$1+$1,$2,$3*
1,1,$1+$1,$4,$5*
1,1,$1+$1,$6,$7*
1,1,$1+$1,$8,$9*
0 Add four rect primitives between the rounded corners*
20,1,$1+$1,$2,$3,$4,$5,0*
20,1,$1+$1,$4,$5,$6,$7,0*
20,1,$1+$1,$6,$7,$8,$9,0*
20,1,$1+$1,$8,$9,$2,$3,0*%
G04 Aperture macros list end*
%ADD10R,0.127000X0.127000*%
%ADD11R,1.200000X0.200000*%
%ADD12R,0.200000X0.800000*%
%ADD13RoundRect,0.250000X0.475000X-0.250000X0.475000X0.250000X-0.475000X0.250000X-0.475000X-0.250000X0*%
%ADD14RoundRect,0.250000X0.262500X0.450000X-0.262500X0.450000X-0.262500X-0.450000X0.262500X-0.450000X0*%
%ADD15R,1.700000X1.700000*%
%ADD16O,1.700000X1.700000*%
%ADD17RoundRect,0.250000X-0.475000X0.250000X-0.475000X-0.250000X0.475000X-0.250000X0.475000X0.250000X0*%
%ADD18R,1.900000X1.200000*%
%ADD19R,1.900000X1.500000*%
%ADD20C,1.450000*%
%ADD21O,1.900000X1.200000*%
%ADD22R,1.350000X0.400000*%
%ADD23RoundRect,0.250000X-0.250000X-0.475000X0.250000X-0.475000X0.250000X0.475000X-0.250000X0.475000X0*%
%ADD24RoundRect,0.250000X0.250000X0.475000X-0.250000X0.475000X-0.250000X-0.475000X0.250000X-0.475000X0*%
%ADD25RoundRect,0.250000X-0.262500X-0.450000X0.262500X-0.450000X0.262500X0.450000X-0.262500X0.450000X0*%
%ADD26RoundRect,0.250000X1.075000X-0.375000X1.075000X0.375000X-1.075000X0.375000X-1.075000X-0.375000X0*%
G04 APERTURE END LIST*
%TO.C,U1*%
G36*
X118350000Y-124649999D02*
G01*
X118150000Y-124649999D01*
X118150000Y-124149999D01*
X118050000Y-124149999D01*
X118050000Y-123824999D01*
X117550000Y-123824999D01*
X117550000Y-123624999D01*
X118350000Y-123624999D01*
X118350000Y-124649999D01*
G37*
G36*
X121050000Y-121049996D02*
G01*
X121150000Y-121049996D01*
X121150000Y-121374996D01*
X121650000Y-121374996D01*
X121650000Y-121574996D01*
X120850000Y-121574996D01*
X120850000Y-120549996D01*
X121050000Y-120549996D01*
X121050000Y-121049996D01*
G37*
G36*
X118350000Y-121424998D02*
G01*
X118200000Y-121574998D01*
X117550000Y-121574998D01*
X117550000Y-121374998D01*
X118050000Y-121374998D01*
X118050000Y-121049998D01*
X118150000Y-121049998D01*
X118150000Y-120549998D01*
X118350000Y-120549998D01*
X118350000Y-121424998D01*
G37*
G36*
X121650000Y-123825002D02*
G01*
X121150000Y-123825002D01*
X121150000Y-124150002D01*
X121050000Y-124150002D01*
X121050000Y-124650002D01*
X120850000Y-124650002D01*
X120850000Y-123625002D01*
X121650000Y-123625002D01*
X121650000Y-123825002D01*
G37*
%TD*%
D10*
%TO.C,U1*%
X117950000Y-121474998D03*
D11*
X118150000Y-121925000D03*
X118150000Y-122374999D03*
X118150000Y-122825001D03*
X118150000Y-123275000D03*
D10*
X117950000Y-123724999D03*
X118250000Y-124249999D03*
D12*
X118699999Y-124249999D03*
X119150001Y-124249999D03*
X119600000Y-124249999D03*
X120049999Y-124249999D03*
X120500001Y-124249999D03*
D10*
X120950000Y-124249999D03*
X121250000Y-123725002D03*
D11*
X121050000Y-123275000D03*
X121050000Y-122825001D03*
X121050000Y-122374999D03*
X121050000Y-121925000D03*
D10*
X121250000Y-121475001D03*
X120950000Y-120950001D03*
D12*
X120500001Y-120950001D03*
X120049999Y-120950001D03*
X119600000Y-120950001D03*
X119150001Y-120950001D03*
X118699999Y-120950001D03*
D10*
X118250000Y-120950001D03*
%TD*%
D13*
%TO.C,C5*%
X114120000Y-127800000D03*
X114120000Y-125900000D03*
%TD*%
D14*
%TO.C,R2*%
X118108100Y-128016000D03*
X116283100Y-128016000D03*
%TD*%
D15*
%TO.C,J1*%
X132500000Y-118267400D03*
D16*
X132500000Y-120807400D03*
X132500000Y-123347400D03*
X132500000Y-125887400D03*
X132500000Y-128427400D03*
%TD*%
D17*
%TO.C,C9*%
X123370000Y-120060000D03*
X123370000Y-121960000D03*
%TD*%
D18*
%TO.C,USB*%
X107322100Y-120233600D03*
D19*
X107322100Y-122133600D03*
D20*
X110022100Y-120633600D03*
D18*
X107322100Y-126033600D03*
D19*
X107322100Y-124133600D03*
D21*
X107322100Y-126633600D03*
X107322100Y-119633600D03*
D20*
X110022100Y-125633600D03*
D22*
X110022100Y-124433600D03*
X110022100Y-123783600D03*
X110022100Y-123133600D03*
X110022100Y-122483600D03*
X110022100Y-121833600D03*
%TD*%
D23*
%TO.C,C7*%
X125530000Y-120750000D03*
X127430000Y-120750000D03*
%TD*%
D13*
%TO.C,C12*%
X115530000Y-119570000D03*
X115530000Y-121470000D03*
%TD*%
D24*
%TO.C,C3*%
X115120000Y-123530000D03*
X113220000Y-123530000D03*
%TD*%
D16*
%TO.C,GNDPWR*%
X112820000Y-116870000D03*
D15*
X110280000Y-116870000D03*
%TD*%
D25*
%TO.C,R3*%
X125376300Y-128117600D03*
X127201300Y-128117600D03*
%TD*%
D13*
%TO.C,C10*%
X129270000Y-123940000D03*
X129270000Y-122040000D03*
%TD*%
D26*
%TO.C,L1*%
X126140000Y-125920000D03*
X126140000Y-123120000D03*
%TD*%
D13*
%TO.C,C1*%
X113060000Y-119590000D03*
X113060000Y-121490000D03*
%TD*%
D14*
%TO.C,RILIM1*%
X116717500Y-117000000D03*
X118542500Y-117000000D03*
%TD*%
D13*
%TO.C,C4*%
X123190000Y-125918000D03*
X123190000Y-124018000D03*
%TD*%
%TO.C,C6*%
X129235200Y-128153200D03*
X129235200Y-126253200D03*
%TD*%
D16*
%TO.C,SDA*%
X125520000Y-116880000D03*
D15*
X128060000Y-116880000D03*
%TD*%
D14*
%TO.C,R10*%
X121613300Y-128016000D03*
X119788300Y-128016000D03*
%TD*%
M02*
