%TF.GenerationSoftware,KiCad,Pcbnew,(6.0.11)*%
%TF.CreationDate,2023-10-19T09:40:58-03:00*%
%TF.ProjectId,gerenciador_de_bateria_2.0,67657265-6e63-4696-9164-6f725f64655f,rev?*%
%TF.SameCoordinates,Original*%
%TF.FileFunction,Profile,NP*%
%FSLAX46Y46*%
G04 Gerber Fmt 4.6, Leading zero omitted, Abs format (unit mm)*
G04 Created by KiCad (PCBNEW (6.0.11)) date 2023-10-19 09:40:58*
%MOMM*%
%LPD*%
G01*
G04 APERTURE LIST*
%TA.AperFunction,Profile*%
%ADD10C,0.100000*%
%TD*%
G04 APERTURE END LIST*
D10*
X198075000Y-78686499D02*
X105945000Y-78686499D01*
X167091000Y-72940000D02*
X169930700Y-72940000D01*
X134091150Y-152940000D02*
X134091000Y-140716499D01*
X167091000Y-132940701D02*
X169930700Y-132940701D01*
X167091000Y-100706499D02*
X169930700Y-100706499D01*
X105945000Y-94957200D02*
X198075000Y-94957200D01*
X105945000Y-78686499D02*
X105945000Y-74956499D01*
X134091000Y-100706499D02*
X136930700Y-100706499D01*
X167091000Y-152940701D02*
X169930700Y-152940701D01*
X105945000Y-74956499D02*
X198075000Y-74956499D01*
X136930700Y-140716499D02*
X136930850Y-152940000D01*
X198075000Y-138690000D02*
X105935000Y-138690000D01*
X134095000Y-72940701D02*
X134095000Y-60706499D01*
X167091000Y-112940000D02*
X169930700Y-112940000D01*
X105945000Y-114957200D02*
X198075000Y-114957200D01*
X169930700Y-120716499D02*
X169930700Y-132940701D01*
X134091000Y-92940000D02*
X134091000Y-80706499D01*
X134091000Y-92940000D02*
X136925000Y-92940000D01*
X136925000Y-80706499D02*
X136925000Y-92940000D01*
X167091000Y-112940000D02*
X167091000Y-100706499D01*
X105945000Y-118690000D02*
X105945000Y-114957200D01*
X167091000Y-152940701D02*
X167091000Y-140716499D01*
X198075000Y-74956499D02*
X198075000Y-78686499D01*
X103930700Y-58690000D02*
X103930700Y-154957200D01*
X134091000Y-132940701D02*
X136930700Y-132940701D01*
X134095000Y-72940701D02*
X136925000Y-72940701D01*
X167095000Y-60706499D02*
X169915000Y-60706499D01*
X105945000Y-98690000D02*
X105945000Y-94957200D01*
X134091000Y-80706499D02*
X136925000Y-80706499D01*
X167091000Y-132940701D02*
X167091000Y-120716499D01*
X134091000Y-112940000D02*
X136930700Y-112940000D01*
X167091000Y-80706499D02*
X169930700Y-80706499D01*
X198075000Y-118690000D02*
X105945000Y-118690000D01*
X134091000Y-120716499D02*
X136930700Y-120716499D01*
X198075000Y-118690000D02*
X198075000Y-114957200D01*
X136930700Y-100706499D02*
X136930700Y-112940000D01*
X103930700Y-154957200D02*
X200091000Y-154957200D01*
X136930700Y-120716499D02*
X136930700Y-132940701D01*
X105935000Y-134957200D02*
X198075000Y-134957200D01*
X198075000Y-98690000D02*
X105945000Y-98690000D01*
X134091000Y-140716499D02*
X136930700Y-140716499D01*
X200091000Y-58690000D02*
X103930700Y-58690000D01*
X136925000Y-60706499D02*
X136925000Y-72940701D01*
X167091000Y-72940000D02*
X167095000Y-60706499D01*
X167091000Y-92940000D02*
X169930700Y-92940000D01*
X169915000Y-60706499D02*
X169930700Y-72940000D01*
X169930700Y-100706499D02*
X169930700Y-112940000D01*
X169930700Y-140716499D02*
X169930700Y-152940701D01*
X198075000Y-94957200D02*
X198075000Y-98690000D01*
X134091150Y-152940000D02*
X136930850Y-152940000D01*
X134091000Y-112940000D02*
X134091000Y-100706499D01*
X169930700Y-80706499D02*
X169930700Y-92940000D01*
X134091000Y-132940701D02*
X134091000Y-120716499D01*
X167091000Y-92940000D02*
X167091000Y-80706499D01*
X134095000Y-60706499D02*
X136925000Y-60706499D01*
X200091000Y-154957200D02*
X200091000Y-58690000D01*
X198075000Y-138690000D02*
X198075000Y-134957200D01*
X167091000Y-120716499D02*
X169930700Y-120716499D01*
X167091000Y-140716499D02*
X169930700Y-140716499D01*
X105935000Y-138690000D02*
X105935000Y-134957200D01*
M02*
