M48
; DRILL file {KiCad (6.0.11)} date Thu Oct 19 09:40:47 2023
; FORMAT={-:-/ absolute / inch / decimal}
; #@! TF.CreationDate,2023-10-19T09:40:47-03:00
; #@! TF.GenerationSoftware,Kicad,Pcbnew,(6.0.11)
; #@! TF.FileFunction,MixedPlating,1,2
FMAT,2
INCH
; #@! TA.AperFunction,Plated,PTH,ViaDrill
T1C0.0157
; #@! TA.AperFunction,Plated,PTH,ComponentDrill
T2C0.0236
; #@! TA.AperFunction,Plated,PTH,ComponentDrill
T3C0.0335
; #@! TA.AperFunction,Plated,PTH,ComponentDrill
T4C0.0394
%
G90
G05
T1
X4.2625Y-2.8285
X4.2625Y-3.6159
X4.2625Y-4.4033
X4.2625Y-5.1907
X4.2625Y-5.9781
X4.3681Y-2.6238
X4.3681Y-3.4112
X4.3681Y-4.1986
X4.3681Y-4.986
X4.3681Y-5.7734
X4.5319Y-2.7221
X4.5319Y-3.5095
X4.5319Y-4.2969
X4.5319Y-5.0843
X4.5319Y-5.8717
X4.5795Y-2.5171
X4.5795Y-3.3045
X4.5795Y-4.0919
X4.5795Y-4.8793
X4.5795Y-5.6667
X4.6228Y-2.4832
X4.6228Y-3.2706
X4.6228Y-4.058
X4.6228Y-4.8454
X4.6228Y-5.6328
X4.6529Y-2.7512
X4.6529Y-3.5386
X4.6529Y-4.326
X4.6529Y-5.1134
X4.6529Y-5.9008
X4.7076Y-2.3924
X4.7076Y-3.1798
X4.7076Y-3.9672
X4.7076Y-4.7546
X4.7076Y-5.542
X4.7236Y-2.7712
X4.7236Y-3.5586
X4.7236Y-4.346
X4.7236Y-5.1334
X4.7236Y-5.9208
X4.7486Y-2.7322
X4.7486Y-3.5196
X4.7486Y-4.307
X4.7486Y-5.0944
X4.7486Y-5.8818
X4.7621Y-2.3529
X4.7621Y-3.1403
X4.7621Y-3.9277
X4.7621Y-4.7151
X4.7621Y-5.5025
X4.8008Y-2.8012
X4.8008Y-3.5886
X4.8008Y-4.376
X4.8008Y-5.1634
X4.8008Y-5.9508
X5.5618Y-2.8285
X5.5618Y-3.6159
X5.5618Y-4.4033
X5.5618Y-5.1907
X5.5618Y-5.9781
X5.6673Y-2.6238
X5.6673Y-3.4112
X5.6673Y-4.1986
X5.6673Y-4.986
X5.6673Y-5.7734
X5.8311Y-2.7221
X5.8311Y-3.5095
X5.8311Y-4.2969
X5.8311Y-5.0843
X5.8311Y-5.8717
X5.8787Y-2.5171
X5.8787Y-3.3045
X5.8787Y-4.0919
X5.8787Y-4.8793
X5.8787Y-5.6667
X5.922Y-2.4832
X5.922Y-3.2706
X5.922Y-4.058
X5.922Y-4.8454
X5.922Y-5.6328
X5.9521Y-2.7512
X5.9521Y-3.5386
X5.9521Y-4.326
X5.9521Y-5.1134
X5.9521Y-5.9008
X6.0068Y-2.3924
X6.0068Y-3.1798
X6.0068Y-3.9672
X6.0068Y-4.7546
X6.0068Y-5.542
X6.0228Y-2.7712
X6.0228Y-3.5586
X6.0228Y-4.346
X6.0228Y-5.1334
X6.0228Y-5.9208
X6.0478Y-2.7322
X6.0478Y-3.5196
X6.0478Y-4.307
X6.0478Y-5.0944
X6.0478Y-5.8818
X6.0614Y-2.3529
X6.0614Y-3.1403
X6.0614Y-3.9277
X6.0614Y-4.7151
X6.0614Y-5.5025
X6.1Y-2.8012
X6.1Y-3.5886
X6.1Y-4.376
X6.1Y-5.1634
X6.1Y-5.9508
X6.861Y-2.8285
X6.861Y-3.6159
X6.861Y-4.4033
X6.861Y-5.1907
X6.861Y-5.9781
X6.9665Y-2.6238
X6.9665Y-3.4112
X6.9665Y-4.1986
X6.9665Y-4.986
X6.9665Y-5.7734
X7.1303Y-2.7221
X7.1303Y-3.5095
X7.1303Y-4.2969
X7.1303Y-5.0843
X7.1303Y-5.8717
X7.1779Y-2.5171
X7.1779Y-3.3045
X7.1779Y-4.0919
X7.1779Y-4.8793
X7.1779Y-5.6667
X7.2212Y-2.4832
X7.2212Y-3.2706
X7.2212Y-4.058
X7.2212Y-4.8454
X7.2212Y-5.6328
X7.2513Y-2.7512
X7.2513Y-3.5386
X7.2513Y-4.326
X7.2513Y-5.1134
X7.2513Y-5.9008
X7.306Y-2.3924
X7.306Y-3.1798
X7.306Y-3.9672
X7.306Y-4.7546
X7.306Y-5.542
X7.322Y-2.7712
X7.322Y-3.5586
X7.322Y-4.346
X7.322Y-5.1334
X7.322Y-5.9208
X7.347Y-2.7322
X7.347Y-3.5196
X7.347Y-4.307
X7.347Y-5.0944
X7.347Y-5.8818
X7.3606Y-2.3529
X7.3606Y-3.1403
X7.3606Y-3.9277
X7.3606Y-4.7151
X7.3606Y-5.5025
X7.3992Y-2.8012
X7.3992Y-3.5886
X7.3992Y-4.376
X7.3992Y-5.1634
X7.3992Y-5.9508
T3
X4.3044Y-2.5326
X4.3044Y-2.7294
X4.3044Y-3.32
X4.3044Y-3.5168
X4.3044Y-4.1074
X4.3044Y-4.3042
X4.3044Y-4.8948
X4.3044Y-5.0916
X4.3044Y-5.6822
X4.3044Y-5.879
X5.6036Y-2.5326
X5.6036Y-2.7294
X5.6036Y-3.32
X5.6036Y-3.5168
X5.6036Y-4.1074
X5.6036Y-4.3042
X5.6036Y-4.8948
X5.6036Y-5.0916
X5.6036Y-5.6822
X5.6036Y-5.879
X6.9028Y-2.5326
X6.9028Y-2.7294
X6.9028Y-3.32
X6.9028Y-3.5168
X6.9028Y-4.1074
X6.9028Y-4.3042
X6.9028Y-4.8948
X6.9028Y-5.0916
X6.9028Y-5.6822
X6.9028Y-5.879
T4
X4.3145Y-2.3844
X4.3145Y-3.1718
X4.3145Y-3.9592
X4.3145Y-4.7466
X4.3145Y-5.534
X4.4145Y-2.3844
X4.4145Y-3.1718
X4.4145Y-3.9592
X4.4145Y-4.7466
X4.4145Y-5.534
X4.9145Y-2.3848
X4.9145Y-3.1722
X4.9145Y-3.9596
X4.9145Y-4.747
X4.9145Y-5.5344
X5.0145Y-2.3848
X5.0145Y-3.1722
X5.0145Y-3.9596
X5.0145Y-4.747
X5.0145Y-5.5344
X5.1893Y-2.4394
X5.1893Y-2.5394
X5.1893Y-2.6394
X5.1893Y-2.7394
X5.1893Y-2.8394
X5.1893Y-3.2268
X5.1893Y-3.3268
X5.1893Y-3.4268
X5.1893Y-3.5268
X5.1893Y-3.6268
X5.1893Y-4.0142
X5.1893Y-4.1142
X5.1893Y-4.2142
X5.1893Y-4.3142
X5.1893Y-4.4142
X5.1893Y-4.8016
X5.1893Y-4.9016
X5.1893Y-5.0016
X5.1893Y-5.1016
X5.1893Y-5.2016
X5.1893Y-5.589
X5.1893Y-5.689
X5.1893Y-5.789
X5.1893Y-5.889
X5.1893Y-5.989
X5.6137Y-2.3844
X5.6137Y-3.1718
X5.6137Y-3.9592
X5.6137Y-4.7466
X5.6137Y-5.534
X5.7137Y-2.3844
X5.7137Y-3.1718
X5.7137Y-3.9592
X5.7137Y-4.7466
X5.7137Y-5.534
X6.2137Y-2.3848
X6.2137Y-3.1722
X6.2137Y-3.9596
X6.2137Y-4.747
X6.2137Y-5.5344
X6.3137Y-2.3848
X6.3137Y-3.1722
X6.3137Y-3.9596
X6.3137Y-4.747
X6.3137Y-5.5344
X6.4885Y-2.4394
X6.4885Y-2.5394
X6.4885Y-2.6394
X6.4885Y-2.7394
X6.4885Y-2.8394
X6.4885Y-3.2268
X6.4885Y-3.3268
X6.4885Y-3.4268
X6.4885Y-3.5268
X6.4885Y-3.6268
X6.4885Y-4.0142
X6.4885Y-4.1142
X6.4885Y-4.2142
X6.4885Y-4.3142
X6.4885Y-4.4142
X6.4885Y-4.8016
X6.4885Y-4.9016
X6.4885Y-5.0016
X6.4885Y-5.1016
X6.4885Y-5.2016
X6.4885Y-5.589
X6.4885Y-5.689
X6.4885Y-5.789
X6.4885Y-5.889
X6.4885Y-5.989
X6.9129Y-2.3844
X6.9129Y-3.1718
X6.9129Y-3.9592
X6.9129Y-4.7466
X6.9129Y-5.534
X7.0129Y-2.3844
X7.0129Y-3.1718
X7.0129Y-3.9592
X7.0129Y-4.7466
X7.0129Y-5.534
X7.5129Y-2.3848
X7.5129Y-3.1722
X7.5129Y-3.9596
X7.5129Y-4.747
X7.5129Y-5.5344
X7.6129Y-2.3848
X7.6129Y-3.1722
X7.6129Y-3.9596
X7.6129Y-4.747
X7.6129Y-5.5344
X7.7877Y-2.4394
X7.7877Y-2.5394
X7.7877Y-2.6394
X7.7877Y-2.7394
X7.7877Y-2.8394
X7.7877Y-3.2268
X7.7877Y-3.3268
X7.7877Y-3.4268
X7.7877Y-3.5268
X7.7877Y-3.6268
X7.7877Y-4.0142
X7.7877Y-4.1142
X7.7877Y-4.2142
X7.7877Y-4.3142
X7.7877Y-4.4142
X7.7877Y-4.8016
X7.7877Y-4.9016
X7.7877Y-5.0016
X7.7877Y-5.1016
X7.7877Y-5.2016
X7.7877Y-5.589
X7.7877Y-5.689
X7.7877Y-5.789
X7.7877Y-5.889
X7.7877Y-5.989
T2
G00X4.1843Y-2.4932
M15
G01X4.2118Y-2.4932
M16
G05
G00X4.2118Y-2.7688
M15
G01X4.1843Y-2.7688
M16
G05
G00X4.1843Y-3.2806
M15
G01X4.2118Y-3.2806
M16
G05
G00X4.2118Y-3.5562
M15
G01X4.1843Y-3.5562
M16
G05
G00X4.1843Y-4.068
M15
G01X4.2118Y-4.068
M16
G05
G00X4.2118Y-4.3436
M15
G01X4.1843Y-4.3436
M16
G05
G00X4.1843Y-4.8554
M15
G01X4.2118Y-4.8554
M16
G05
G00X4.2118Y-5.131
M15
G01X4.1843Y-5.131
M16
G05
G00X4.1843Y-5.6428
M15
G01X4.2118Y-5.6428
M16
G05
G00X4.2118Y-5.9184
M15
G01X4.1843Y-5.9184
M16
G05
G00X5.4835Y-2.4932
M15
G01X5.511Y-2.4932
M16
G05
G00X5.511Y-2.7688
M15
G01X5.4835Y-2.7688
M16
G05
G00X5.4835Y-3.2806
M15
G01X5.511Y-3.2806
M16
G05
G00X5.511Y-3.5562
M15
G01X5.4835Y-3.5562
M16
G05
G00X5.4835Y-4.068
M15
G01X5.511Y-4.068
M16
G05
G00X5.511Y-4.3436
M15
G01X5.4835Y-4.3436
M16
G05
G00X5.4835Y-4.8554
M15
G01X5.511Y-4.8554
M16
G05
G00X5.511Y-5.131
M15
G01X5.4835Y-5.131
M16
G05
G00X5.4835Y-5.6428
M15
G01X5.511Y-5.6428
M16
G05
G00X5.511Y-5.9184
M15
G01X5.4835Y-5.9184
M16
G05
G00X6.7827Y-2.4932
M15
G01X6.8103Y-2.4932
M16
G05
G00X6.8103Y-2.7688
M15
G01X6.7827Y-2.7688
M16
G05
G00X6.7827Y-3.2806
M15
G01X6.8103Y-3.2806
M16
G05
G00X6.8103Y-3.5562
M15
G01X6.7827Y-3.5562
M16
G05
G00X6.7827Y-4.068
M15
G01X6.8103Y-4.068
M16
G05
G00X6.8103Y-4.3436
M15
G01X6.7827Y-4.3436
M16
G05
G00X6.7827Y-4.8554
M15
G01X6.8103Y-4.8554
M16
G05
G00X6.8103Y-5.131
M15
G01X6.7827Y-5.131
M16
G05
G00X6.7827Y-5.6428
M15
G01X6.8103Y-5.6428
M16
G05
G00X6.8103Y-5.9184
M15
G01X6.7827Y-5.9184
M16
G05
T0
M30
