M48
; DRILL file {KiCad (6.0.11)} date Thu Oct  5 10:27:52 2023
; FORMAT={-:-/ absolute / inch / decimal}
; #@! TF.CreationDate,2023-10-05T10:27:52-03:00
; #@! TF.GenerationSoftware,Kicad,Pcbnew,(6.0.11)
; #@! TF.FileFunction,Plated,1,2,PTH
FMAT,2
INCH
; #@! TA.AperFunction,Plated,PTH,ViaDrill
T1C0.0157
; #@! TA.AperFunction,Plated,PTH,ComponentDrill
T2C0.0236
; #@! TA.AperFunction,Plated,PTH,ComponentDrill
T3C0.0335
; #@! TA.AperFunction,Plated,PTH,ComponentDrill
T4C0.0394
%
G90
G05
T1
X4.2898Y-5.0453
X4.3953Y-4.8406
X4.5591Y-4.9389
X4.6067Y-4.7339
X4.65Y-4.7
X4.6801Y-4.968
X4.7348Y-4.6092
X4.7508Y-4.988
X4.7758Y-4.949
X4.7894Y-4.5697
X4.828Y-5.018
T3
X4.3316Y-4.7494
X4.3316Y-4.9462
T4
X4.3417Y-4.6012
X4.4417Y-4.6012
X4.9417Y-4.6016
X5.0417Y-4.6016
X5.2165Y-4.6562
X5.2165Y-4.7562
X5.2165Y-4.8562
X5.2165Y-4.9562
X5.2165Y-5.0562
T2
G00X4.2115Y-4.71
M15
G01X4.2391Y-4.71
M16
G05
G00X4.2391Y-4.9856
M15
G01X4.2115Y-4.9856
M16
G05
T0
M30
