%TF.GenerationSoftware,KiCad,Pcbnew,(6.0.11)*%
%TF.CreationDate,2023-10-05T10:27:59-03:00*%
%TF.ProjectId,gerenciador_de_bateria_2.0,67657265-6e63-4696-9164-6f725f64655f,rev?*%
%TF.SameCoordinates,Original*%
%TF.FileFunction,Legend,Bot*%
%TF.FilePolarity,Positive*%
%FSLAX46Y46*%
G04 Gerber Fmt 4.6, Leading zero omitted, Abs format (unit mm)*
G04 Created by KiCad (PCBNEW (6.0.11)) date 2023-10-05 10:27:59*
%MOMM*%
%LPD*%
G01*
G04 APERTURE LIST*
%ADD10C,0.100000*%
%ADD11C,0.120000*%
G04 APERTURE END LIST*
D10*
%TO.C,R1*%
X117893333Y-115906190D02*
X118060000Y-115668095D01*
X118179047Y-115906190D02*
X118179047Y-115406190D01*
X117988571Y-115406190D01*
X117940952Y-115430000D01*
X117917142Y-115453809D01*
X117893333Y-115501428D01*
X117893333Y-115572857D01*
X117917142Y-115620476D01*
X117940952Y-115644285D01*
X117988571Y-115668095D01*
X118179047Y-115668095D01*
X117417142Y-115906190D02*
X117702857Y-115906190D01*
X117560000Y-115906190D02*
X117560000Y-115406190D01*
X117607619Y-115477619D01*
X117655238Y-115525238D01*
X117702857Y-115549047D01*
X116750814Y-115894990D02*
X117036528Y-115894990D01*
X116893671Y-115894990D02*
X116893671Y-115394990D01*
X116941290Y-115466419D01*
X116988909Y-115514038D01*
X117036528Y-115537847D01*
X116441290Y-115394990D02*
X116393671Y-115394990D01*
X116346052Y-115418800D01*
X116322242Y-115442609D01*
X116298433Y-115490228D01*
X116274623Y-115585466D01*
X116274623Y-115704514D01*
X116298433Y-115799752D01*
X116322242Y-115847371D01*
X116346052Y-115871180D01*
X116393671Y-115894990D01*
X116441290Y-115894990D01*
X116488909Y-115871180D01*
X116512719Y-115847371D01*
X116536528Y-115799752D01*
X116560338Y-115704514D01*
X116560338Y-115585466D01*
X116536528Y-115490228D01*
X116512719Y-115442609D01*
X116488909Y-115418800D01*
X116441290Y-115394990D01*
X115965100Y-115394990D02*
X115917480Y-115394990D01*
X115869861Y-115418800D01*
X115846052Y-115442609D01*
X115822242Y-115490228D01*
X115798433Y-115585466D01*
X115798433Y-115704514D01*
X115822242Y-115799752D01*
X115846052Y-115847371D01*
X115869861Y-115871180D01*
X115917480Y-115894990D01*
X115965100Y-115894990D01*
X116012719Y-115871180D01*
X116036528Y-115847371D01*
X116060338Y-115799752D01*
X116084147Y-115704514D01*
X116084147Y-115585466D01*
X116060338Y-115490228D01*
X116036528Y-115442609D01*
X116012719Y-115418800D01*
X115965100Y-115394990D01*
X115584147Y-115894990D02*
X115584147Y-115394990D01*
X115536528Y-115704514D02*
X115393671Y-115894990D01*
X115393671Y-115561657D02*
X115584147Y-115752133D01*
%TO.C,R7*%
X129353333Y-122106190D02*
X129520000Y-121868095D01*
X129639047Y-122106190D02*
X129639047Y-121606190D01*
X129448571Y-121606190D01*
X129400952Y-121630000D01*
X129377142Y-121653809D01*
X129353333Y-121701428D01*
X129353333Y-121772857D01*
X129377142Y-121820476D01*
X129400952Y-121844285D01*
X129448571Y-121868095D01*
X129639047Y-121868095D01*
X129186666Y-121606190D02*
X128853333Y-121606190D01*
X129067619Y-122106190D01*
X128077619Y-122106190D02*
X128363333Y-122106190D01*
X128220476Y-122106190D02*
X128220476Y-121606190D01*
X128268095Y-121677619D01*
X128315714Y-121725238D01*
X128363333Y-121749047D01*
X127768095Y-121606190D02*
X127720476Y-121606190D01*
X127672857Y-121630000D01*
X127649047Y-121653809D01*
X127625238Y-121701428D01*
X127601428Y-121796666D01*
X127601428Y-121915714D01*
X127625238Y-122010952D01*
X127649047Y-122058571D01*
X127672857Y-122082380D01*
X127720476Y-122106190D01*
X127768095Y-122106190D01*
X127815714Y-122082380D01*
X127839523Y-122058571D01*
X127863333Y-122010952D01*
X127887142Y-121915714D01*
X127887142Y-121796666D01*
X127863333Y-121701428D01*
X127839523Y-121653809D01*
X127815714Y-121630000D01*
X127768095Y-121606190D01*
X127387142Y-122106190D02*
X127387142Y-121606190D01*
X127339523Y-121915714D02*
X127196666Y-122106190D01*
X127196666Y-121772857D02*
X127387142Y-121963333D01*
%TO.C,R12*%
X129391428Y-125126190D02*
X129558095Y-124888095D01*
X129677142Y-125126190D02*
X129677142Y-124626190D01*
X129486666Y-124626190D01*
X129439047Y-124650000D01*
X129415238Y-124673809D01*
X129391428Y-124721428D01*
X129391428Y-124792857D01*
X129415238Y-124840476D01*
X129439047Y-124864285D01*
X129486666Y-124888095D01*
X129677142Y-124888095D01*
X128915238Y-125126190D02*
X129200952Y-125126190D01*
X129058095Y-125126190D02*
X129058095Y-124626190D01*
X129105714Y-124697619D01*
X129153333Y-124745238D01*
X129200952Y-124769047D01*
X128724761Y-124673809D02*
X128700952Y-124650000D01*
X128653333Y-124626190D01*
X128534285Y-124626190D01*
X128486666Y-124650000D01*
X128462857Y-124673809D01*
X128439047Y-124721428D01*
X128439047Y-124769047D01*
X128462857Y-124840476D01*
X128748571Y-125126190D01*
X128439047Y-125126190D01*
X127576190Y-125173809D02*
X127623809Y-125173809D01*
X127671428Y-125150000D01*
X127695238Y-125126190D01*
X127719047Y-125078571D01*
X127742857Y-124983333D01*
X127742857Y-124864285D01*
X127719047Y-124769047D01*
X127695238Y-124721428D01*
X127671428Y-124697619D01*
X127623809Y-124673809D01*
X127576190Y-124673809D01*
X127528571Y-124697619D01*
X127504761Y-124721428D01*
X127480952Y-124769047D01*
X127457142Y-124864285D01*
X127457142Y-124983333D01*
X127480952Y-125078571D01*
X127504761Y-125126190D01*
X127528571Y-125150000D01*
X127576190Y-125173809D01*
%TO.C,R5*%
X121563333Y-130426190D02*
X121730000Y-130188095D01*
X121849047Y-130426190D02*
X121849047Y-129926190D01*
X121658571Y-129926190D01*
X121610952Y-129950000D01*
X121587142Y-129973809D01*
X121563333Y-130021428D01*
X121563333Y-130092857D01*
X121587142Y-130140476D01*
X121610952Y-130164285D01*
X121658571Y-130188095D01*
X121849047Y-130188095D01*
X121110952Y-129926190D02*
X121349047Y-129926190D01*
X121372857Y-130164285D01*
X121349047Y-130140476D01*
X121301428Y-130116666D01*
X121182380Y-130116666D01*
X121134761Y-130140476D01*
X121110952Y-130164285D01*
X121087142Y-130211904D01*
X121087142Y-130330952D01*
X121110952Y-130378571D01*
X121134761Y-130402380D01*
X121182380Y-130426190D01*
X121301428Y-130426190D01*
X121349047Y-130402380D01*
X121372857Y-130378571D01*
X120275238Y-129973809D02*
X120251428Y-129950000D01*
X120203809Y-129926190D01*
X120084761Y-129926190D01*
X120037142Y-129950000D01*
X120013333Y-129973809D01*
X119989523Y-130021428D01*
X119989523Y-130069047D01*
X120013333Y-130140476D01*
X120299047Y-130426190D01*
X119989523Y-130426190D01*
X119775238Y-130426190D02*
X119775238Y-129926190D01*
X119727619Y-130235714D02*
X119584761Y-130426190D01*
X119584761Y-130092857D02*
X119775238Y-130283333D01*
%TO.C,R4*%
X125703333Y-127536190D02*
X125870000Y-127298095D01*
X125989047Y-127536190D02*
X125989047Y-127036190D01*
X125798571Y-127036190D01*
X125750952Y-127060000D01*
X125727142Y-127083809D01*
X125703333Y-127131428D01*
X125703333Y-127202857D01*
X125727142Y-127250476D01*
X125750952Y-127274285D01*
X125798571Y-127298095D01*
X125989047Y-127298095D01*
X125274761Y-127202857D02*
X125274761Y-127536190D01*
X125393809Y-127012380D02*
X125512857Y-127369523D01*
X125203333Y-127369523D01*
X126027619Y-129666190D02*
X126313333Y-129666190D01*
X126170476Y-129666190D02*
X126170476Y-129166190D01*
X126218095Y-129237619D01*
X126265714Y-129285238D01*
X126313333Y-129309047D01*
X125718095Y-129166190D02*
X125670476Y-129166190D01*
X125622857Y-129190000D01*
X125599047Y-129213809D01*
X125575238Y-129261428D01*
X125551428Y-129356666D01*
X125551428Y-129475714D01*
X125575238Y-129570952D01*
X125599047Y-129618571D01*
X125622857Y-129642380D01*
X125670476Y-129666190D01*
X125718095Y-129666190D01*
X125765714Y-129642380D01*
X125789523Y-129618571D01*
X125813333Y-129570952D01*
X125837142Y-129475714D01*
X125837142Y-129356666D01*
X125813333Y-129261428D01*
X125789523Y-129213809D01*
X125765714Y-129190000D01*
X125718095Y-129166190D01*
X125337142Y-129666190D02*
X125337142Y-129166190D01*
X125289523Y-129475714D02*
X125146666Y-129666190D01*
X125146666Y-129332857D02*
X125337142Y-129523333D01*
%TO.C,R6*%
X124571733Y-125975390D02*
X124738400Y-125737295D01*
X124857447Y-125975390D02*
X124857447Y-125475390D01*
X124666971Y-125475390D01*
X124619352Y-125499200D01*
X124595542Y-125523009D01*
X124571733Y-125570628D01*
X124571733Y-125642057D01*
X124595542Y-125689676D01*
X124619352Y-125713485D01*
X124666971Y-125737295D01*
X124857447Y-125737295D01*
X124143161Y-125475390D02*
X124238400Y-125475390D01*
X124286019Y-125499200D01*
X124309828Y-125523009D01*
X124357447Y-125594438D01*
X124381257Y-125689676D01*
X124381257Y-125880152D01*
X124357447Y-125927771D01*
X124333638Y-125951580D01*
X124286019Y-125975390D01*
X124190780Y-125975390D01*
X124143161Y-125951580D01*
X124119352Y-125927771D01*
X124095542Y-125880152D01*
X124095542Y-125761104D01*
X124119352Y-125713485D01*
X124143161Y-125689676D01*
X124190780Y-125665866D01*
X124286019Y-125665866D01*
X124333638Y-125689676D01*
X124357447Y-125713485D01*
X124381257Y-125761104D01*
X123326019Y-125975390D02*
X123611733Y-125975390D01*
X123468876Y-125975390D02*
X123468876Y-125475390D01*
X123516495Y-125546819D01*
X123564114Y-125594438D01*
X123611733Y-125618247D01*
X123016495Y-125475390D02*
X122968876Y-125475390D01*
X122921257Y-125499200D01*
X122897447Y-125523009D01*
X122873638Y-125570628D01*
X122849828Y-125665866D01*
X122849828Y-125784914D01*
X122873638Y-125880152D01*
X122897447Y-125927771D01*
X122921257Y-125951580D01*
X122968876Y-125975390D01*
X123016495Y-125975390D01*
X123064114Y-125951580D01*
X123087923Y-125927771D01*
X123111733Y-125880152D01*
X123135542Y-125784914D01*
X123135542Y-125665866D01*
X123111733Y-125570628D01*
X123087923Y-125523009D01*
X123064114Y-125499200D01*
X123016495Y-125475390D01*
X122635542Y-125975390D02*
X122635542Y-125475390D01*
X122587923Y-125784914D02*
X122445066Y-125975390D01*
X122445066Y-125642057D02*
X122635542Y-125832533D01*
%TO.C,C11*%
X118551428Y-122568571D02*
X118575238Y-122592380D01*
X118646666Y-122616190D01*
X118694285Y-122616190D01*
X118765714Y-122592380D01*
X118813333Y-122544761D01*
X118837142Y-122497142D01*
X118860952Y-122401904D01*
X118860952Y-122330476D01*
X118837142Y-122235238D01*
X118813333Y-122187619D01*
X118765714Y-122140000D01*
X118694285Y-122116190D01*
X118646666Y-122116190D01*
X118575238Y-122140000D01*
X118551428Y-122163809D01*
X118075238Y-122616190D02*
X118360952Y-122616190D01*
X118218095Y-122616190D02*
X118218095Y-122116190D01*
X118265714Y-122187619D01*
X118313333Y-122235238D01*
X118360952Y-122259047D01*
X117599047Y-122616190D02*
X117884761Y-122616190D01*
X117741904Y-122616190D02*
X117741904Y-122116190D01*
X117789523Y-122187619D01*
X117837142Y-122235238D01*
X117884761Y-122259047D01*
X118702857Y-125076190D02*
X118702857Y-124576190D01*
X118417142Y-125076190D01*
X118417142Y-124576190D01*
X117893333Y-125028571D02*
X117917142Y-125052380D01*
X117988571Y-125076190D01*
X118036190Y-125076190D01*
X118107619Y-125052380D01*
X118155238Y-125004761D01*
X118179047Y-124957142D01*
X118202857Y-124861904D01*
X118202857Y-124790476D01*
X118179047Y-124695238D01*
X118155238Y-124647619D01*
X118107619Y-124600000D01*
X118036190Y-124576190D01*
X117988571Y-124576190D01*
X117917142Y-124600000D01*
X117893333Y-124623809D01*
%TO.C,R8*%
X129323333Y-119006190D02*
X129490000Y-118768095D01*
X129609047Y-119006190D02*
X129609047Y-118506190D01*
X129418571Y-118506190D01*
X129370952Y-118530000D01*
X129347142Y-118553809D01*
X129323333Y-118601428D01*
X129323333Y-118672857D01*
X129347142Y-118720476D01*
X129370952Y-118744285D01*
X129418571Y-118768095D01*
X129609047Y-118768095D01*
X129037619Y-118720476D02*
X129085238Y-118696666D01*
X129109047Y-118672857D01*
X129132857Y-118625238D01*
X129132857Y-118601428D01*
X129109047Y-118553809D01*
X129085238Y-118530000D01*
X129037619Y-118506190D01*
X128942380Y-118506190D01*
X128894761Y-118530000D01*
X128870952Y-118553809D01*
X128847142Y-118601428D01*
X128847142Y-118625238D01*
X128870952Y-118672857D01*
X128894761Y-118696666D01*
X128942380Y-118720476D01*
X129037619Y-118720476D01*
X129085238Y-118744285D01*
X129109047Y-118768095D01*
X129132857Y-118815714D01*
X129132857Y-118910952D01*
X129109047Y-118958571D01*
X129085238Y-118982380D01*
X129037619Y-119006190D01*
X128942380Y-119006190D01*
X128894761Y-118982380D01*
X128870952Y-118958571D01*
X128847142Y-118910952D01*
X128847142Y-118815714D01*
X128870952Y-118768095D01*
X128894761Y-118744285D01*
X128942380Y-118720476D01*
X127967619Y-119006190D02*
X128253333Y-119006190D01*
X128110476Y-119006190D02*
X128110476Y-118506190D01*
X128158095Y-118577619D01*
X128205714Y-118625238D01*
X128253333Y-118649047D01*
X127658095Y-118506190D02*
X127610476Y-118506190D01*
X127562857Y-118530000D01*
X127539047Y-118553809D01*
X127515238Y-118601428D01*
X127491428Y-118696666D01*
X127491428Y-118815714D01*
X127515238Y-118910952D01*
X127539047Y-118958571D01*
X127562857Y-118982380D01*
X127610476Y-119006190D01*
X127658095Y-119006190D01*
X127705714Y-118982380D01*
X127729523Y-118958571D01*
X127753333Y-118910952D01*
X127777142Y-118815714D01*
X127777142Y-118696666D01*
X127753333Y-118601428D01*
X127729523Y-118553809D01*
X127705714Y-118530000D01*
X127658095Y-118506190D01*
X127277142Y-119006190D02*
X127277142Y-118506190D01*
X127229523Y-118815714D02*
X127086666Y-119006190D01*
X127086666Y-118672857D02*
X127277142Y-118863333D01*
%TO.C,SW1*%
X123736666Y-118082380D02*
X123665238Y-118106190D01*
X123546190Y-118106190D01*
X123498571Y-118082380D01*
X123474761Y-118058571D01*
X123450952Y-118010952D01*
X123450952Y-117963333D01*
X123474761Y-117915714D01*
X123498571Y-117891904D01*
X123546190Y-117868095D01*
X123641428Y-117844285D01*
X123689047Y-117820476D01*
X123712857Y-117796666D01*
X123736666Y-117749047D01*
X123736666Y-117701428D01*
X123712857Y-117653809D01*
X123689047Y-117630000D01*
X123641428Y-117606190D01*
X123522380Y-117606190D01*
X123450952Y-117630000D01*
X123284285Y-117606190D02*
X123165238Y-118106190D01*
X123070000Y-117749047D01*
X122974761Y-118106190D01*
X122855714Y-117606190D01*
X122403333Y-118106190D02*
X122689047Y-118106190D01*
X122546190Y-118106190D02*
X122546190Y-117606190D01*
X122593809Y-117677619D01*
X122641428Y-117725238D01*
X122689047Y-117749047D01*
%TO.C,R11*%
X129351428Y-128286190D02*
X129518095Y-128048095D01*
X129637142Y-128286190D02*
X129637142Y-127786190D01*
X129446666Y-127786190D01*
X129399047Y-127810000D01*
X129375238Y-127833809D01*
X129351428Y-127881428D01*
X129351428Y-127952857D01*
X129375238Y-128000476D01*
X129399047Y-128024285D01*
X129446666Y-128048095D01*
X129637142Y-128048095D01*
X128875238Y-128286190D02*
X129160952Y-128286190D01*
X129018095Y-128286190D02*
X129018095Y-127786190D01*
X129065714Y-127857619D01*
X129113333Y-127905238D01*
X129160952Y-127929047D01*
X128399047Y-128286190D02*
X128684761Y-128286190D01*
X128541904Y-128286190D02*
X128541904Y-127786190D01*
X128589523Y-127857619D01*
X128637142Y-127905238D01*
X128684761Y-127929047D01*
X127426190Y-128333809D02*
X127473809Y-128333809D01*
X127521428Y-128310000D01*
X127545238Y-128286190D01*
X127569047Y-128238571D01*
X127592857Y-128143333D01*
X127592857Y-128024285D01*
X127569047Y-127929047D01*
X127545238Y-127881428D01*
X127521428Y-127857619D01*
X127473809Y-127833809D01*
X127426190Y-127833809D01*
X127378571Y-127857619D01*
X127354761Y-127881428D01*
X127330952Y-127929047D01*
X127307142Y-128024285D01*
X127307142Y-128143333D01*
X127330952Y-128238571D01*
X127354761Y-128286190D01*
X127378571Y-128310000D01*
X127426190Y-128333809D01*
%TO.C,D1*%
X117734647Y-126021790D02*
X117734647Y-125521790D01*
X117615600Y-125521790D01*
X117544171Y-125545600D01*
X117496552Y-125593219D01*
X117472742Y-125640838D01*
X117448933Y-125736076D01*
X117448933Y-125807504D01*
X117472742Y-125902742D01*
X117496552Y-125950361D01*
X117544171Y-125997980D01*
X117615600Y-126021790D01*
X117734647Y-126021790D01*
X116972742Y-126021790D02*
X117258457Y-126021790D01*
X117115600Y-126021790D02*
X117115600Y-125521790D01*
X117163219Y-125593219D01*
X117210838Y-125640838D01*
X117258457Y-125664647D01*
D11*
%TO.C,R1*%
X117014564Y-117725000D02*
X116560436Y-117725000D01*
X117014564Y-116255000D02*
X116560436Y-116255000D01*
%TO.C,R7*%
X128112936Y-123945000D02*
X128567064Y-123945000D01*
X128112936Y-122475000D02*
X128567064Y-122475000D01*
%TO.C,R12*%
X128487064Y-127045000D02*
X128032936Y-127045000D01*
X128487064Y-125575000D02*
X128032936Y-125575000D01*
%TO.C,R5*%
X120372136Y-127992200D02*
X120826264Y-127992200D01*
X120372136Y-129462200D02*
X120826264Y-129462200D01*
%TO.C,R4*%
X124991800Y-127941336D02*
X124991800Y-128395464D01*
X123521800Y-127941336D02*
X123521800Y-128395464D01*
%TO.C,R6*%
X123472936Y-125025000D02*
X123927064Y-125025000D01*
X123472936Y-123555000D02*
X123927064Y-123555000D01*
%TO.C,C11*%
X119105000Y-123518748D02*
X119105000Y-124041252D01*
X120575000Y-123518748D02*
X120575000Y-124041252D01*
%TO.C,R8*%
X128567064Y-120875000D02*
X128112936Y-120875000D01*
X128567064Y-119405000D02*
X128112936Y-119405000D01*
%TO.C,SW1*%
X121000000Y-121400000D02*
X121000000Y-121700000D01*
X121000000Y-118560000D02*
X121000000Y-118860000D01*
X121000000Y-121700000D02*
X125140000Y-121700000D01*
X125140000Y-121700000D02*
X125140000Y-121400000D01*
X125140000Y-118560000D02*
X121000000Y-118560000D01*
X125140000Y-118860000D02*
X125140000Y-118560000D01*
%TO.C,R11*%
X128484564Y-130075000D02*
X128030436Y-130075000D01*
X128484564Y-128605000D02*
X128030436Y-128605000D01*
%TO.C,D1*%
X118340000Y-126265000D02*
X118340000Y-128950000D01*
X116420000Y-126265000D02*
X118340000Y-126265000D01*
X116420000Y-128950000D02*
X116420000Y-126265000D01*
%TD*%
M02*
