M48
; DRILL file {KiCad (6.0.11)} date Tue Aug 29 10:48:54 2023
; FORMAT={-:-/ absolute / inch / decimal}
; #@! TF.CreationDate,2023-08-29T10:48:54-03:00
; #@! TF.GenerationSoftware,Kicad,Pcbnew,(6.0.11)
; #@! TF.FileFunction,Plated,1,2,PTH
FMAT,2
INCH
; #@! TA.AperFunction,Plated,PTH,ViaDrill
T1C0.0157
; #@! TA.AperFunction,Plated,PTH,ComponentDrill
T2C0.0197
; #@! TA.AperFunction,Plated,PTH,ComponentDrill
T3C0.0217
; #@! TA.AperFunction,Plated,PTH,ComponentDrill
T4C0.0394
%
G90
G05
T1
X4.394Y-4.854
X4.422Y-4.826
X4.57Y-4.93
X4.6287Y-4.7392
X4.65Y-4.7
X4.6801Y-4.968
X4.722Y-4.622
X4.74Y-4.664
X4.7508Y-4.988
X4.7804Y-4.9536
X4.828Y-5.018
T4
X4.3398Y-4.61
X4.4398Y-4.61
X4.908Y-4.626
X5.008Y-4.626
X5.222Y-4.6562
X5.222Y-4.7562
X5.222Y-4.8562
X5.222Y-4.9562
X5.222Y-5.0562
T2
G00X4.2356Y-4.6942
M15
G01X4.21Y-4.6942
M16
G05
G00X4.2356Y-4.9698
M15
G01X4.21Y-4.9698
M16
G05
T3
G00X4.3291Y-4.7277
M15
G01X4.3291Y-4.7395
M16
G05
G00X4.3291Y-4.9245
M15
G01X4.3291Y-4.9363
M16
G05
T0
M30
