%TF.GenerationSoftware,KiCad,Pcbnew,(6.0.11)*%
%TF.CreationDate,2023-08-29T10:49:09-03:00*%
%TF.ProjectId,gerenciador_de_bateria_2.0,67657265-6e63-4696-9164-6f725f64655f,rev?*%
%TF.SameCoordinates,Original*%
%TF.FileFunction,Copper,L2,Bot*%
%TF.FilePolarity,Positive*%
%FSLAX46Y46*%
G04 Gerber Fmt 4.6, Leading zero omitted, Abs format (unit mm)*
G04 Created by KiCad (PCBNEW (6.0.11)) date 2023-08-29 10:49:09*
%MOMM*%
%LPD*%
G01*
G04 APERTURE LIST*
G04 Aperture macros list*
%AMRoundRect*
0 Rectangle with rounded corners*
0 $1 Rounding radius*
0 $2 $3 $4 $5 $6 $7 $8 $9 X,Y pos of 4 corners*
0 Add a 4 corners polygon primitive as box body*
4,1,4,$2,$3,$4,$5,$6,$7,$8,$9,$2,$3,0*
0 Add four circle primitives for the rounded corners*
1,1,$1+$1,$2,$3*
1,1,$1+$1,$4,$5*
1,1,$1+$1,$6,$7*
1,1,$1+$1,$8,$9*
0 Add four rect primitives between the rounded corners*
20,1,$1+$1,$2,$3,$4,$5,0*
20,1,$1+$1,$4,$5,$6,$7,0*
20,1,$1+$1,$6,$7,$8,$9,0*
20,1,$1+$1,$8,$9,$2,$3,0*%
G04 Aperture macros list end*
%TA.AperFunction,ComponentPad*%
%ADD10R,1.700000X1.700000*%
%TD*%
%TA.AperFunction,ComponentPad*%
%ADD11O,1.700000X1.700000*%
%TD*%
%TA.AperFunction,ComponentPad*%
%ADD12O,1.550000X0.890000*%
%TD*%
%TA.AperFunction,ComponentPad*%
%ADD13O,0.950000X1.250000*%
%TD*%
%TA.AperFunction,SMDPad,CuDef*%
%ADD14RoundRect,0.250000X-0.450000X0.262500X-0.450000X-0.262500X0.450000X-0.262500X0.450000X0.262500X0*%
%TD*%
%TA.AperFunction,SMDPad,CuDef*%
%ADD15RoundRect,0.250000X0.450000X-0.262500X0.450000X0.262500X-0.450000X0.262500X-0.450000X-0.262500X0*%
%TD*%
%TA.AperFunction,SMDPad,CuDef*%
%ADD16RoundRect,0.250000X-0.262500X-0.450000X0.262500X-0.450000X0.262500X0.450000X-0.262500X0.450000X0*%
%TD*%
%TA.AperFunction,SMDPad,CuDef*%
%ADD17RoundRect,0.250000X-0.475000X0.250000X-0.475000X-0.250000X0.475000X-0.250000X0.475000X0.250000X0*%
%TD*%
%TA.AperFunction,SMDPad,CuDef*%
%ADD18R,0.900000X1.700000*%
%TD*%
%TA.AperFunction,SMDPad,CuDef*%
%ADD19RoundRect,0.243750X-0.456250X0.243750X-0.456250X-0.243750X0.456250X-0.243750X0.456250X0.243750X0*%
%TD*%
%TA.AperFunction,ViaPad*%
%ADD20C,0.800000*%
%TD*%
%TA.AperFunction,Conductor*%
%ADD21C,0.600000*%
%TD*%
%TA.AperFunction,Conductor*%
%ADD22C,0.400000*%
%TD*%
G04 APERTURE END LIST*
D10*
%TO.P,J1,1,Pin_1*%
%TO.N,/BATT*%
X132638800Y-118267400D03*
D11*
%TO.P,J1,2,Pin_2*%
%TO.N,GNDPWR*%
X132638800Y-120807400D03*
%TO.P,J1,3,Pin_3*%
X132638800Y-123347400D03*
%TO.P,J1,4,Pin_4*%
%TO.N,/SYS*%
X132638800Y-125887400D03*
%TO.P,J1,5,Pin_5*%
%TO.N,/TERM*%
X132638800Y-128427400D03*
%TD*%
D12*
%TO.P,U2,6,GND*%
%TO.N,GNDPWR*%
X107259600Y-126232800D03*
D13*
X109959600Y-120232800D03*
X109959600Y-125232800D03*
D12*
X107259600Y-119232800D03*
%TD*%
D10*
%TO.P,J2,1,Pin_1*%
%TO.N,/VIN*%
X110231000Y-117094000D03*
D11*
%TO.P,J2,2,Pin_2*%
%TO.N,GNDPWR*%
X112771000Y-117094000D03*
%TD*%
D10*
%TO.P,J5,1,Pin_1*%
%TO.N,/SCL*%
X127203200Y-117500400D03*
D11*
%TO.P,J5,2,Pin_2*%
%TO.N,/SDA*%
X124663200Y-117500400D03*
%TD*%
D14*
%TO.P,R1,1*%
%TO.N,Net-(R1-Pad1)*%
X120091200Y-119585100D03*
%TO.P,R1,2*%
%TO.N,/VREF*%
X120091200Y-121410100D03*
%TD*%
D15*
%TO.P,R7,1*%
%TO.N,/SYS*%
X129489200Y-121511700D03*
%TO.P,R7,2*%
%TO.N,/SCL*%
X129489200Y-119686700D03*
%TD*%
%TO.P,R12,1*%
%TO.N,Net-(R11-Pad2)*%
X127152400Y-125423300D03*
%TO.P,R12,2*%
%TO.N,GNDA*%
X127152400Y-123598300D03*
%TD*%
D16*
%TO.P,R5,1*%
%TO.N,Net-(D1-Pad2)*%
X119686700Y-128727200D03*
%TO.P,R5,2*%
%TO.N,/VREF*%
X121511700Y-128727200D03*
%TD*%
D14*
%TO.P,R4,1*%
%TO.N,Net-(R4-Pad1)*%
X124256800Y-127255900D03*
%TO.P,R4,2*%
%TO.N,Net-(R11-Pad2)*%
X124256800Y-129080900D03*
%TD*%
D15*
%TO.P,R6,1*%
%TO.N,Net-(C11-Pad2)*%
X123240800Y-125270900D03*
%TO.P,R6,2*%
%TO.N,Net-(R4-Pad1)*%
X123240800Y-123445900D03*
%TD*%
D17*
%TO.P,C11,1*%
%TO.N,GNDA*%
X119786400Y-123256000D03*
%TO.P,C11,2*%
%TO.N,Net-(C11-Pad2)*%
X119786400Y-125156000D03*
%TD*%
D15*
%TO.P,R8,1*%
%TO.N,/SYS*%
X126847600Y-121511700D03*
%TO.P,R8,2*%
%TO.N,/SDA*%
X126847600Y-119686700D03*
%TD*%
D18*
%TO.P,SW1,1,1*%
%TO.N,GNDA*%
X125245600Y-120396000D03*
%TO.P,SW1,2,2*%
%TO.N,/VREF*%
X121845600Y-120396000D03*
%TD*%
D15*
%TO.P,R11,1*%
%TO.N,/TERM*%
X127254000Y-129131700D03*
%TO.P,R11,2*%
%TO.N,Net-(R11-Pad2)*%
X127254000Y-127306700D03*
%TD*%
D19*
%TO.P,D1,1,K*%
%TO.N,Net-(D1-Pad1)*%
X117754400Y-126976900D03*
%TO.P,D1,2,A*%
%TO.N,Net-(D1-Pad2)*%
X117754400Y-128851900D03*
%TD*%
D20*
%TO.N,/VREF*%
X122631200Y-127457200D03*
%TO.N,GNDA*%
X119938800Y-117398800D03*
%TO.N,Net-(C11-Pad2)*%
X121422629Y-125822311D03*
%TO.N,Net-(D1-Pad1)*%
X118875500Y-126187200D03*
%TO.N,Net-(R1-Pad1)*%
X120396000Y-118465600D03*
%TO.N,Net-(R4-Pad1)*%
X120670000Y-126695200D03*
%TO.N,GNDPWR*%
X116078000Y-125222000D03*
%TO.N,Net-(U1-Pad25)*%
X118110000Y-119380000D03*
X112318800Y-122580400D03*
%TO.N,Net-(U1-Pad26)*%
X117567988Y-120375052D03*
X111607600Y-123291600D03*
%TD*%
D21*
%TO.N,/VREF*%
X117551200Y-125021593D02*
X117551200Y-122631200D01*
X116385593Y-126187200D02*
X117551200Y-125021593D01*
X117551200Y-122631200D02*
X118772300Y-121410100D01*
X113409200Y-128422400D02*
X113409200Y-127433600D01*
X118772300Y-121410100D02*
X120091200Y-121410100D01*
X114655600Y-126187200D02*
X116385593Y-126187200D01*
X121511700Y-128727200D02*
X121511700Y-128576700D01*
X114914000Y-129927200D02*
X120311700Y-129927200D01*
X120831500Y-121410100D02*
X121845600Y-120396000D01*
X121511700Y-128576700D02*
X122631200Y-127457200D01*
X120091200Y-121410100D02*
X120831500Y-121410100D01*
X113409200Y-128422400D02*
X114914000Y-129927200D01*
X120311700Y-129927200D02*
X121511700Y-128727200D01*
X113409200Y-127433600D02*
X114655600Y-126187200D01*
%TO.N,GNDA*%
X124358400Y-120396000D02*
X125245600Y-120396000D01*
X121193600Y-123256000D02*
X123037600Y-121412000D01*
X121361200Y-117398800D02*
X124358400Y-120396000D01*
X125245600Y-121337600D02*
X125171200Y-121412000D01*
X125171200Y-122529600D02*
X125171200Y-122631200D01*
X125171200Y-121412000D02*
X125171200Y-122529600D01*
X126138300Y-123598300D02*
X127152400Y-123598300D01*
X119786400Y-123256000D02*
X121193600Y-123256000D01*
X119938800Y-117398800D02*
X121361200Y-117398800D01*
X125245600Y-120396000D02*
X125245600Y-121337600D01*
X123037600Y-121412000D02*
X125171200Y-121412000D01*
X125171200Y-122631200D02*
X126138300Y-123598300D01*
%TO.N,/SYS*%
X126847600Y-121511700D02*
X129489200Y-121511700D01*
X129489200Y-121511700D02*
X129489200Y-122737800D01*
X129489200Y-122737800D02*
X132638800Y-125887400D01*
%TO.N,Net-(C11-Pad2)*%
X119786400Y-125156000D02*
X120756318Y-125156000D01*
X121422629Y-125822311D02*
X122689389Y-125822311D01*
X122689389Y-125822311D02*
X123240800Y-125270900D01*
X120756318Y-125156000D02*
X121422629Y-125822311D01*
%TO.N,Net-(D1-Pad1)*%
X118875500Y-126187200D02*
X118875500Y-126488500D01*
X118875500Y-126488500D02*
X118387100Y-126976900D01*
%TO.N,Net-(D1-Pad2)*%
X117754400Y-128851900D02*
X119562000Y-128851900D01*
X119562000Y-128851900D02*
X119686700Y-128727200D01*
%TO.N,/SCL*%
X129489200Y-119686700D02*
X129389500Y-119686700D01*
X129389500Y-119686700D02*
X127203200Y-117500400D01*
D22*
%TO.N,/SDA*%
X126746000Y-119585100D02*
X126847600Y-119686700D01*
D21*
X126847600Y-119684800D02*
X124663200Y-117500400D01*
X126847600Y-119686700D02*
X126847600Y-119684800D01*
%TO.N,Net-(R1-Pad1)*%
X120091200Y-119585100D02*
X120091200Y-118770400D01*
X120091200Y-118770400D02*
X120396000Y-118465600D01*
D22*
%TO.N,Net-(R4-Pad1)*%
X120708000Y-126657200D02*
X123658100Y-126657200D01*
X120670000Y-126695200D02*
X120708000Y-126657200D01*
X123658100Y-126657200D02*
X124256800Y-127255900D01*
X124663200Y-126849500D02*
X124663200Y-124307600D01*
X124256800Y-127255900D02*
X124663200Y-126849500D01*
X124663200Y-124307600D02*
X123801500Y-123445900D01*
X123801500Y-123445900D02*
X123240800Y-123445900D01*
D21*
%TO.N,Net-(R11-Pad2)*%
X127254000Y-125524900D02*
X127152400Y-125423300D01*
X127254000Y-127306700D02*
X127254000Y-125524900D01*
X125071500Y-129080900D02*
X126845700Y-127306700D01*
X124256800Y-129080900D02*
X125071500Y-129080900D01*
X126845700Y-127306700D02*
X127254000Y-127306700D01*
D22*
%TO.N,Net-(U1-Pad25)*%
X113538000Y-122580400D02*
X112318800Y-122580400D01*
X118110000Y-119380000D02*
X116738400Y-119380000D01*
X116738400Y-119380000D02*
X113538000Y-122580400D01*
%TO.N,Net-(U1-Pad26)*%
X111696400Y-123380400D02*
X111607600Y-123291600D01*
X117368948Y-120375052D02*
X114363600Y-123380400D01*
X114363600Y-123380400D02*
X111696400Y-123380400D01*
X117567988Y-120375052D02*
X117368948Y-120375052D01*
D21*
%TO.N,/TERM*%
X127254000Y-129131700D02*
X131934500Y-129131700D01*
X131934500Y-129131700D02*
X132638800Y-128427400D01*
%TD*%
%TA.AperFunction,Conductor*%
%TO.N,GNDPWR*%
G36*
X108926182Y-115777702D02*
G01*
X108972675Y-115831358D01*
X108982779Y-115901632D01*
X108958887Y-115959265D01*
X108930385Y-115997295D01*
X108879255Y-116133684D01*
X108872500Y-116195866D01*
X108872500Y-117992134D01*
X108879255Y-118054316D01*
X108930385Y-118190705D01*
X109017739Y-118307261D01*
X109134295Y-118394615D01*
X109270684Y-118445745D01*
X109332866Y-118452500D01*
X111129134Y-118452500D01*
X111191316Y-118445745D01*
X111327705Y-118394615D01*
X111444261Y-118307261D01*
X111531615Y-118190705D01*
X111570015Y-118088273D01*
X111575798Y-118072848D01*
X111618440Y-118016084D01*
X111685001Y-117991384D01*
X111754350Y-118006592D01*
X111789017Y-118034580D01*
X111814218Y-118063673D01*
X111821580Y-118070883D01*
X111985434Y-118206916D01*
X111993881Y-118212831D01*
X112177756Y-118320279D01*
X112187042Y-118324729D01*
X112386001Y-118400703D01*
X112395899Y-118403579D01*
X112499250Y-118424606D01*
X112513299Y-118423410D01*
X112517000Y-118413065D01*
X112517000Y-118412517D01*
X113025000Y-118412517D01*
X113029064Y-118426359D01*
X113042478Y-118428393D01*
X113049184Y-118427534D01*
X113059262Y-118425392D01*
X113263255Y-118364191D01*
X113272842Y-118360433D01*
X113464095Y-118266739D01*
X113472945Y-118261464D01*
X113646328Y-118137792D01*
X113654200Y-118131139D01*
X113805052Y-117980812D01*
X113811730Y-117972965D01*
X113936003Y-117800020D01*
X113941313Y-117791183D01*
X114035670Y-117600267D01*
X114039469Y-117590672D01*
X114101377Y-117386910D01*
X114103555Y-117376837D01*
X114104986Y-117365962D01*
X114102775Y-117351778D01*
X114089617Y-117348000D01*
X113043115Y-117348000D01*
X113027876Y-117352475D01*
X113026671Y-117353865D01*
X113025000Y-117361548D01*
X113025000Y-118412517D01*
X112517000Y-118412517D01*
X112517000Y-116966000D01*
X112537002Y-116897879D01*
X112590658Y-116851386D01*
X112643000Y-116840000D01*
X114089344Y-116840000D01*
X114102875Y-116836027D01*
X114104180Y-116826947D01*
X114062214Y-116659875D01*
X114058894Y-116650124D01*
X113973972Y-116454814D01*
X113969105Y-116445739D01*
X113853426Y-116266926D01*
X113847136Y-116258757D01*
X113703806Y-116101240D01*
X113696273Y-116094215D01*
X113554920Y-115982582D01*
X113513857Y-115924665D01*
X113510625Y-115853742D01*
X113546250Y-115792330D01*
X113609421Y-115759928D01*
X113633012Y-115757700D01*
X134123000Y-115757700D01*
X134191121Y-115777702D01*
X134237614Y-115831358D01*
X134249000Y-115883700D01*
X134249000Y-117363727D01*
X134228998Y-117431848D01*
X134175342Y-117478341D01*
X134105068Y-117488445D01*
X134040488Y-117458951D01*
X134002104Y-117399225D01*
X133997300Y-117371217D01*
X133997300Y-117369266D01*
X133990545Y-117307084D01*
X133939415Y-117170695D01*
X133852061Y-117054139D01*
X133735505Y-116966785D01*
X133599116Y-116915655D01*
X133536934Y-116908900D01*
X131740666Y-116908900D01*
X131678484Y-116915655D01*
X131542095Y-116966785D01*
X131425539Y-117054139D01*
X131338185Y-117170695D01*
X131287055Y-117307084D01*
X131280300Y-117369266D01*
X131280300Y-119165534D01*
X131287055Y-119227716D01*
X131338185Y-119364105D01*
X131425539Y-119480661D01*
X131542095Y-119568015D01*
X131550504Y-119571167D01*
X131550505Y-119571168D01*
X131659760Y-119612126D01*
X131716525Y-119654767D01*
X131741225Y-119721329D01*
X131726018Y-119790678D01*
X131706625Y-119817159D01*
X131583390Y-119946117D01*
X131576904Y-119954127D01*
X131456898Y-120130049D01*
X131451800Y-120139023D01*
X131362138Y-120332183D01*
X131358575Y-120341870D01*
X131303189Y-120541583D01*
X131304712Y-120550007D01*
X131317092Y-120553400D01*
X133957144Y-120553400D01*
X133970675Y-120549427D01*
X133971980Y-120540347D01*
X133930014Y-120373275D01*
X133926694Y-120363524D01*
X133841772Y-120168214D01*
X133836905Y-120159139D01*
X133721226Y-119980326D01*
X133714936Y-119972157D01*
X133571093Y-119814077D01*
X133540041Y-119750231D01*
X133548435Y-119679733D01*
X133593612Y-119624964D01*
X133620056Y-119611295D01*
X133727097Y-119571167D01*
X133735505Y-119568015D01*
X133852061Y-119480661D01*
X133939415Y-119364105D01*
X133990545Y-119227716D01*
X133997300Y-119165534D01*
X133997300Y-119163931D01*
X134020841Y-119097320D01*
X134076932Y-119053796D01*
X134147650Y-119047508D01*
X134210541Y-119080450D01*
X134245639Y-119142165D01*
X134249000Y-119171073D01*
X134249000Y-125821951D01*
X134228998Y-125890072D01*
X134214802Y-125902373D01*
X134217236Y-125903896D01*
X134247495Y-125968121D01*
X134249000Y-125987535D01*
X134249000Y-128361951D01*
X134228998Y-128430072D01*
X134214802Y-128442373D01*
X134217236Y-128443896D01*
X134247495Y-128508121D01*
X134249000Y-128527535D01*
X134249000Y-130632700D01*
X134228998Y-130700821D01*
X134175342Y-130747314D01*
X134123000Y-130758700D01*
X120927543Y-130758700D01*
X120859422Y-130738698D01*
X120812929Y-130685042D01*
X120802825Y-130614768D01*
X120832319Y-130550188D01*
X120838762Y-130543291D01*
X120845881Y-130536222D01*
X120846503Y-130535640D01*
X120847170Y-130535122D01*
X120873160Y-130509132D01*
X120945782Y-130437015D01*
X120946440Y-130435978D01*
X120947543Y-130434749D01*
X121409687Y-129972605D01*
X121471999Y-129938579D01*
X121498782Y-129935700D01*
X121824600Y-129935700D01*
X121827846Y-129935363D01*
X121827850Y-129935363D01*
X121923508Y-129925438D01*
X121923512Y-129925437D01*
X121930366Y-129924726D01*
X121936902Y-129922545D01*
X121936904Y-129922545D01*
X122091198Y-129871068D01*
X122098146Y-129868750D01*
X122248548Y-129775678D01*
X122373505Y-129650503D01*
X122377346Y-129644272D01*
X122462475Y-129506168D01*
X122462476Y-129506166D01*
X122466315Y-129499938D01*
X122501519Y-129393800D01*
X122519832Y-129338589D01*
X122519832Y-129338587D01*
X122521997Y-129332061D01*
X122523793Y-129314537D01*
X122532372Y-129230798D01*
X122532700Y-129227600D01*
X122532700Y-128751282D01*
X122552702Y-128683161D01*
X122569605Y-128662187D01*
X122883112Y-128348680D01*
X122920959Y-128322668D01*
X122962507Y-128304170D01*
X123032874Y-128294736D01*
X123097171Y-128324843D01*
X123134984Y-128384932D01*
X123134307Y-128455925D01*
X123121014Y-128485394D01*
X123114685Y-128495662D01*
X123059003Y-128663539D01*
X123058303Y-128670375D01*
X123058302Y-128670378D01*
X123056467Y-128688293D01*
X123048300Y-128768000D01*
X123048300Y-129393800D01*
X123048637Y-129397046D01*
X123048637Y-129397050D01*
X123051715Y-129426709D01*
X123059274Y-129499566D01*
X123061455Y-129506102D01*
X123061455Y-129506104D01*
X123091211Y-129595292D01*
X123115250Y-129667346D01*
X123208322Y-129817748D01*
X123333497Y-129942705D01*
X123339727Y-129946545D01*
X123339728Y-129946546D01*
X123476890Y-130031094D01*
X123484062Y-130035515D01*
X123563805Y-130061964D01*
X123645411Y-130089032D01*
X123645413Y-130089032D01*
X123651939Y-130091197D01*
X123658775Y-130091897D01*
X123658778Y-130091898D01*
X123701831Y-130096309D01*
X123756400Y-130101900D01*
X124757200Y-130101900D01*
X124760446Y-130101563D01*
X124760450Y-130101563D01*
X124856108Y-130091638D01*
X124856112Y-130091637D01*
X124862966Y-130090926D01*
X124869502Y-130088745D01*
X124869504Y-130088745D01*
X125001606Y-130044672D01*
X125030746Y-130034950D01*
X125181148Y-129941878D01*
X125226507Y-129896440D01*
X125274238Y-129866468D01*
X125283426Y-129863268D01*
X125298242Y-129859104D01*
X125324119Y-129853509D01*
X125331010Y-129852019D01*
X125370313Y-129833692D01*
X125382089Y-129828910D01*
X125423052Y-129814645D01*
X125429027Y-129810911D01*
X125429030Y-129810910D01*
X125451495Y-129796873D01*
X125465012Y-129789534D01*
X125489014Y-129778341D01*
X125489015Y-129778340D01*
X125495402Y-129775362D01*
X125513370Y-129761425D01*
X125529653Y-129748794D01*
X125540112Y-129741498D01*
X125570904Y-129722258D01*
X125570907Y-129722256D01*
X125576876Y-129718526D01*
X125581872Y-129713565D01*
X125605679Y-129689924D01*
X125606304Y-129689339D01*
X125606970Y-129688822D01*
X125632958Y-129662834D01*
X125705582Y-129590715D01*
X125706240Y-129589678D01*
X125707343Y-129588449D01*
X125840122Y-129455670D01*
X125902434Y-129421644D01*
X125973249Y-129426709D01*
X126030085Y-129469256D01*
X126054544Y-129531764D01*
X126056474Y-129550366D01*
X126058655Y-129556902D01*
X126058655Y-129556904D01*
X126072465Y-129598296D01*
X126112450Y-129718146D01*
X126205522Y-129868548D01*
X126330697Y-129993505D01*
X126336927Y-129997345D01*
X126336928Y-129997346D01*
X126474090Y-130081894D01*
X126481262Y-130086315D01*
X126527234Y-130101563D01*
X126642611Y-130139832D01*
X126642613Y-130139832D01*
X126649139Y-130141997D01*
X126655975Y-130142697D01*
X126655978Y-130142698D01*
X126699031Y-130147109D01*
X126753600Y-130152700D01*
X127754400Y-130152700D01*
X127757646Y-130152363D01*
X127757650Y-130152363D01*
X127853308Y-130142438D01*
X127853312Y-130142437D01*
X127860166Y-130141726D01*
X127866702Y-130139545D01*
X127866704Y-130139545D01*
X128018969Y-130088745D01*
X128027946Y-130085750D01*
X128178348Y-129992678D01*
X128193817Y-129977182D01*
X128256099Y-129943103D01*
X128282990Y-129940200D01*
X131925286Y-129940200D01*
X131926606Y-129940207D01*
X132016721Y-129941151D01*
X132059097Y-129931989D01*
X132071663Y-129929931D01*
X132114755Y-129925097D01*
X132121406Y-129922781D01*
X132121410Y-129922780D01*
X132146430Y-129914067D01*
X132161242Y-129909904D01*
X132187119Y-129904309D01*
X132194010Y-129902819D01*
X132233313Y-129884492D01*
X132245089Y-129879710D01*
X132286052Y-129865445D01*
X132292027Y-129861711D01*
X132292030Y-129861710D01*
X132314495Y-129847673D01*
X132328012Y-129840334D01*
X132352014Y-129829141D01*
X132352015Y-129829140D01*
X132358402Y-129826162D01*
X132384402Y-129805994D01*
X132450487Y-129780047D01*
X132474658Y-129780410D01*
X132477397Y-129780967D01*
X132482566Y-129781157D01*
X132482570Y-129781157D01*
X132695473Y-129788964D01*
X132695477Y-129788964D01*
X132700637Y-129789153D01*
X132705757Y-129788497D01*
X132705759Y-129788497D01*
X132917088Y-129761425D01*
X132917089Y-129761425D01*
X132922216Y-129760768D01*
X132927166Y-129759283D01*
X133131229Y-129698061D01*
X133131234Y-129698059D01*
X133136184Y-129696574D01*
X133336794Y-129598296D01*
X133518660Y-129468573D01*
X133676896Y-129310889D01*
X133807253Y-129129477D01*
X133812580Y-129118700D01*
X133903936Y-128933853D01*
X133903937Y-128933851D01*
X133906230Y-128929211D01*
X133951585Y-128779930D01*
X133969665Y-128720423D01*
X133969665Y-128720421D01*
X133971170Y-128715469D01*
X133998078Y-128511088D01*
X134026801Y-128446161D01*
X134031442Y-128443100D01*
X134002104Y-128397449D01*
X133997424Y-128372275D01*
X133991745Y-128303198D01*
X133983652Y-128204761D01*
X133929231Y-127988102D01*
X133840154Y-127783240D01*
X133762453Y-127663133D01*
X133721622Y-127600017D01*
X133721620Y-127600014D01*
X133718814Y-127595677D01*
X133568470Y-127430451D01*
X133564419Y-127427252D01*
X133564415Y-127427248D01*
X133397214Y-127295200D01*
X133397210Y-127295198D01*
X133393159Y-127291998D01*
X133351853Y-127269196D01*
X133301884Y-127218764D01*
X133287112Y-127149321D01*
X133312228Y-127082916D01*
X133339580Y-127056309D01*
X133407788Y-127007657D01*
X133518660Y-126928573D01*
X133532840Y-126914443D01*
X133673235Y-126774537D01*
X133676896Y-126770889D01*
X133695164Y-126745467D01*
X133804235Y-126593677D01*
X133807253Y-126589477D01*
X133848870Y-126505272D01*
X133903936Y-126393853D01*
X133903937Y-126393851D01*
X133906230Y-126389211D01*
X133971170Y-126175469D01*
X133998078Y-125971088D01*
X134026801Y-125906161D01*
X134031442Y-125903100D01*
X134002104Y-125857449D01*
X133997424Y-125832275D01*
X133992931Y-125777631D01*
X133983652Y-125664761D01*
X133929231Y-125448102D01*
X133840154Y-125243240D01*
X133752147Y-125107202D01*
X133721622Y-125060017D01*
X133721620Y-125060014D01*
X133718814Y-125055677D01*
X133568470Y-124890451D01*
X133564419Y-124887252D01*
X133564415Y-124887248D01*
X133397214Y-124755200D01*
X133397210Y-124755198D01*
X133393159Y-124751998D01*
X133351369Y-124728929D01*
X133301398Y-124678497D01*
X133286626Y-124609054D01*
X133311742Y-124542648D01*
X133339094Y-124516041D01*
X133514128Y-124391192D01*
X133522000Y-124384539D01*
X133672852Y-124234212D01*
X133679530Y-124226365D01*
X133803803Y-124053420D01*
X133809113Y-124044583D01*
X133903470Y-123853667D01*
X133907269Y-123844072D01*
X133969177Y-123640310D01*
X133971355Y-123630237D01*
X133972786Y-123619362D01*
X133970575Y-123605178D01*
X133957417Y-123601400D01*
X132510800Y-123601400D01*
X132442679Y-123581398D01*
X132396186Y-123527742D01*
X132384800Y-123475400D01*
X132384800Y-123075285D01*
X132892800Y-123075285D01*
X132897275Y-123090524D01*
X132898665Y-123091729D01*
X132906348Y-123093400D01*
X133957144Y-123093400D01*
X133970675Y-123089427D01*
X133971980Y-123080347D01*
X133930014Y-122913275D01*
X133926694Y-122903524D01*
X133841772Y-122708214D01*
X133836905Y-122699139D01*
X133721226Y-122520326D01*
X133714936Y-122512157D01*
X133571606Y-122354640D01*
X133564073Y-122347615D01*
X133396939Y-122215622D01*
X133388352Y-122209917D01*
X133350916Y-122189251D01*
X133300946Y-122138819D01*
X133286174Y-122069376D01*
X133311290Y-122002971D01*
X133338642Y-121976364D01*
X133514127Y-121851192D01*
X133522000Y-121844539D01*
X133672852Y-121694212D01*
X133679530Y-121686365D01*
X133803803Y-121513420D01*
X133809113Y-121504583D01*
X133903470Y-121313667D01*
X133907269Y-121304072D01*
X133969177Y-121100310D01*
X133971355Y-121090237D01*
X133972786Y-121079362D01*
X133970575Y-121065178D01*
X133957417Y-121061400D01*
X132910915Y-121061400D01*
X132895676Y-121065875D01*
X132894471Y-121067265D01*
X132892800Y-121074948D01*
X132892800Y-123075285D01*
X132384800Y-123075285D01*
X132384800Y-121079515D01*
X132380325Y-121064276D01*
X132378935Y-121063071D01*
X132371252Y-121061400D01*
X131322025Y-121061400D01*
X131308494Y-121065373D01*
X131307057Y-121075366D01*
X131337365Y-121209846D01*
X131340445Y-121219675D01*
X131420570Y-121417003D01*
X131425213Y-121426194D01*
X131536494Y-121607788D01*
X131542577Y-121616099D01*
X131682013Y-121777067D01*
X131689380Y-121784283D01*
X131853234Y-121920316D01*
X131861681Y-121926231D01*
X131931279Y-121966901D01*
X131980003Y-122018540D01*
X131993074Y-122088323D01*
X131966343Y-122154094D01*
X131925887Y-122187453D01*
X131917262Y-122191942D01*
X131908538Y-122197436D01*
X131738233Y-122325305D01*
X131730526Y-122332148D01*
X131583390Y-122486117D01*
X131576904Y-122494127D01*
X131456898Y-122670049D01*
X131451800Y-122679023D01*
X131362138Y-122872183D01*
X131358575Y-122881870D01*
X131301664Y-123087081D01*
X131299733Y-123097202D01*
X131298029Y-123113147D01*
X131270902Y-123178757D01*
X131212611Y-123219286D01*
X131141661Y-123221866D01*
X131083647Y-123188855D01*
X130429591Y-122534799D01*
X130395565Y-122472487D01*
X130400630Y-122401672D01*
X130429513Y-122356687D01*
X130533330Y-122252688D01*
X130533334Y-122252683D01*
X130538505Y-122247503D01*
X130542346Y-122241272D01*
X130627475Y-122103168D01*
X130627476Y-122103166D01*
X130631315Y-122096938D01*
X130686997Y-121929061D01*
X130689818Y-121901534D01*
X130697372Y-121827798D01*
X130697700Y-121824600D01*
X130697700Y-121198800D01*
X130693804Y-121161251D01*
X130687438Y-121099892D01*
X130687437Y-121099888D01*
X130686726Y-121093034D01*
X130680832Y-121075366D01*
X130633068Y-120932202D01*
X130630750Y-120925254D01*
X130537678Y-120774852D01*
X130451091Y-120688416D01*
X130417012Y-120626134D01*
X130422015Y-120555314D01*
X130450936Y-120510225D01*
X130533334Y-120427683D01*
X130538505Y-120422503D01*
X130542346Y-120416272D01*
X130627475Y-120278168D01*
X130627476Y-120278166D01*
X130631315Y-120271938D01*
X130668729Y-120159139D01*
X130684832Y-120110589D01*
X130684832Y-120110587D01*
X130686997Y-120104061D01*
X130689641Y-120078261D01*
X130697372Y-120002798D01*
X130697700Y-119999600D01*
X130697700Y-119373800D01*
X130686726Y-119268034D01*
X130675744Y-119235115D01*
X130633068Y-119107202D01*
X130630750Y-119100254D01*
X130537678Y-118949852D01*
X130412503Y-118824895D01*
X130402719Y-118818864D01*
X130268168Y-118735925D01*
X130268166Y-118735924D01*
X130261938Y-118732085D01*
X130145698Y-118693530D01*
X130100589Y-118678568D01*
X130100587Y-118678568D01*
X130094061Y-118676403D01*
X130087225Y-118675703D01*
X130087222Y-118675702D01*
X130043358Y-118671208D01*
X129989600Y-118665700D01*
X129564082Y-118665700D01*
X129495961Y-118645698D01*
X129474987Y-118628795D01*
X128598605Y-117752413D01*
X128564579Y-117690101D01*
X128561700Y-117663318D01*
X128561700Y-116602266D01*
X128554945Y-116540084D01*
X128503815Y-116403695D01*
X128416461Y-116287139D01*
X128299905Y-116199785D01*
X128163516Y-116148655D01*
X128101334Y-116141900D01*
X126305066Y-116141900D01*
X126242884Y-116148655D01*
X126106495Y-116199785D01*
X125989939Y-116287139D01*
X125902585Y-116403695D01*
X125899433Y-116412103D01*
X125858119Y-116522307D01*
X125815477Y-116579071D01*
X125748916Y-116603771D01*
X125679567Y-116588563D01*
X125646943Y-116562876D01*
X125596351Y-116507275D01*
X125596342Y-116507266D01*
X125592870Y-116503451D01*
X125588819Y-116500252D01*
X125588815Y-116500248D01*
X125421614Y-116368200D01*
X125421610Y-116368198D01*
X125417559Y-116364998D01*
X125221989Y-116257038D01*
X125217120Y-116255314D01*
X125217116Y-116255312D01*
X125016287Y-116184195D01*
X125016283Y-116184194D01*
X125011412Y-116182469D01*
X125006319Y-116181562D01*
X125006316Y-116181561D01*
X124796573Y-116144200D01*
X124796567Y-116144199D01*
X124791484Y-116143294D01*
X124717652Y-116142392D01*
X124573281Y-116140628D01*
X124573279Y-116140628D01*
X124568111Y-116140565D01*
X124347291Y-116174355D01*
X124134956Y-116243757D01*
X123936807Y-116346907D01*
X123932674Y-116350010D01*
X123932671Y-116350012D01*
X123793088Y-116454814D01*
X123758165Y-116481035D01*
X123718725Y-116522307D01*
X123616007Y-116629795D01*
X123603829Y-116642538D01*
X123600915Y-116646810D01*
X123600914Y-116646811D01*
X123553682Y-116716051D01*
X123477943Y-116827080D01*
X123383888Y-117029705D01*
X123324189Y-117244970D01*
X123300451Y-117467095D01*
X123313310Y-117690115D01*
X123314447Y-117695161D01*
X123314448Y-117695167D01*
X123329977Y-117764071D01*
X123362422Y-117908039D01*
X123364366Y-117912826D01*
X123366697Y-117918567D01*
X123373794Y-117989208D01*
X123341574Y-118052472D01*
X123280265Y-118088273D01*
X123209333Y-118085245D01*
X123160860Y-118055068D01*
X121939434Y-116833642D01*
X121938506Y-116832705D01*
X121880357Y-116773325D01*
X121880356Y-116773324D01*
X121875429Y-116768293D01*
X121838979Y-116744802D01*
X121828654Y-116737383D01*
X121794757Y-116710324D01*
X121764562Y-116695727D01*
X121751145Y-116688198D01*
X121722962Y-116670035D01*
X121716345Y-116667627D01*
X121716340Y-116667624D01*
X121682227Y-116655208D01*
X121670484Y-116650247D01*
X121637797Y-116634446D01*
X121637792Y-116634444D01*
X121631451Y-116631379D01*
X121624593Y-116629796D01*
X121624591Y-116629795D01*
X121598774Y-116623835D01*
X121584031Y-116619468D01*
X121552515Y-116607997D01*
X121545525Y-116607114D01*
X121545517Y-116607112D01*
X121509499Y-116602562D01*
X121496947Y-116600326D01*
X121461586Y-116592162D01*
X121461583Y-116592162D01*
X121454715Y-116590576D01*
X121447669Y-116590551D01*
X121447666Y-116590551D01*
X121414144Y-116590434D01*
X121413262Y-116590405D01*
X121412431Y-116590300D01*
X121375781Y-116590300D01*
X121375341Y-116590299D01*
X121276857Y-116589955D01*
X121276852Y-116589955D01*
X121273330Y-116589943D01*
X121272130Y-116590211D01*
X121270493Y-116590300D01*
X120383294Y-116590300D01*
X120332045Y-116579407D01*
X120227119Y-116532691D01*
X120227118Y-116532691D01*
X120221088Y-116530006D01*
X120114148Y-116507275D01*
X120040744Y-116491672D01*
X120040739Y-116491672D01*
X120034287Y-116490300D01*
X119843313Y-116490300D01*
X119836861Y-116491672D01*
X119836856Y-116491672D01*
X119763452Y-116507275D01*
X119656512Y-116530006D01*
X119650482Y-116532691D01*
X119650481Y-116532691D01*
X119488078Y-116604997D01*
X119488076Y-116604998D01*
X119482048Y-116607682D01*
X119476707Y-116611562D01*
X119476706Y-116611563D01*
X119434073Y-116642538D01*
X119327547Y-116719934D01*
X119323126Y-116724844D01*
X119323125Y-116724845D01*
X119223017Y-116836027D01*
X119199760Y-116861856D01*
X119104273Y-117027244D01*
X119045258Y-117208872D01*
X119044568Y-117215433D01*
X119044568Y-117215435D01*
X119041464Y-117244970D01*
X119025296Y-117398800D01*
X119025986Y-117405365D01*
X119031935Y-117461962D01*
X119045258Y-117588728D01*
X119104273Y-117770356D01*
X119107576Y-117776078D01*
X119107577Y-117776079D01*
X119141486Y-117834810D01*
X119199760Y-117935744D01*
X119204178Y-117940651D01*
X119204179Y-117940652D01*
X119323125Y-118072755D01*
X119327547Y-118077666D01*
X119332889Y-118081547D01*
X119332891Y-118081549D01*
X119342146Y-118088273D01*
X119399408Y-118129876D01*
X119442761Y-118186097D01*
X119448836Y-118256833D01*
X119423819Y-118310417D01*
X119402724Y-118336843D01*
X119399659Y-118343184D01*
X119399658Y-118343185D01*
X119388128Y-118367037D01*
X119380599Y-118380454D01*
X119362435Y-118408638D01*
X119360027Y-118415255D01*
X119360024Y-118415260D01*
X119347608Y-118449373D01*
X119342647Y-118461116D01*
X119326846Y-118493803D01*
X119326844Y-118493808D01*
X119323779Y-118500149D01*
X119322196Y-118507007D01*
X119322195Y-118507009D01*
X119316235Y-118532826D01*
X119311868Y-118547569D01*
X119300397Y-118579085D01*
X119299514Y-118586076D01*
X119299387Y-118587080D01*
X119299126Y-118587678D01*
X119297857Y-118592924D01*
X119296936Y-118592701D01*
X119271006Y-118652157D01*
X119240684Y-118678433D01*
X119166852Y-118724122D01*
X119046854Y-118844329D01*
X119046853Y-118844330D01*
X119041895Y-118849297D01*
X119041045Y-118848449D01*
X118989040Y-118885323D01*
X118918117Y-118888558D01*
X118856704Y-118852936D01*
X118850300Y-118845238D01*
X118849040Y-118843056D01*
X118829230Y-118821054D01*
X118725675Y-118706045D01*
X118725674Y-118706044D01*
X118721253Y-118701134D01*
X118605497Y-118617032D01*
X118572094Y-118592763D01*
X118572093Y-118592762D01*
X118566752Y-118588882D01*
X118560724Y-118586198D01*
X118560722Y-118586197D01*
X118398319Y-118513891D01*
X118398318Y-118513891D01*
X118392288Y-118511206D01*
X118298887Y-118491353D01*
X118211944Y-118472872D01*
X118211939Y-118472872D01*
X118205487Y-118471500D01*
X118014513Y-118471500D01*
X118008061Y-118472872D01*
X118008056Y-118472872D01*
X117921113Y-118491353D01*
X117827712Y-118511206D01*
X117821682Y-118513891D01*
X117821681Y-118513891D01*
X117659278Y-118586197D01*
X117659276Y-118586198D01*
X117653248Y-118588882D01*
X117647907Y-118592762D01*
X117647906Y-118592763D01*
X117572656Y-118647436D01*
X117505789Y-118671294D01*
X117498595Y-118671500D01*
X116767312Y-118671500D01*
X116758742Y-118671208D01*
X116708624Y-118667791D01*
X116708620Y-118667791D01*
X116701048Y-118667275D01*
X116693571Y-118668580D01*
X116693570Y-118668580D01*
X116667092Y-118673201D01*
X116638097Y-118678262D01*
X116631579Y-118679223D01*
X116568158Y-118686898D01*
X116561057Y-118689581D01*
X116558448Y-118690222D01*
X116542138Y-118694685D01*
X116539602Y-118695450D01*
X116532116Y-118696757D01*
X116525159Y-118699811D01*
X116473605Y-118722442D01*
X116467501Y-118724933D01*
X116407744Y-118747513D01*
X116401481Y-118751817D01*
X116399115Y-118753054D01*
X116384303Y-118761299D01*
X116382049Y-118762632D01*
X116375095Y-118765685D01*
X116324398Y-118804587D01*
X116319068Y-118808459D01*
X116272680Y-118840339D01*
X116272675Y-118840344D01*
X116266419Y-118844643D01*
X116261368Y-118850313D01*
X116261366Y-118850314D01*
X116224965Y-118891170D01*
X116219984Y-118896446D01*
X113281435Y-121834995D01*
X113219123Y-121869021D01*
X113192340Y-121871900D01*
X112930205Y-121871900D01*
X112862084Y-121851898D01*
X112856144Y-121847836D01*
X112780894Y-121793163D01*
X112780893Y-121793162D01*
X112775552Y-121789282D01*
X112769524Y-121786598D01*
X112769522Y-121786597D01*
X112607119Y-121714291D01*
X112607118Y-121714291D01*
X112601088Y-121711606D01*
X112507688Y-121691753D01*
X112420744Y-121673272D01*
X112420739Y-121673272D01*
X112414287Y-121671900D01*
X112223313Y-121671900D01*
X112216861Y-121673272D01*
X112216856Y-121673272D01*
X112129912Y-121691753D01*
X112036512Y-121711606D01*
X112030482Y-121714291D01*
X112030481Y-121714291D01*
X111868078Y-121786597D01*
X111868076Y-121786598D01*
X111862048Y-121789282D01*
X111707547Y-121901534D01*
X111703126Y-121906444D01*
X111703125Y-121906445D01*
X111682762Y-121929061D01*
X111579760Y-122043456D01*
X111524893Y-122138489D01*
X111512357Y-122160202D01*
X111484273Y-122208844D01*
X111446433Y-122325305D01*
X111443868Y-122333198D01*
X111403795Y-122391804D01*
X111350232Y-122417509D01*
X111331769Y-122421433D01*
X111331764Y-122421434D01*
X111325312Y-122422806D01*
X111319282Y-122425491D01*
X111319281Y-122425491D01*
X111156878Y-122497797D01*
X111156876Y-122497798D01*
X111150848Y-122500482D01*
X111145507Y-122504362D01*
X111145506Y-122504363D01*
X111123535Y-122520326D01*
X110996347Y-122612734D01*
X110991926Y-122617644D01*
X110991925Y-122617645D01*
X110888371Y-122732654D01*
X110868560Y-122754656D01*
X110826845Y-122826908D01*
X110806363Y-122862385D01*
X110773073Y-122920044D01*
X110714058Y-123101672D01*
X110713368Y-123108233D01*
X110713368Y-123108235D01*
X110698660Y-123248172D01*
X110694096Y-123291600D01*
X110714058Y-123481528D01*
X110773073Y-123663156D01*
X110868560Y-123828544D01*
X110872978Y-123833451D01*
X110872979Y-123833452D01*
X110988255Y-123961479D01*
X110996347Y-123970466D01*
X111085810Y-124035465D01*
X111139419Y-124074414D01*
X111150848Y-124082718D01*
X111156876Y-124085402D01*
X111156878Y-124085403D01*
X111273572Y-124137358D01*
X111325312Y-124160394D01*
X111418712Y-124180247D01*
X111505656Y-124198728D01*
X111505661Y-124198728D01*
X111512113Y-124200100D01*
X111703087Y-124200100D01*
X111709539Y-124198728D01*
X111709544Y-124198728D01*
X111796488Y-124180247D01*
X111889888Y-124160394D01*
X111950514Y-124133402D01*
X112026001Y-124099793D01*
X112077250Y-124088900D01*
X114334688Y-124088900D01*
X114343258Y-124089192D01*
X114393376Y-124092609D01*
X114393380Y-124092609D01*
X114400952Y-124093125D01*
X114408429Y-124091820D01*
X114408430Y-124091820D01*
X114434908Y-124087199D01*
X114463903Y-124082138D01*
X114470421Y-124081177D01*
X114533842Y-124073502D01*
X114540943Y-124070819D01*
X114543552Y-124070178D01*
X114559862Y-124065715D01*
X114562398Y-124064950D01*
X114569884Y-124063643D01*
X114628400Y-124037956D01*
X114634504Y-124035465D01*
X114637842Y-124034204D01*
X114694256Y-124012887D01*
X114700519Y-124008583D01*
X114702885Y-124007346D01*
X114717697Y-123999101D01*
X114719951Y-123997768D01*
X114726905Y-123994715D01*
X114777602Y-123955813D01*
X114782932Y-123951941D01*
X114829320Y-123920061D01*
X114829325Y-123920056D01*
X114835581Y-123915757D01*
X114842508Y-123907983D01*
X114877035Y-123869230D01*
X114882016Y-123863954D01*
X116621067Y-122124903D01*
X116683379Y-122090877D01*
X116754194Y-122095942D01*
X116811030Y-122138489D01*
X116835841Y-122205009D01*
X116823445Y-122267871D01*
X116822435Y-122269438D01*
X116820028Y-122276051D01*
X116820025Y-122276057D01*
X116807608Y-122310173D01*
X116802647Y-122321916D01*
X116786846Y-122354603D01*
X116786844Y-122354608D01*
X116783779Y-122360949D01*
X116782196Y-122367807D01*
X116782195Y-122367809D01*
X116776235Y-122393626D01*
X116771868Y-122408369D01*
X116760397Y-122439885D01*
X116759514Y-122446875D01*
X116759512Y-122446883D01*
X116754962Y-122482901D01*
X116752726Y-122495453D01*
X116746661Y-122521726D01*
X116742976Y-122537685D01*
X116742951Y-122544731D01*
X116742951Y-122544734D01*
X116742834Y-122578256D01*
X116742805Y-122579138D01*
X116742700Y-122579969D01*
X116742700Y-122616619D01*
X116742699Y-122617059D01*
X116742363Y-122713421D01*
X116742343Y-122719070D01*
X116742611Y-122720270D01*
X116742700Y-122721907D01*
X116742700Y-124634511D01*
X116722698Y-124702632D01*
X116705795Y-124723607D01*
X116087605Y-125341796D01*
X116025293Y-125375821D01*
X115998510Y-125378700D01*
X114664814Y-125378700D01*
X114663494Y-125378693D01*
X114662419Y-125378682D01*
X114573379Y-125377749D01*
X114531003Y-125386911D01*
X114518437Y-125388969D01*
X114475345Y-125393803D01*
X114468694Y-125396119D01*
X114468690Y-125396120D01*
X114443670Y-125404833D01*
X114428857Y-125408996D01*
X114396090Y-125416081D01*
X114356787Y-125434408D01*
X114345011Y-125439190D01*
X114304048Y-125453455D01*
X114298073Y-125457189D01*
X114298070Y-125457190D01*
X114275605Y-125471227D01*
X114262088Y-125478566D01*
X114240848Y-125488471D01*
X114231698Y-125492738D01*
X114226133Y-125497055D01*
X114226131Y-125497056D01*
X114197447Y-125519306D01*
X114186988Y-125526602D01*
X114156196Y-125545842D01*
X114156193Y-125545844D01*
X114150224Y-125549574D01*
X114145229Y-125554534D01*
X114145228Y-125554535D01*
X114121421Y-125578176D01*
X114120796Y-125578761D01*
X114120130Y-125579278D01*
X114094140Y-125605268D01*
X114021518Y-125677385D01*
X114020860Y-125678422D01*
X114019757Y-125679651D01*
X112844042Y-126855366D01*
X112843105Y-126856294D01*
X112800970Y-126897556D01*
X112778693Y-126919371D01*
X112755202Y-126955821D01*
X112747783Y-126966146D01*
X112720724Y-127000043D01*
X112717659Y-127006384D01*
X112717658Y-127006385D01*
X112706128Y-127030237D01*
X112698599Y-127043654D01*
X112680435Y-127071838D01*
X112678027Y-127078455D01*
X112678024Y-127078460D01*
X112665608Y-127112573D01*
X112660647Y-127124316D01*
X112644846Y-127157003D01*
X112644844Y-127157008D01*
X112641779Y-127163349D01*
X112640196Y-127170207D01*
X112640195Y-127170209D01*
X112634235Y-127196026D01*
X112629868Y-127210769D01*
X112618397Y-127242285D01*
X112617514Y-127249275D01*
X112617512Y-127249283D01*
X112612962Y-127285301D01*
X112610726Y-127297853D01*
X112603520Y-127329068D01*
X112600976Y-127340085D01*
X112600951Y-127347131D01*
X112600951Y-127347134D01*
X112600834Y-127380656D01*
X112600805Y-127381538D01*
X112600700Y-127382369D01*
X112600700Y-127419019D01*
X112600699Y-127419459D01*
X112600466Y-127486318D01*
X112600343Y-127521470D01*
X112600611Y-127522670D01*
X112600700Y-127524307D01*
X112600700Y-128413186D01*
X112600693Y-128414506D01*
X112599749Y-128504621D01*
X112608911Y-128546997D01*
X112610969Y-128559563D01*
X112615803Y-128602655D01*
X112618119Y-128609306D01*
X112618120Y-128609310D01*
X112626833Y-128634330D01*
X112630996Y-128649142D01*
X112638081Y-128681910D01*
X112656408Y-128721213D01*
X112661190Y-128732989D01*
X112675455Y-128773952D01*
X112679189Y-128779927D01*
X112679190Y-128779930D01*
X112693227Y-128802395D01*
X112700566Y-128815912D01*
X112711759Y-128839914D01*
X112714738Y-128846302D01*
X112719055Y-128851867D01*
X112719056Y-128851869D01*
X112741306Y-128880553D01*
X112748602Y-128891012D01*
X112771574Y-128927776D01*
X112776534Y-128932771D01*
X112776535Y-128932772D01*
X112800176Y-128956579D01*
X112800761Y-128957204D01*
X112801278Y-128957870D01*
X112827266Y-128983858D01*
X112899385Y-129056482D01*
X112900422Y-129057140D01*
X112901651Y-129058243D01*
X114335672Y-130492263D01*
X114336600Y-130493200D01*
X114386878Y-130544542D01*
X114420249Y-130607207D01*
X114414443Y-130677966D01*
X114371304Y-130734353D01*
X114304527Y-130758466D01*
X114296855Y-130758700D01*
X105231700Y-130758700D01*
X105163579Y-130738698D01*
X105117086Y-130685042D01*
X105105700Y-130632700D01*
X105105700Y-126496875D01*
X106011291Y-126496875D01*
X106066430Y-126646736D01*
X106071992Y-126658142D01*
X106167291Y-126811844D01*
X106175040Y-126821905D01*
X106299290Y-126953296D01*
X106308910Y-126961599D01*
X106457043Y-127065323D01*
X106468131Y-127071520D01*
X106634095Y-127143340D01*
X106646207Y-127147182D01*
X106824734Y-127184477D01*
X106834266Y-127185715D01*
X106837489Y-127185800D01*
X106987485Y-127185800D01*
X107002724Y-127181325D01*
X107003929Y-127179935D01*
X107005600Y-127172252D01*
X107005600Y-127167685D01*
X107513600Y-127167685D01*
X107518075Y-127182924D01*
X107519465Y-127184129D01*
X107527148Y-127185800D01*
X107634792Y-127185800D01*
X107641167Y-127185477D01*
X107775867Y-127171795D01*
X107788307Y-127169241D01*
X107960864Y-127115165D01*
X107972552Y-127110156D01*
X108130711Y-127022486D01*
X108141144Y-127015235D01*
X108278443Y-126897556D01*
X108287212Y-126888347D01*
X108398042Y-126745467D01*
X108404778Y-126734687D01*
X108484619Y-126572426D01*
X108489045Y-126560527D01*
X108503682Y-126504331D01*
X108503248Y-126490236D01*
X108495067Y-126486800D01*
X107531715Y-126486800D01*
X107516476Y-126491275D01*
X107515271Y-126492665D01*
X107513600Y-126500348D01*
X107513600Y-127167685D01*
X107005600Y-127167685D01*
X107005600Y-126504915D01*
X107001125Y-126489676D01*
X106999735Y-126488471D01*
X106992052Y-126486800D01*
X106025699Y-126486800D01*
X106012168Y-126490773D01*
X106011291Y-126496875D01*
X105105700Y-126496875D01*
X105105700Y-125961269D01*
X106015518Y-125961269D01*
X106015952Y-125975364D01*
X106024133Y-125978800D01*
X106987485Y-125978800D01*
X107002724Y-125974325D01*
X107003929Y-125972935D01*
X107005600Y-125965252D01*
X107005600Y-125960685D01*
X107513600Y-125960685D01*
X107518075Y-125975924D01*
X107519465Y-125977129D01*
X107527148Y-125978800D01*
X108493501Y-125978800D01*
X108507032Y-125974827D01*
X108507909Y-125968725D01*
X108452770Y-125818864D01*
X108447208Y-125807458D01*
X108351909Y-125653756D01*
X108344160Y-125643695D01*
X108219910Y-125512304D01*
X108210290Y-125504001D01*
X108209567Y-125503495D01*
X108983791Y-125503495D01*
X108991067Y-125575131D01*
X108993621Y-125587570D01*
X109049520Y-125765943D01*
X109054529Y-125777631D01*
X109145153Y-125941120D01*
X109152404Y-125951553D01*
X109274056Y-126093488D01*
X109283247Y-126102241D01*
X109430964Y-126216821D01*
X109441724Y-126223545D01*
X109609460Y-126306081D01*
X109621367Y-126310509D01*
X109688069Y-126327883D01*
X109702164Y-126327449D01*
X109705600Y-126319268D01*
X109705600Y-126318667D01*
X110213600Y-126318667D01*
X110217573Y-126332198D01*
X110223675Y-126333075D01*
X110386745Y-126273077D01*
X110398173Y-126267503D01*
X110557040Y-126169001D01*
X110567104Y-126161251D01*
X110702922Y-126032814D01*
X110711225Y-126023194D01*
X110818445Y-125870069D01*
X110824642Y-125858980D01*
X110898884Y-125687418D01*
X110902723Y-125675315D01*
X110938401Y-125504536D01*
X110937278Y-125490475D01*
X110927171Y-125486800D01*
X110231715Y-125486800D01*
X110216476Y-125491275D01*
X110215271Y-125492665D01*
X110213600Y-125500348D01*
X110213600Y-126318667D01*
X109705600Y-126318667D01*
X109705600Y-125504915D01*
X109701125Y-125489676D01*
X109699735Y-125488471D01*
X109692052Y-125486800D01*
X109000210Y-125486800D01*
X108985850Y-125491016D01*
X108983791Y-125503495D01*
X108209567Y-125503495D01*
X108062157Y-125400277D01*
X108051069Y-125394080D01*
X107885105Y-125322260D01*
X107872993Y-125318418D01*
X107694466Y-125281123D01*
X107684934Y-125279885D01*
X107681711Y-125279800D01*
X107531715Y-125279800D01*
X107516476Y-125284275D01*
X107515271Y-125285665D01*
X107513600Y-125293348D01*
X107513600Y-125960685D01*
X107005600Y-125960685D01*
X107005600Y-125297915D01*
X107001125Y-125282676D01*
X106999735Y-125281471D01*
X106992052Y-125279800D01*
X106884408Y-125279800D01*
X106878033Y-125280123D01*
X106743333Y-125293805D01*
X106730893Y-125296359D01*
X106558336Y-125350435D01*
X106546648Y-125355444D01*
X106388489Y-125443114D01*
X106378056Y-125450365D01*
X106240757Y-125568044D01*
X106231988Y-125577253D01*
X106121158Y-125720133D01*
X106114422Y-125730913D01*
X106034581Y-125893174D01*
X106030155Y-125905073D01*
X106015518Y-125961269D01*
X105105700Y-125961269D01*
X105105700Y-124961064D01*
X108980799Y-124961064D01*
X108981922Y-124975125D01*
X108992029Y-124978800D01*
X109687485Y-124978800D01*
X109702724Y-124974325D01*
X109703929Y-124972935D01*
X109705600Y-124965252D01*
X109705600Y-124960685D01*
X110213600Y-124960685D01*
X110218075Y-124975924D01*
X110219465Y-124977129D01*
X110227148Y-124978800D01*
X110918990Y-124978800D01*
X110933350Y-124974584D01*
X110935409Y-124962105D01*
X110928133Y-124890469D01*
X110925579Y-124878030D01*
X110869680Y-124699657D01*
X110864671Y-124687969D01*
X110774047Y-124524480D01*
X110766796Y-124514047D01*
X110645144Y-124372112D01*
X110635953Y-124363359D01*
X110488236Y-124248779D01*
X110477476Y-124242055D01*
X110309740Y-124159519D01*
X110297833Y-124155091D01*
X110231131Y-124137717D01*
X110217036Y-124138151D01*
X110213600Y-124146332D01*
X110213600Y-124960685D01*
X109705600Y-124960685D01*
X109705600Y-124146933D01*
X109701627Y-124133402D01*
X109695525Y-124132525D01*
X109532455Y-124192523D01*
X109521027Y-124198097D01*
X109362160Y-124296599D01*
X109352096Y-124304349D01*
X109216278Y-124432786D01*
X109207975Y-124442406D01*
X109100755Y-124595531D01*
X109094558Y-124606620D01*
X109020316Y-124778182D01*
X109016477Y-124790285D01*
X108980799Y-124961064D01*
X105105700Y-124961064D01*
X105105700Y-120503495D01*
X108983791Y-120503495D01*
X108991067Y-120575131D01*
X108993621Y-120587570D01*
X109049520Y-120765943D01*
X109054529Y-120777631D01*
X109145153Y-120941120D01*
X109152404Y-120951553D01*
X109274056Y-121093488D01*
X109283247Y-121102241D01*
X109430964Y-121216821D01*
X109441724Y-121223545D01*
X109609460Y-121306081D01*
X109621367Y-121310509D01*
X109688069Y-121327883D01*
X109702164Y-121327449D01*
X109705600Y-121319268D01*
X109705600Y-121318667D01*
X110213600Y-121318667D01*
X110217573Y-121332198D01*
X110223675Y-121333075D01*
X110386745Y-121273077D01*
X110398173Y-121267503D01*
X110557040Y-121169001D01*
X110567104Y-121161251D01*
X110702922Y-121032814D01*
X110711225Y-121023194D01*
X110818445Y-120870069D01*
X110824642Y-120858980D01*
X110898884Y-120687418D01*
X110902723Y-120675315D01*
X110938401Y-120504536D01*
X110937278Y-120490475D01*
X110927171Y-120486800D01*
X110231715Y-120486800D01*
X110216476Y-120491275D01*
X110215271Y-120492665D01*
X110213600Y-120500348D01*
X110213600Y-121318667D01*
X109705600Y-121318667D01*
X109705600Y-120504915D01*
X109701125Y-120489676D01*
X109699735Y-120488471D01*
X109692052Y-120486800D01*
X109000210Y-120486800D01*
X108985850Y-120491016D01*
X108983791Y-120503495D01*
X105105700Y-120503495D01*
X105105700Y-119496875D01*
X106011291Y-119496875D01*
X106066430Y-119646736D01*
X106071992Y-119658142D01*
X106167291Y-119811844D01*
X106175040Y-119821905D01*
X106299290Y-119953296D01*
X106308910Y-119961599D01*
X106457043Y-120065323D01*
X106468131Y-120071520D01*
X106634095Y-120143340D01*
X106646207Y-120147182D01*
X106824734Y-120184477D01*
X106834266Y-120185715D01*
X106837489Y-120185800D01*
X106987485Y-120185800D01*
X107002724Y-120181325D01*
X107003929Y-120179935D01*
X107005600Y-120172252D01*
X107005600Y-120167685D01*
X107513600Y-120167685D01*
X107518075Y-120182924D01*
X107519465Y-120184129D01*
X107527148Y-120185800D01*
X107634792Y-120185800D01*
X107641167Y-120185477D01*
X107775867Y-120171795D01*
X107788307Y-120169241D01*
X107960864Y-120115165D01*
X107972552Y-120110156D01*
X108130711Y-120022486D01*
X108141144Y-120015235D01*
X108204347Y-119961064D01*
X108980799Y-119961064D01*
X108981922Y-119975125D01*
X108992029Y-119978800D01*
X109687485Y-119978800D01*
X109702724Y-119974325D01*
X109703929Y-119972935D01*
X109705600Y-119965252D01*
X109705600Y-119960685D01*
X110213600Y-119960685D01*
X110218075Y-119975924D01*
X110219465Y-119977129D01*
X110227148Y-119978800D01*
X110918990Y-119978800D01*
X110933350Y-119974584D01*
X110935409Y-119962105D01*
X110928133Y-119890469D01*
X110925579Y-119878030D01*
X110869680Y-119699657D01*
X110864671Y-119687969D01*
X110774047Y-119524480D01*
X110766796Y-119514047D01*
X110645144Y-119372112D01*
X110635953Y-119363359D01*
X110488236Y-119248779D01*
X110477476Y-119242055D01*
X110309740Y-119159519D01*
X110297833Y-119155091D01*
X110231131Y-119137717D01*
X110217036Y-119138151D01*
X110213600Y-119146332D01*
X110213600Y-119960685D01*
X109705600Y-119960685D01*
X109705600Y-119146933D01*
X109701627Y-119133402D01*
X109695525Y-119132525D01*
X109532455Y-119192523D01*
X109521027Y-119198097D01*
X109362160Y-119296599D01*
X109352096Y-119304349D01*
X109216278Y-119432786D01*
X109207975Y-119442406D01*
X109100755Y-119595531D01*
X109094558Y-119606620D01*
X109020316Y-119778182D01*
X109016477Y-119790285D01*
X108980799Y-119961064D01*
X108204347Y-119961064D01*
X108278443Y-119897556D01*
X108287212Y-119888347D01*
X108398042Y-119745467D01*
X108404778Y-119734687D01*
X108484619Y-119572426D01*
X108489045Y-119560527D01*
X108503682Y-119504331D01*
X108503248Y-119490236D01*
X108495067Y-119486800D01*
X107531715Y-119486800D01*
X107516476Y-119491275D01*
X107515271Y-119492665D01*
X107513600Y-119500348D01*
X107513600Y-120167685D01*
X107005600Y-120167685D01*
X107005600Y-119504915D01*
X107001125Y-119489676D01*
X106999735Y-119488471D01*
X106992052Y-119486800D01*
X106025699Y-119486800D01*
X106012168Y-119490773D01*
X106011291Y-119496875D01*
X105105700Y-119496875D01*
X105105700Y-118961269D01*
X106015518Y-118961269D01*
X106015952Y-118975364D01*
X106024133Y-118978800D01*
X106987485Y-118978800D01*
X107002724Y-118974325D01*
X107003929Y-118972935D01*
X107005600Y-118965252D01*
X107005600Y-118960685D01*
X107513600Y-118960685D01*
X107518075Y-118975924D01*
X107519465Y-118977129D01*
X107527148Y-118978800D01*
X108493501Y-118978800D01*
X108507032Y-118974827D01*
X108507909Y-118968725D01*
X108452770Y-118818864D01*
X108447208Y-118807458D01*
X108351909Y-118653756D01*
X108344160Y-118643695D01*
X108219910Y-118512304D01*
X108210290Y-118504001D01*
X108062157Y-118400277D01*
X108051069Y-118394080D01*
X107885105Y-118322260D01*
X107872993Y-118318418D01*
X107694466Y-118281123D01*
X107684934Y-118279885D01*
X107681711Y-118279800D01*
X107531715Y-118279800D01*
X107516476Y-118284275D01*
X107515271Y-118285665D01*
X107513600Y-118293348D01*
X107513600Y-118960685D01*
X107005600Y-118960685D01*
X107005600Y-118297915D01*
X107001125Y-118282676D01*
X106999735Y-118281471D01*
X106992052Y-118279800D01*
X106884408Y-118279800D01*
X106878033Y-118280123D01*
X106743333Y-118293805D01*
X106730893Y-118296359D01*
X106558336Y-118350435D01*
X106546648Y-118355444D01*
X106388489Y-118443114D01*
X106378056Y-118450365D01*
X106240757Y-118568044D01*
X106231988Y-118577253D01*
X106121158Y-118720133D01*
X106114422Y-118730913D01*
X106034581Y-118893174D01*
X106030155Y-118905073D01*
X106015518Y-118961269D01*
X105105700Y-118961269D01*
X105105700Y-115883700D01*
X105125702Y-115815579D01*
X105179358Y-115769086D01*
X105231700Y-115757700D01*
X108858061Y-115757700D01*
X108926182Y-115777702D01*
G37*
%TD.AperFunction*%
%TD*%
M02*
