%TF.GenerationSoftware,KiCad,Pcbnew,(6.0.11)*%
%TF.CreationDate,2023-10-05T10:27:58-03:00*%
%TF.ProjectId,gerenciador_de_bateria_2.0,67657265-6e63-4696-9164-6f725f64655f,rev?*%
%TF.SameCoordinates,Original*%
%TF.FileFunction,Copper,L1,Top*%
%TF.FilePolarity,Positive*%
%FSLAX46Y46*%
G04 Gerber Fmt 4.6, Leading zero omitted, Abs format (unit mm)*
G04 Created by KiCad (PCBNEW (6.0.11)) date 2023-10-05 10:27:58*
%MOMM*%
%LPD*%
G01*
G04 APERTURE LIST*
G04 Aperture macros list*
%AMRoundRect*
0 Rectangle with rounded corners*
0 $1 Rounding radius*
0 $2 $3 $4 $5 $6 $7 $8 $9 X,Y pos of 4 corners*
0 Add a 4 corners polygon primitive as box body*
4,1,4,$2,$3,$4,$5,$6,$7,$8,$9,$2,$3,0*
0 Add four circle primitives for the rounded corners*
1,1,$1+$1,$2,$3*
1,1,$1+$1,$4,$5*
1,1,$1+$1,$6,$7*
1,1,$1+$1,$8,$9*
0 Add four rect primitives between the rounded corners*
20,1,$1+$1,$2,$3,$4,$5,0*
20,1,$1+$1,$4,$5,$6,$7,0*
20,1,$1+$1,$6,$7,$8,$9,0*
20,1,$1+$1,$8,$9,$2,$3,0*%
G04 Aperture macros list end*
%TA.AperFunction,SMDPad,CuDef*%
%ADD10R,0.127000X0.127000*%
%TD*%
%TA.AperFunction,SMDPad,CuDef*%
%ADD11R,1.200000X0.200000*%
%TD*%
%TA.AperFunction,SMDPad,CuDef*%
%ADD12R,0.200000X0.800000*%
%TD*%
%TA.AperFunction,SMDPad,CuDef*%
%ADD13RoundRect,0.250000X0.475000X-0.250000X0.475000X0.250000X-0.475000X0.250000X-0.475000X-0.250000X0*%
%TD*%
%TA.AperFunction,SMDPad,CuDef*%
%ADD14RoundRect,0.250000X0.262500X0.450000X-0.262500X0.450000X-0.262500X-0.450000X0.262500X-0.450000X0*%
%TD*%
%TA.AperFunction,ComponentPad*%
%ADD15R,1.700000X1.700000*%
%TD*%
%TA.AperFunction,ComponentPad*%
%ADD16O,1.700000X1.700000*%
%TD*%
%TA.AperFunction,SMDPad,CuDef*%
%ADD17RoundRect,0.250000X-0.475000X0.250000X-0.475000X-0.250000X0.475000X-0.250000X0.475000X0.250000X0*%
%TD*%
%TA.AperFunction,SMDPad,CuDef*%
%ADD18R,1.900000X1.200000*%
%TD*%
%TA.AperFunction,SMDPad,CuDef*%
%ADD19R,1.900000X1.500000*%
%TD*%
%TA.AperFunction,ComponentPad*%
%ADD20C,1.450000*%
%TD*%
%TA.AperFunction,ComponentPad*%
%ADD21O,1.900000X1.200000*%
%TD*%
%TA.AperFunction,SMDPad,CuDef*%
%ADD22R,1.350000X0.400000*%
%TD*%
%TA.AperFunction,SMDPad,CuDef*%
%ADD23RoundRect,0.250000X-0.250000X-0.475000X0.250000X-0.475000X0.250000X0.475000X-0.250000X0.475000X0*%
%TD*%
%TA.AperFunction,SMDPad,CuDef*%
%ADD24RoundRect,0.250000X0.250000X0.475000X-0.250000X0.475000X-0.250000X-0.475000X0.250000X-0.475000X0*%
%TD*%
%TA.AperFunction,SMDPad,CuDef*%
%ADD25RoundRect,0.250000X-0.262500X-0.450000X0.262500X-0.450000X0.262500X0.450000X-0.262500X0.450000X0*%
%TD*%
%TA.AperFunction,SMDPad,CuDef*%
%ADD26RoundRect,0.250000X1.075000X-0.375000X1.075000X0.375000X-1.075000X0.375000X-1.075000X-0.375000X0*%
%TD*%
%TA.AperFunction,ViaPad*%
%ADD27C,0.800000*%
%TD*%
%TA.AperFunction,Conductor*%
%ADD28C,0.250000*%
%TD*%
%TA.AperFunction,Conductor*%
%ADD29C,0.200000*%
%TD*%
%TA.AperFunction,Conductor*%
%ADD30C,0.400000*%
%TD*%
%TA.AperFunction,Conductor*%
%ADD31C,0.600000*%
%TD*%
G04 APERTURE END LIST*
%TO.C,U1*%
G36*
X121650000Y-123825002D02*
G01*
X121150000Y-123825002D01*
X121150000Y-124150002D01*
X121050000Y-124150002D01*
X121050000Y-124650002D01*
X120850000Y-124650002D01*
X120850000Y-123625002D01*
X121650000Y-123625002D01*
X121650000Y-123825002D01*
G37*
G36*
X118350000Y-124649999D02*
G01*
X118150000Y-124649999D01*
X118150000Y-124149999D01*
X118050000Y-124149999D01*
X118050000Y-123824999D01*
X117550000Y-123824999D01*
X117550000Y-123624999D01*
X118350000Y-123624999D01*
X118350000Y-124649999D01*
G37*
G36*
X121050000Y-121049996D02*
G01*
X121150000Y-121049996D01*
X121150000Y-121374996D01*
X121650000Y-121374996D01*
X121650000Y-121574996D01*
X120850000Y-121574996D01*
X120850000Y-120549996D01*
X121050000Y-120549996D01*
X121050000Y-121049996D01*
G37*
G36*
X118350000Y-121424998D02*
G01*
X118200000Y-121574998D01*
X117550000Y-121574998D01*
X117550000Y-121374998D01*
X118050000Y-121374998D01*
X118050000Y-121049998D01*
X118150000Y-121049998D01*
X118150000Y-120549998D01*
X118350000Y-120549998D01*
X118350000Y-121424998D01*
G37*
%TD*%
D10*
%TO.P,U1,1*%
%TO.N,N/C*%
X117950000Y-121474998D03*
D11*
%TO.P,U1,2,IN*%
%TO.N,/VIN*%
X118150000Y-121925000D03*
%TO.P,U1,3,PMID*%
%TO.N,Net-(C3-Pad1)*%
X118150000Y-122374999D03*
%TO.P,U1,4,SW*%
%TO.N,Net-(C5-Pad2)*%
X118150000Y-122825001D03*
%TO.P,U1,5,PGND*%
%TO.N,GNDPWR*%
X118150000Y-123275000D03*
D10*
%TO.P,U1,6*%
%TO.N,N/C*%
X117950000Y-123724999D03*
%TO.P,U1,7,PGND*%
%TO.N,GNDPWR*%
X118250000Y-124249999D03*
D12*
%TO.P,U1,8,BST*%
%TO.N,Net-(R2-Pad1)*%
X118699999Y-124249999D03*
%TO.P,U1,9,STAT*%
%TO.N,Net-(D1-Pad1)*%
X119150001Y-124249999D03*
%TO.P,U1,10,INT*%
%TO.N,Net-(R10-Pad2)*%
X119600000Y-124249999D03*
%TO.P,U1,11,NTC*%
%TO.N,Net-(R4-Pad1)*%
X120049999Y-124249999D03*
%TO.P,U1,12,VNTC*%
%TO.N,Net-(C11-Pad2)*%
X120500001Y-124249999D03*
D10*
%TO.P,U1,13,VREF*%
%TO.N,/VREF*%
X120950000Y-124249999D03*
%TO.P,U1,14,VREF*%
X121250000Y-123725002D03*
D11*
%TO.P,U1,15,AGND*%
%TO.N,GNDA*%
X121050000Y-123275000D03*
%TO.P,U1,16,SYS*%
%TO.N,/SYS*%
X121050000Y-122825001D03*
%TO.P,U1,17,BATT*%
%TO.N,/BATT*%
X121050000Y-122374999D03*
%TO.P,U1,18,CE*%
%TO.N,GNDA*%
X121050000Y-121925000D03*
D10*
%TO.P,U1,19*%
%TO.N,N/C*%
X121250000Y-121475001D03*
%TO.P,U1,20,SCL*%
%TO.N,/SCL*%
X120950000Y-120950001D03*
D12*
%TO.P,U1,21,SDA*%
%TO.N,/SDA*%
X120500001Y-120950001D03*
%TO.P,U1,22,DISC*%
%TO.N,Net-(R1-Pad1)*%
X120049999Y-120950001D03*
%TO.P,U1,23,OTG*%
%TO.N,GNDA*%
X119600000Y-120950001D03*
%TO.P,U1,24,ILIM*%
%TO.N,Net-(RILIM1-Pad1)*%
X119150001Y-120950001D03*
%TO.P,U1,25,DM*%
%TO.N,Net-(U1-Pad25)*%
X118699999Y-120950001D03*
D10*
%TO.P,U1,26,DP*%
%TO.N,Net-(U1-Pad26)*%
X118250000Y-120950001D03*
%TD*%
D13*
%TO.P,C5,1*%
%TO.N,Net-(C5-Pad1)*%
X114120000Y-127800000D03*
%TO.P,C5,2*%
%TO.N,Net-(C5-Pad2)*%
X114120000Y-125900000D03*
%TD*%
D14*
%TO.P,R2,1*%
%TO.N,Net-(R2-Pad1)*%
X118108100Y-128016000D03*
%TO.P,R2,2*%
%TO.N,Net-(C5-Pad1)*%
X116283100Y-128016000D03*
%TD*%
D15*
%TO.P,J1,1,Pin_1*%
%TO.N,/BATT*%
X132500000Y-118267400D03*
D16*
%TO.P,J1,2,Pin_2*%
%TO.N,GNDPWR*%
X132500000Y-120807400D03*
%TO.P,J1,3,Pin_3*%
X132500000Y-123347400D03*
%TO.P,J1,4,Pin_4*%
%TO.N,/SYS*%
X132500000Y-125887400D03*
%TO.P,J1,5,Pin_5*%
%TO.N,/TERM*%
X132500000Y-128427400D03*
%TD*%
D17*
%TO.P,C9,1*%
%TO.N,GNDPWR*%
X123370000Y-120060000D03*
%TO.P,C9,2*%
%TO.N,/BATT*%
X123370000Y-121960000D03*
%TD*%
D18*
%TO.P,USB,6,GND*%
%TO.N,GNDPWR*%
X107322100Y-120233600D03*
D19*
X107322100Y-122133600D03*
D20*
X110022100Y-120633600D03*
D18*
X107322100Y-126033600D03*
D19*
X107322100Y-124133600D03*
D21*
X107322100Y-126633600D03*
X107322100Y-119633600D03*
D20*
X110022100Y-125633600D03*
D22*
%TO.P,USB,5,GND*%
X110022100Y-124433600D03*
%TO.P,USB,4,ID*%
%TO.N,unconnected-(U2-Pad4)*%
X110022100Y-123783600D03*
%TO.P,USB,3,D+*%
%TO.N,Net-(U1-Pad26)*%
X110022100Y-123133600D03*
%TO.P,USB,2,D-*%
%TO.N,Net-(U1-Pad25)*%
X110022100Y-122483600D03*
%TO.P,USB,1,VBUS*%
%TO.N,/VIN*%
X110022100Y-121833600D03*
%TD*%
D23*
%TO.P,C7,1*%
%TO.N,/BATT*%
X125530000Y-120750000D03*
%TO.P,C7,2*%
%TO.N,GNDPWR*%
X127430000Y-120750000D03*
%TD*%
D13*
%TO.P,C12,2*%
%TO.N,GNDPWR*%
X115530000Y-119570000D03*
%TO.P,C12,1*%
%TO.N,/VIN*%
X115530000Y-121470000D03*
%TD*%
D24*
%TO.P,C3,1*%
%TO.N,Net-(C3-Pad1)*%
X115120000Y-123530000D03*
%TO.P,C3,2*%
%TO.N,GNDPWR*%
X113220000Y-123530000D03*
%TD*%
D16*
%TO.P,GNDPWR,2,Pin_2*%
%TO.N,GNDPWR*%
X112820000Y-116870000D03*
D15*
%TO.P,GNDPWR,1,Pin_1*%
%TO.N,/VIN*%
X110280000Y-116870000D03*
%TD*%
D25*
%TO.P,R3,1*%
%TO.N,Net-(C5-Pad2)*%
X125376300Y-128117600D03*
%TO.P,R3,2*%
%TO.N,Net-(C6-Pad1)*%
X127201300Y-128117600D03*
%TD*%
D13*
%TO.P,C10,1*%
%TO.N,/SYS*%
X129270000Y-123940000D03*
%TO.P,C10,2*%
%TO.N,GNDPWR*%
X129270000Y-122040000D03*
%TD*%
D26*
%TO.P,L1,1,1*%
%TO.N,Net-(C5-Pad2)*%
X126140000Y-125920000D03*
%TO.P,L1,2,2*%
%TO.N,/SYS*%
X126140000Y-123120000D03*
%TD*%
D13*
%TO.P,C1,2*%
%TO.N,GNDPWR*%
X113060000Y-119590000D03*
%TO.P,C1,1*%
%TO.N,/VIN*%
X113060000Y-121490000D03*
%TD*%
D14*
%TO.P,RILIM1,2*%
%TO.N,GNDA*%
X116717500Y-117000000D03*
%TO.P,RILIM1,1*%
%TO.N,Net-(RILIM1-Pad1)*%
X118542500Y-117000000D03*
%TD*%
D13*
%TO.P,C4,1*%
%TO.N,/VREF*%
X123190000Y-125918000D03*
%TO.P,C4,2*%
%TO.N,GNDA*%
X123190000Y-124018000D03*
%TD*%
%TO.P,C6,1*%
%TO.N,Net-(C6-Pad1)*%
X129235200Y-128153200D03*
%TO.P,C6,2*%
%TO.N,GNDPWR*%
X129235200Y-126253200D03*
%TD*%
D16*
%TO.P,SDA,2,Pin_2*%
%TO.N,/SDA*%
X125520000Y-116880000D03*
D15*
%TO.P,SDA,1,Pin_1*%
%TO.N,/SCL*%
X128060000Y-116880000D03*
%TD*%
D14*
%TO.P,R10,1*%
%TO.N,/VREF*%
X121613300Y-128016000D03*
%TO.P,R10,2*%
%TO.N,Net-(R10-Pad2)*%
X119788300Y-128016000D03*
%TD*%
D27*
%TO.N,/VREF*%
X122631200Y-127457200D03*
%TO.N,GNDA*%
X120263447Y-117073446D03*
%TO.N,Net-(C11-Pad2)*%
X121305000Y-125705000D03*
%TO.N,Net-(D1-Pad1)*%
X118875500Y-126187200D03*
%TO.N,Net-(R1-Pad1)*%
X121650000Y-116070000D03*
%TO.N,Net-(R4-Pad1)*%
X120670000Y-126695200D03*
%TO.N,GNDPWR*%
X115800631Y-125448705D03*
%TO.N,Net-(U1-Pad25)*%
X118110000Y-119380000D03*
X111640000Y-122950000D03*
%TO.N,Net-(U1-Pad26)*%
X117010000Y-120240000D03*
X108960000Y-128150000D03*
%TD*%
D28*
%TO.N,GNDPWR*%
X117561500Y-123336499D02*
X118150000Y-123336499D01*
X117698000Y-124249999D02*
X117561500Y-124113499D01*
X118180000Y-124249999D02*
X117698000Y-124249999D01*
X117561500Y-124113499D02*
X117561500Y-123336499D01*
X117974400Y-124240000D02*
X117500400Y-124714000D01*
X118180000Y-124240000D02*
X117974400Y-124240000D01*
%TO.N,/SCL*%
X121000000Y-120880000D02*
X121259600Y-120620400D01*
X121259600Y-120620400D02*
X121259600Y-120548400D01*
D29*
%TO.N,/VREF*%
X121250000Y-123790000D02*
X122158800Y-124698800D01*
X122158800Y-124698800D02*
X122158800Y-124851200D01*
X121250000Y-123725002D02*
X121250000Y-123790000D01*
X120950000Y-124249999D02*
X120950000Y-124380000D01*
X120950000Y-124380000D02*
X121421200Y-124851200D01*
X121421200Y-124851200D02*
X122158800Y-124851200D01*
%TO.N,Net-(U1-Pad26)*%
X117970000Y-120240000D02*
X117010000Y-120240000D01*
D28*
%TO.N,/SYS*%
X126057600Y-123037600D02*
X126140000Y-123120000D01*
X122275600Y-123037600D02*
X126057600Y-123037600D01*
X122063001Y-122825001D02*
X122275600Y-123037600D01*
X121050000Y-122825001D02*
X122063001Y-122825001D01*
%TO.N,Net-(C3-Pad1)*%
X118150000Y-122374999D02*
X116275001Y-122374999D01*
X116275001Y-122374999D02*
X115120000Y-123530000D01*
D30*
%TO.N,/VREF*%
X122158800Y-124851200D02*
X123073200Y-125765600D01*
D31*
X123190000Y-126898400D02*
X123190000Y-125765600D01*
X122631200Y-127457200D02*
X123190000Y-126898400D01*
D30*
X123073200Y-125765600D02*
X123190000Y-125765600D01*
D31*
X122072400Y-128016000D02*
X121460900Y-128016000D01*
X122631200Y-127457200D02*
X122072400Y-128016000D01*
D28*
%TO.N,GNDA*%
X121050000Y-123275000D02*
X120165000Y-123275000D01*
X119600000Y-121650002D02*
X119874998Y-121925000D01*
X120263447Y-117073446D02*
X119600000Y-117736893D01*
X119874998Y-121925000D02*
X121050000Y-121925000D01*
X120165000Y-123275000D02*
X119600000Y-122710000D01*
X119600000Y-120950001D02*
X119600000Y-121650002D01*
X119600000Y-122710000D02*
X119600000Y-121650002D01*
X121751000Y-123275000D02*
X122494000Y-124018000D01*
X122494000Y-124018000D02*
X123190000Y-124018000D01*
X117390000Y-115960000D02*
X116717500Y-116632500D01*
X119600000Y-117736893D02*
X119600000Y-120950001D01*
X119150001Y-115960000D02*
X117390000Y-115960000D01*
X120263447Y-117073446D02*
X119150001Y-115960000D01*
X121050000Y-123275000D02*
X121751000Y-123275000D01*
X116717500Y-116632500D02*
X116717500Y-117000000D01*
D30*
%TO.N,Net-(C5-Pad1)*%
X114120000Y-127800000D02*
X116067100Y-127800000D01*
X116067100Y-127800000D02*
X116283100Y-128016000D01*
D31*
%TO.N,/SYS*%
X128450000Y-123120000D02*
X129270000Y-123940000D01*
X129270000Y-123940000D02*
X130552600Y-123940000D01*
X126140000Y-123120000D02*
X128450000Y-123120000D01*
X130552600Y-123940000D02*
X132500000Y-125887400D01*
D28*
%TO.N,Net-(C11-Pad2)*%
X121305000Y-125705000D02*
X120500001Y-124900001D01*
X120500001Y-124900001D02*
X120500001Y-124249999D01*
%TO.N,Net-(D1-Pad1)*%
X118875500Y-126187200D02*
X119150001Y-125912699D01*
X119150001Y-125912699D02*
X119150001Y-124249999D01*
D30*
%TO.N,/SCL*%
X125468000Y-118272000D02*
X124766400Y-118973600D01*
X124766400Y-118973600D02*
X122072400Y-118973600D01*
X128060000Y-116880000D02*
X126668000Y-118272000D01*
X121259600Y-120548400D02*
X121259600Y-119786400D01*
X121259600Y-119786400D02*
X122072400Y-118973600D01*
X126668000Y-118272000D02*
X125468000Y-118272000D01*
D28*
%TO.N,/SDA*%
X120500001Y-120950001D02*
X120500001Y-119529999D01*
X120500001Y-119529999D02*
X120802400Y-119227600D01*
D30*
X120802400Y-119227600D02*
X122377200Y-117652800D01*
D31*
X122377200Y-117652800D02*
X122920000Y-117110000D01*
X122920000Y-117110000D02*
X124650000Y-117110000D01*
D28*
%TO.N,Net-(C5-Pad2)*%
X115440000Y-124580000D02*
X114120000Y-125900000D01*
D31*
X126140000Y-125920000D02*
X126140000Y-127353900D01*
X111750000Y-127200000D02*
X111750000Y-128650000D01*
X114120000Y-125900000D02*
X113050000Y-125900000D01*
X111750000Y-128650000D02*
X112610000Y-129510000D01*
X113050000Y-125900000D02*
X111750000Y-127200000D01*
X123983900Y-129510000D02*
X125376300Y-128117600D01*
D28*
X116992400Y-123952000D02*
X116364400Y-124580000D01*
X116364400Y-124580000D02*
X115440000Y-124580000D01*
D31*
X112610000Y-129510000D02*
X123983900Y-129510000D01*
D28*
X117249999Y-122825001D02*
X116992400Y-123082600D01*
D31*
X126140000Y-127353900D02*
X125376300Y-128117600D01*
D28*
X118150000Y-122825001D02*
X117249999Y-122825001D01*
X116992400Y-123082600D02*
X116992400Y-123952000D01*
%TO.N,Net-(R1-Pad1)*%
X121650000Y-116712905D02*
X120049999Y-118312906D01*
X121650000Y-116070000D02*
X121650000Y-116712905D01*
X120049999Y-118312906D02*
X120049999Y-120950001D01*
%TO.N,Net-(R2-Pad1)*%
X118319000Y-125431000D02*
X118180000Y-125570000D01*
D30*
X118008400Y-125741600D02*
X118008400Y-127304800D01*
D28*
X118699999Y-125050001D02*
X118319000Y-125431000D01*
D30*
X118180000Y-125570000D02*
X118008400Y-125741600D01*
D28*
X118699999Y-124249999D02*
X118699999Y-125050001D01*
D31*
%TO.N,Net-(C6-Pad1)*%
X127201300Y-128117600D02*
X129199600Y-128117600D01*
X129199600Y-128117600D02*
X129235200Y-128153200D01*
D28*
%TO.N,Net-(R4-Pad1)*%
X120049999Y-126075199D02*
X120049999Y-124249999D01*
X120670000Y-126695200D02*
X120049999Y-126075199D01*
%TO.N,Net-(R10-Pad2)*%
X119600000Y-127491200D02*
X119600000Y-124249999D01*
%TO.N,Net-(RILIM1-Pad1)*%
X119150001Y-117607501D02*
X118542500Y-117000000D01*
X119150001Y-119057706D02*
X119150001Y-117607501D01*
X119150001Y-120950001D02*
X119150001Y-119057706D01*
D29*
%TO.N,GNDPWR*%
X128200000Y-118420000D02*
X129290000Y-118420000D01*
X123370000Y-120060000D02*
X124387107Y-120060000D01*
D31*
X132500000Y-120807400D02*
X130502600Y-120807400D01*
D28*
X107322100Y-117477900D02*
X109105000Y-115695000D01*
D29*
X110022100Y-124433600D02*
X110022100Y-125633600D01*
X128200000Y-118420000D02*
X128660000Y-118420000D01*
X127430000Y-118580000D02*
X127590000Y-118420000D01*
X127120000Y-118890000D02*
X127430000Y-118580000D01*
X125198554Y-119248553D02*
X125557107Y-118890000D01*
D31*
X115800631Y-125448705D02*
X116765695Y-125448705D01*
D29*
X126190000Y-118890000D02*
X127120000Y-118890000D01*
D31*
X130502600Y-120807400D02*
X129270000Y-122040000D01*
D29*
X127590000Y-118420000D02*
X128200000Y-118420000D01*
D28*
X111645000Y-115695000D02*
X112820000Y-116870000D01*
D31*
X130445200Y-120750000D02*
X130502600Y-120807400D01*
D29*
X110022100Y-124433600D02*
X111946400Y-124433600D01*
X124387107Y-120060000D02*
X125198554Y-119248553D01*
D31*
X127430000Y-120750000D02*
X130445200Y-120750000D01*
D29*
X129290000Y-118420000D02*
X130610000Y-117100000D01*
X125557107Y-118890000D02*
X126190000Y-118890000D01*
D31*
X116765695Y-125448705D02*
X117500400Y-124714000D01*
D28*
X107322100Y-119633600D02*
X107322100Y-117477900D01*
X109105000Y-115695000D02*
X111645000Y-115695000D01*
%TO.N,Net-(U1-Pad25)*%
X111173600Y-122483600D02*
X110022100Y-122483600D01*
X118699999Y-120950001D02*
X118699999Y-119969999D01*
X118699999Y-119969999D02*
X118110000Y-119380000D01*
X111640000Y-122950000D02*
X111173600Y-122483600D01*
D30*
%TO.N,Net-(U1-Pad26)*%
X108947100Y-123183600D02*
X108897100Y-123233600D01*
X108897100Y-128087100D02*
X108960000Y-128150000D01*
D29*
X117970000Y-120240000D02*
X118250000Y-120520000D01*
D30*
X108897100Y-123233600D02*
X108897100Y-128087100D01*
D28*
X108960000Y-123320700D02*
X109147100Y-123133600D01*
X108960000Y-128150000D02*
X108960000Y-123320700D01*
D29*
X118250000Y-120520000D02*
X118250000Y-120950001D01*
D28*
X109147100Y-123133600D02*
X110022100Y-123133600D01*
%TO.N,/VIN*%
X111546400Y-121833600D02*
X111700000Y-121680000D01*
D30*
X111890000Y-121490000D02*
X113060000Y-121490000D01*
X113060000Y-121490000D02*
X115510000Y-121490000D01*
X110280000Y-116870000D02*
X110280000Y-118710000D01*
X110280000Y-118710000D02*
X113060000Y-121490000D01*
D28*
X115985000Y-121925000D02*
X115530000Y-121470000D01*
X111496400Y-121833600D02*
X111546400Y-121833600D01*
X110022100Y-121833600D02*
X111496400Y-121833600D01*
D30*
X115510000Y-121490000D02*
X115530000Y-121470000D01*
X111700000Y-121680000D02*
X111890000Y-121490000D01*
D28*
X118150000Y-121925000D02*
X115985000Y-121925000D01*
%TO.N,/BATT*%
X122955001Y-122374999D02*
X121050000Y-122374999D01*
D31*
X124320000Y-121960000D02*
X125530000Y-120750000D01*
X123370000Y-121960000D02*
X124320000Y-121960000D01*
X126790000Y-119490000D02*
X131277400Y-119490000D01*
X131277400Y-119490000D02*
X132500000Y-118267400D01*
D28*
X123370000Y-121960000D02*
X122955001Y-122374999D01*
D31*
X125530000Y-120750000D02*
X126790000Y-119490000D01*
%TD*%
%TA.AperFunction,Conductor*%
%TO.N,GNDPWR*%
G36*
X108994068Y-115528502D02*
G01*
X109040561Y-115582158D01*
X109050665Y-115652432D01*
X109026773Y-115710065D01*
X109004753Y-115739447D01*
X108979385Y-115773295D01*
X108928255Y-115909684D01*
X108921500Y-115971866D01*
X108921500Y-117768134D01*
X108928255Y-117830316D01*
X108979385Y-117966705D01*
X109066739Y-118083261D01*
X109183295Y-118170615D01*
X109319684Y-118221745D01*
X109381866Y-118228500D01*
X109445500Y-118228500D01*
X109513621Y-118248502D01*
X109560114Y-118302158D01*
X109571500Y-118354500D01*
X109571500Y-118681088D01*
X109571208Y-118689658D01*
X109567964Y-118737249D01*
X109567275Y-118747352D01*
X109568580Y-118754829D01*
X109568580Y-118754830D01*
X109578261Y-118810299D01*
X109579223Y-118816821D01*
X109586898Y-118880242D01*
X109589581Y-118887343D01*
X109590222Y-118889952D01*
X109594685Y-118906262D01*
X109595450Y-118908798D01*
X109596757Y-118916284D01*
X109599811Y-118923241D01*
X109622442Y-118974795D01*
X109624933Y-118980899D01*
X109647513Y-119040656D01*
X109651817Y-119046919D01*
X109653054Y-119049285D01*
X109661299Y-119064097D01*
X109662632Y-119066351D01*
X109665685Y-119073305D01*
X109687153Y-119101281D01*
X109704579Y-119123991D01*
X109708459Y-119129332D01*
X109740339Y-119175720D01*
X109740344Y-119175725D01*
X109744643Y-119181981D01*
X109785549Y-119218427D01*
X109823104Y-119278674D01*
X109822125Y-119349664D01*
X109782921Y-119408855D01*
X109734341Y-119434209D01*
X109604088Y-119469110D01*
X109593796Y-119472856D01*
X109408232Y-119559386D01*
X109398737Y-119564869D01*
X109362903Y-119589960D01*
X109354527Y-119600439D01*
X109361595Y-119613885D01*
X110292215Y-120544505D01*
X110326241Y-120606817D01*
X110321176Y-120677632D01*
X110292215Y-120722695D01*
X110111195Y-120903715D01*
X110048883Y-120937741D01*
X109978068Y-120932676D01*
X109933005Y-120903715D01*
X109001664Y-119972374D01*
X108989890Y-119965944D01*
X108979339Y-119974107D01*
X108913221Y-119999970D01*
X108843616Y-119985982D01*
X108792623Y-119936583D01*
X108781342Y-119909948D01*
X108775625Y-119890476D01*
X108774234Y-119889271D01*
X108766551Y-119887600D01*
X107594215Y-119887600D01*
X107578976Y-119892075D01*
X107577771Y-119893465D01*
X107576100Y-119901148D01*
X107576100Y-127723485D01*
X107580575Y-127738724D01*
X107581965Y-127739929D01*
X107589648Y-127741600D01*
X107721932Y-127741600D01*
X107727908Y-127741315D01*
X107876594Y-127727129D01*
X107888328Y-127724870D01*
X107940628Y-127709527D01*
X108011624Y-127709544D01*
X108071341Y-127747942D01*
X108100819Y-127812530D01*
X108095930Y-127869367D01*
X108066458Y-127960072D01*
X108065768Y-127966633D01*
X108065768Y-127966635D01*
X108047552Y-128139949D01*
X108046496Y-128150000D01*
X108047186Y-128156565D01*
X108065212Y-128328070D01*
X108066458Y-128339928D01*
X108125473Y-128521556D01*
X108128776Y-128527278D01*
X108128777Y-128527279D01*
X108146549Y-128558061D01*
X108220960Y-128686944D01*
X108225378Y-128691851D01*
X108225379Y-128691852D01*
X108299872Y-128774585D01*
X108348747Y-128828866D01*
X108421443Y-128881683D01*
X108493249Y-128933853D01*
X108503248Y-128941118D01*
X108509276Y-128943802D01*
X108509278Y-128943803D01*
X108671681Y-129016109D01*
X108677712Y-129018794D01*
X108771113Y-129038647D01*
X108858056Y-129057128D01*
X108858061Y-129057128D01*
X108864513Y-129058500D01*
X109055487Y-129058500D01*
X109061939Y-129057128D01*
X109061944Y-129057128D01*
X109148887Y-129038647D01*
X109242288Y-129018794D01*
X109248319Y-129016109D01*
X109410722Y-128943803D01*
X109410724Y-128943802D01*
X109416752Y-128941118D01*
X109426752Y-128933853D01*
X109498557Y-128881683D01*
X109571253Y-128828866D01*
X109620128Y-128774585D01*
X109694621Y-128691852D01*
X109694622Y-128691851D01*
X109699040Y-128686944D01*
X109773451Y-128558061D01*
X109791223Y-128527279D01*
X109791224Y-128527278D01*
X109794527Y-128521556D01*
X109853542Y-128339928D01*
X109854789Y-128328070D01*
X109872814Y-128156565D01*
X109873504Y-128150000D01*
X109872448Y-128139949D01*
X109854232Y-127966635D01*
X109854232Y-127966633D01*
X109853542Y-127960072D01*
X109794527Y-127778444D01*
X109780461Y-127754080D01*
X109702341Y-127618774D01*
X109699040Y-127613056D01*
X109679953Y-127591857D01*
X109637964Y-127545224D01*
X109607246Y-127481217D01*
X109605600Y-127460914D01*
X109605600Y-126962701D01*
X109625602Y-126894580D01*
X109679258Y-126848087D01*
X109749532Y-126837983D01*
X109764211Y-126840994D01*
X109801859Y-126851082D01*
X109812654Y-126852985D01*
X110016625Y-126870831D01*
X110027575Y-126870831D01*
X110231546Y-126852985D01*
X110242341Y-126851082D01*
X110440112Y-126798090D01*
X110450404Y-126794344D01*
X110635968Y-126707814D01*
X110645463Y-126702331D01*
X110681297Y-126677240D01*
X110689673Y-126666761D01*
X110682605Y-126653315D01*
X109751985Y-125722695D01*
X109717959Y-125660383D01*
X109723024Y-125589568D01*
X109751985Y-125544505D01*
X109933005Y-125363485D01*
X109995317Y-125329459D01*
X110066132Y-125334524D01*
X110111195Y-125363485D01*
X111042536Y-126294826D01*
X111054311Y-126301256D01*
X111066326Y-126291960D01*
X111090831Y-126256963D01*
X111096314Y-126247468D01*
X111182844Y-126061904D01*
X111186590Y-126051612D01*
X111239582Y-125853841D01*
X111241485Y-125843046D01*
X111259331Y-125639075D01*
X111259331Y-125628125D01*
X111241485Y-125424154D01*
X111239582Y-125413359D01*
X111186590Y-125215588D01*
X111182844Y-125205296D01*
X111107611Y-125043959D01*
X111096950Y-124973767D01*
X111120979Y-124915145D01*
X111141886Y-124887248D01*
X111150424Y-124871654D01*
X111195578Y-124751206D01*
X111199205Y-124735951D01*
X111204731Y-124685086D01*
X111205100Y-124678272D01*
X111205100Y-124651715D01*
X111200625Y-124636476D01*
X111199235Y-124635271D01*
X111191552Y-124633600D01*
X111055984Y-124633600D01*
X110987863Y-124613598D01*
X110941370Y-124559942D01*
X110931266Y-124489668D01*
X110960760Y-124425088D01*
X110980419Y-124406774D01*
X110998178Y-124393465D01*
X111060361Y-124346861D01*
X111108342Y-124282840D01*
X111165201Y-124240325D01*
X111173670Y-124237509D01*
X111202223Y-124229125D01*
X111203428Y-124227735D01*
X111205099Y-124220052D01*
X111205099Y-124188931D01*
X111204729Y-124182110D01*
X111198352Y-124123393D01*
X111201098Y-124123095D01*
X111201040Y-124094154D01*
X111198845Y-124093916D01*
X111205231Y-124035131D01*
X111205600Y-124031734D01*
X111205600Y-123942059D01*
X111225602Y-123873938D01*
X111279258Y-123827445D01*
X111349532Y-123817341D01*
X111357797Y-123818812D01*
X111538056Y-123857128D01*
X111538061Y-123857128D01*
X111544513Y-123858500D01*
X111735487Y-123858500D01*
X111741939Y-123857128D01*
X111741944Y-123857128D01*
X111828888Y-123838647D01*
X111922288Y-123818794D01*
X112034752Y-123768722D01*
X112105119Y-123759288D01*
X112169416Y-123789394D01*
X112207230Y-123849483D01*
X112212001Y-123883829D01*
X112212001Y-124052095D01*
X112212338Y-124058614D01*
X112222257Y-124154206D01*
X112225149Y-124167600D01*
X112276588Y-124321784D01*
X112282761Y-124334962D01*
X112368063Y-124472807D01*
X112377099Y-124484208D01*
X112491829Y-124598739D01*
X112503240Y-124607751D01*
X112641243Y-124692816D01*
X112654424Y-124698963D01*
X112808710Y-124750138D01*
X112822086Y-124753005D01*
X112916438Y-124762672D01*
X112922854Y-124763000D01*
X112947885Y-124763000D01*
X112963124Y-124758525D01*
X112964329Y-124757135D01*
X112966000Y-124749452D01*
X112966000Y-123402000D01*
X112986002Y-123333879D01*
X113039658Y-123287386D01*
X113092000Y-123276000D01*
X113348000Y-123276000D01*
X113416121Y-123296002D01*
X113462614Y-123349658D01*
X113474000Y-123402000D01*
X113474000Y-124744884D01*
X113483239Y-124776349D01*
X113483239Y-124847345D01*
X113444855Y-124907072D01*
X113402220Y-124931370D01*
X113328007Y-124956130D01*
X113328005Y-124956131D01*
X113321054Y-124958450D01*
X113239415Y-125008970D01*
X113180429Y-125045472D01*
X113170652Y-125051522D01*
X113165479Y-125056704D01*
X113159745Y-125061249D01*
X113158419Y-125059576D01*
X113105375Y-125088598D01*
X113078489Y-125091500D01*
X113059260Y-125091500D01*
X113057941Y-125091493D01*
X112967779Y-125090549D01*
X112960893Y-125092038D01*
X112960891Y-125092038D01*
X112951563Y-125094055D01*
X112925403Y-125099711D01*
X112912837Y-125101769D01*
X112869745Y-125106603D01*
X112863094Y-125108919D01*
X112863090Y-125108920D01*
X112838070Y-125117633D01*
X112823257Y-125121796D01*
X112790490Y-125128881D01*
X112751189Y-125147207D01*
X112739406Y-125151992D01*
X112698448Y-125166255D01*
X112692471Y-125169990D01*
X112670016Y-125184021D01*
X112656499Y-125191360D01*
X112632481Y-125202560D01*
X112632477Y-125202562D01*
X112626098Y-125205537D01*
X112620534Y-125209853D01*
X112620532Y-125209854D01*
X112591840Y-125232109D01*
X112581385Y-125239403D01*
X112563780Y-125250404D01*
X112544624Y-125262374D01*
X112539627Y-125267336D01*
X112539626Y-125267337D01*
X112515821Y-125290976D01*
X112515196Y-125291561D01*
X112514530Y-125292078D01*
X112488540Y-125318068D01*
X112415918Y-125390185D01*
X112415260Y-125391222D01*
X112414157Y-125392451D01*
X111184842Y-126621766D01*
X111183905Y-126622694D01*
X111124935Y-126680442D01*
X111119493Y-126685771D01*
X111096002Y-126722221D01*
X111088583Y-126732546D01*
X111061524Y-126766443D01*
X111058459Y-126772784D01*
X111058458Y-126772785D01*
X111046928Y-126796637D01*
X111039399Y-126810054D01*
X111021235Y-126838238D01*
X111018827Y-126844855D01*
X111018824Y-126844860D01*
X111006408Y-126878973D01*
X111001447Y-126890716D01*
X110985646Y-126923403D01*
X110985644Y-126923408D01*
X110982579Y-126929749D01*
X110980996Y-126936607D01*
X110980995Y-126936609D01*
X110975035Y-126962426D01*
X110970668Y-126977169D01*
X110959197Y-127008685D01*
X110958314Y-127015675D01*
X110958312Y-127015683D01*
X110953762Y-127051701D01*
X110951526Y-127064253D01*
X110944121Y-127096329D01*
X110941776Y-127106485D01*
X110941751Y-127113531D01*
X110941751Y-127113534D01*
X110941634Y-127147056D01*
X110941605Y-127147938D01*
X110941500Y-127148769D01*
X110941500Y-127185419D01*
X110941499Y-127185859D01*
X110941192Y-127273907D01*
X110941143Y-127287870D01*
X110941411Y-127289070D01*
X110941500Y-127290707D01*
X110941500Y-128640786D01*
X110941493Y-128642106D01*
X110940549Y-128732221D01*
X110949711Y-128774597D01*
X110951769Y-128787163D01*
X110956603Y-128830255D01*
X110958919Y-128836906D01*
X110958920Y-128836910D01*
X110967633Y-128861930D01*
X110971796Y-128876742D01*
X110978881Y-128909510D01*
X110997208Y-128948813D01*
X111001990Y-128960589D01*
X111016255Y-129001552D01*
X111019989Y-129007527D01*
X111019990Y-129007530D01*
X111034027Y-129029995D01*
X111041366Y-129043512D01*
X111052559Y-129067514D01*
X111055538Y-129073902D01*
X111059855Y-129079467D01*
X111059856Y-129079469D01*
X111082106Y-129108153D01*
X111089402Y-129118612D01*
X111108106Y-129148545D01*
X111112374Y-129155376D01*
X111117334Y-129160371D01*
X111117335Y-129160372D01*
X111140976Y-129184179D01*
X111141561Y-129184804D01*
X111142078Y-129185470D01*
X111168064Y-129211456D01*
X111192825Y-129236390D01*
X111240185Y-129284082D01*
X111241222Y-129284740D01*
X111242446Y-129285838D01*
X112031720Y-130075111D01*
X112032649Y-130076049D01*
X112072021Y-130116254D01*
X112095771Y-130140507D01*
X112101690Y-130144322D01*
X112101698Y-130144328D01*
X112132214Y-130163994D01*
X112142559Y-130171427D01*
X112176443Y-130198476D01*
X112182782Y-130201540D01*
X112182783Y-130201541D01*
X112206637Y-130213072D01*
X112220054Y-130220601D01*
X112248238Y-130238765D01*
X112254855Y-130241173D01*
X112254860Y-130241176D01*
X112288973Y-130253592D01*
X112300716Y-130258553D01*
X112333400Y-130274353D01*
X112333409Y-130274356D01*
X112339749Y-130277421D01*
X112346614Y-130279006D01*
X112372428Y-130284966D01*
X112387168Y-130289332D01*
X112418685Y-130300803D01*
X112425670Y-130301685D01*
X112425677Y-130301687D01*
X112461692Y-130306237D01*
X112474243Y-130308472D01*
X112516485Y-130318225D01*
X112523529Y-130318250D01*
X112523533Y-130318250D01*
X112557074Y-130318367D01*
X112557943Y-130318396D01*
X112558769Y-130318500D01*
X112595133Y-130318500D01*
X112595573Y-130318501D01*
X112694336Y-130318846D01*
X112694342Y-130318846D01*
X112697870Y-130318858D01*
X112699073Y-130318589D01*
X112700717Y-130318500D01*
X123974686Y-130318500D01*
X123976006Y-130318507D01*
X124066121Y-130319451D01*
X124108497Y-130310289D01*
X124121063Y-130308231D01*
X124164155Y-130303397D01*
X124170806Y-130301081D01*
X124170810Y-130301080D01*
X124195830Y-130292367D01*
X124210642Y-130288204D01*
X124236519Y-130282609D01*
X124243410Y-130281119D01*
X124282713Y-130262792D01*
X124294489Y-130258010D01*
X124335452Y-130243745D01*
X124341427Y-130240011D01*
X124341430Y-130240010D01*
X124363895Y-130225973D01*
X124377412Y-130218634D01*
X124401414Y-130207441D01*
X124401415Y-130207440D01*
X124407802Y-130204462D01*
X124442053Y-130177894D01*
X124452512Y-130170598D01*
X124483304Y-130151358D01*
X124483307Y-130151356D01*
X124489276Y-130147626D01*
X124518079Y-130119024D01*
X124518704Y-130118439D01*
X124519370Y-130117922D01*
X124545360Y-130091932D01*
X124617982Y-130019815D01*
X124618640Y-130018778D01*
X124619743Y-130017549D01*
X125274287Y-129363005D01*
X125336599Y-129328979D01*
X125363382Y-129326100D01*
X125689200Y-129326100D01*
X125692446Y-129325763D01*
X125692450Y-129325763D01*
X125788108Y-129315838D01*
X125788112Y-129315837D01*
X125794966Y-129315126D01*
X125801502Y-129312945D01*
X125801504Y-129312945D01*
X125933606Y-129268872D01*
X125962746Y-129259150D01*
X126113148Y-129166078D01*
X126199584Y-129079491D01*
X126261866Y-129045412D01*
X126332686Y-129050415D01*
X126377775Y-129079336D01*
X126411694Y-129113196D01*
X126465497Y-129166905D01*
X126471727Y-129170745D01*
X126471728Y-129170746D01*
X126608890Y-129255294D01*
X126616062Y-129259715D01*
X126681995Y-129281584D01*
X126777411Y-129313232D01*
X126777413Y-129313232D01*
X126783939Y-129315397D01*
X126790775Y-129316097D01*
X126790778Y-129316098D01*
X126833831Y-129320509D01*
X126888400Y-129326100D01*
X127514200Y-129326100D01*
X127517446Y-129325763D01*
X127517450Y-129325763D01*
X127613108Y-129315838D01*
X127613112Y-129315837D01*
X127619966Y-129315126D01*
X127626502Y-129312945D01*
X127626504Y-129312945D01*
X127758606Y-129268872D01*
X127787746Y-129259150D01*
X127938148Y-129166078D01*
X128063105Y-129040903D01*
X128079440Y-129014403D01*
X128132213Y-128966909D01*
X128202284Y-128955486D01*
X128267408Y-128983761D01*
X128275716Y-128991344D01*
X128281715Y-128997333D01*
X128281720Y-128997337D01*
X128286897Y-129002505D01*
X128293127Y-129006345D01*
X128293128Y-129006346D01*
X128430290Y-129090894D01*
X128437462Y-129095315D01*
X128476168Y-129108153D01*
X128598811Y-129148832D01*
X128598813Y-129148832D01*
X128605339Y-129150997D01*
X128612175Y-129151697D01*
X128612178Y-129151698D01*
X128655231Y-129156109D01*
X128709800Y-129161700D01*
X129760600Y-129161700D01*
X129763846Y-129161363D01*
X129763850Y-129161363D01*
X129859508Y-129151438D01*
X129859512Y-129151437D01*
X129866366Y-129150726D01*
X129872902Y-129148545D01*
X129872904Y-129148545D01*
X130005006Y-129104472D01*
X130034146Y-129094750D01*
X130184548Y-129001678D01*
X130309505Y-128876503D01*
X130335064Y-128835039D01*
X130398475Y-128732168D01*
X130398476Y-128732166D01*
X130402315Y-128725938D01*
X130430342Y-128641438D01*
X130455832Y-128564589D01*
X130455832Y-128564587D01*
X130457997Y-128558061D01*
X130468700Y-128453600D01*
X130468700Y-127852800D01*
X130466799Y-127834479D01*
X130458438Y-127753892D01*
X130458437Y-127753888D01*
X130457726Y-127747034D01*
X130453957Y-127735735D01*
X130404068Y-127586202D01*
X130401750Y-127579254D01*
X130308678Y-127428852D01*
X130272791Y-127393027D01*
X130188686Y-127309069D01*
X130183503Y-127303895D01*
X130178965Y-127301098D01*
X130138376Y-127243847D01*
X130135146Y-127172924D01*
X130170772Y-127111513D01*
X130179268Y-127104138D01*
X130189407Y-127096102D01*
X130303939Y-126981371D01*
X130312951Y-126969960D01*
X130398016Y-126831957D01*
X130404163Y-126818776D01*
X130455338Y-126664490D01*
X130458205Y-126651114D01*
X130467872Y-126556762D01*
X130468200Y-126550346D01*
X130468200Y-126525315D01*
X130463725Y-126510076D01*
X130462335Y-126508871D01*
X130454652Y-126507200D01*
X129107200Y-126507200D01*
X129039079Y-126487198D01*
X128992586Y-126433542D01*
X128981200Y-126381200D01*
X128981200Y-125981085D01*
X129489200Y-125981085D01*
X129493675Y-125996324D01*
X129495065Y-125997529D01*
X129502748Y-125999200D01*
X130450084Y-125999200D01*
X130465323Y-125994725D01*
X130466528Y-125993335D01*
X130468199Y-125985652D01*
X130468199Y-125956105D01*
X130467862Y-125949586D01*
X130457943Y-125853994D01*
X130455051Y-125840600D01*
X130403612Y-125686416D01*
X130397439Y-125673238D01*
X130312137Y-125535393D01*
X130303101Y-125523992D01*
X130188371Y-125409461D01*
X130176960Y-125400449D01*
X130038957Y-125315384D01*
X130025776Y-125309237D01*
X129871490Y-125258062D01*
X129858114Y-125255195D01*
X129763762Y-125245528D01*
X129757345Y-125245200D01*
X129507315Y-125245200D01*
X129492076Y-125249675D01*
X129490871Y-125251065D01*
X129489200Y-125258748D01*
X129489200Y-125981085D01*
X128981200Y-125981085D01*
X128981200Y-125263316D01*
X128976725Y-125248077D01*
X128975335Y-125246872D01*
X128967652Y-125245201D01*
X128713105Y-125245201D01*
X128706586Y-125245538D01*
X128610994Y-125255457D01*
X128597600Y-125258349D01*
X128443416Y-125309788D01*
X128430238Y-125315961D01*
X128292393Y-125401263D01*
X128280992Y-125410299D01*
X128181688Y-125509776D01*
X128119405Y-125543855D01*
X128048585Y-125538852D01*
X127991713Y-125496355D01*
X127967188Y-125433763D01*
X127965865Y-125421013D01*
X127962526Y-125388834D01*
X127959941Y-125381084D01*
X127908868Y-125228002D01*
X127906550Y-125221054D01*
X127813478Y-125070652D01*
X127688303Y-124945695D01*
X127682072Y-124941854D01*
X127543968Y-124856725D01*
X127543966Y-124856724D01*
X127537738Y-124852885D01*
X127400873Y-124807489D01*
X127376389Y-124799368D01*
X127376387Y-124799368D01*
X127369861Y-124797203D01*
X127363025Y-124796503D01*
X127363022Y-124796502D01*
X127319969Y-124792091D01*
X127265400Y-124786500D01*
X125014600Y-124786500D01*
X125011354Y-124786837D01*
X125011350Y-124786837D01*
X124915692Y-124796762D01*
X124915688Y-124796763D01*
X124908834Y-124797474D01*
X124902298Y-124799655D01*
X124902296Y-124799655D01*
X124822354Y-124826326D01*
X124741054Y-124853450D01*
X124590652Y-124946522D01*
X124465695Y-125071697D01*
X124461855Y-125077927D01*
X124461854Y-125077928D01*
X124425693Y-125136592D01*
X124372921Y-125184085D01*
X124302849Y-125195509D01*
X124237725Y-125167235D01*
X124229423Y-125159656D01*
X124138303Y-125068695D01*
X124134084Y-125066094D01*
X124093583Y-125008970D01*
X124090351Y-124938047D01*
X124125976Y-124876635D01*
X124133530Y-124870078D01*
X124139348Y-124866478D01*
X124264305Y-124741303D01*
X124268146Y-124735072D01*
X124353275Y-124596968D01*
X124353276Y-124596966D01*
X124357115Y-124590738D01*
X124398630Y-124465574D01*
X124410632Y-124429389D01*
X124410632Y-124429387D01*
X124412797Y-124422861D01*
X124416724Y-124384539D01*
X124419985Y-124352704D01*
X124423500Y-124318400D01*
X124423500Y-124216309D01*
X124443502Y-124148188D01*
X124497158Y-124101695D01*
X124567432Y-124091591D01*
X124615616Y-124109049D01*
X124735090Y-124182694D01*
X124742262Y-124187115D01*
X124822005Y-124213564D01*
X124903611Y-124240632D01*
X124903613Y-124240632D01*
X124910139Y-124242797D01*
X124916975Y-124243497D01*
X124916978Y-124243498D01*
X124960031Y-124247909D01*
X125014600Y-124253500D01*
X127265400Y-124253500D01*
X127268646Y-124253163D01*
X127268650Y-124253163D01*
X127364308Y-124243238D01*
X127364312Y-124243237D01*
X127371166Y-124242526D01*
X127377702Y-124240345D01*
X127377704Y-124240345D01*
X127509806Y-124196272D01*
X127538946Y-124186550D01*
X127689348Y-124093478D01*
X127814305Y-123968303D01*
X127815945Y-123969941D01*
X127864744Y-123935344D01*
X127905706Y-123928500D01*
X127910500Y-123928500D01*
X127978621Y-123948502D01*
X128025114Y-124002158D01*
X128036500Y-124054500D01*
X128036500Y-124240400D01*
X128036837Y-124243646D01*
X128036837Y-124243650D01*
X128046312Y-124334962D01*
X128047474Y-124346166D01*
X128049655Y-124352702D01*
X128049655Y-124352704D01*
X128078186Y-124438220D01*
X128103450Y-124513946D01*
X128196522Y-124664348D01*
X128201704Y-124669521D01*
X128217296Y-124685086D01*
X128321697Y-124789305D01*
X128327927Y-124793145D01*
X128327928Y-124793146D01*
X128465095Y-124877697D01*
X128472262Y-124882115D01*
X128525771Y-124899863D01*
X128633611Y-124935632D01*
X128633613Y-124935632D01*
X128640139Y-124937797D01*
X128646975Y-124938497D01*
X128646978Y-124938498D01*
X128679735Y-124941854D01*
X128744600Y-124948500D01*
X129795400Y-124948500D01*
X129798646Y-124948163D01*
X129798650Y-124948163D01*
X129894308Y-124938238D01*
X129894312Y-124938237D01*
X129901166Y-124937526D01*
X129907702Y-124935345D01*
X129907704Y-124935345D01*
X130051867Y-124887248D01*
X130068946Y-124881550D01*
X130158187Y-124826326D01*
X130226638Y-124807489D01*
X130294408Y-124828651D01*
X130313584Y-124844376D01*
X131112622Y-125643414D01*
X131146648Y-125705726D01*
X131148814Y-125745895D01*
X131137251Y-125854095D01*
X131137548Y-125859248D01*
X131137548Y-125859251D01*
X131149233Y-126061904D01*
X131150110Y-126077115D01*
X131151247Y-126082161D01*
X131151248Y-126082167D01*
X131171119Y-126170339D01*
X131199222Y-126295039D01*
X131255462Y-126433542D01*
X131271378Y-126472738D01*
X131283266Y-126502016D01*
X131334019Y-126584838D01*
X131384222Y-126666761D01*
X131399987Y-126692488D01*
X131546250Y-126861338D01*
X131677052Y-126969932D01*
X131711798Y-126998778D01*
X131718126Y-127004032D01*
X131742675Y-127018377D01*
X131791445Y-127046876D01*
X131840169Y-127098514D01*
X131853240Y-127168297D01*
X131826509Y-127234069D01*
X131786055Y-127267427D01*
X131773607Y-127273907D01*
X131769474Y-127277010D01*
X131769471Y-127277012D01*
X131599100Y-127404930D01*
X131594965Y-127408035D01*
X131591393Y-127411773D01*
X131473738Y-127534892D01*
X131440629Y-127569538D01*
X131437715Y-127573810D01*
X131437714Y-127573811D01*
X131425404Y-127591857D01*
X131314743Y-127754080D01*
X131220688Y-127956705D01*
X131160989Y-128171970D01*
X131137251Y-128394095D01*
X131137548Y-128399248D01*
X131137548Y-128399251D01*
X131143574Y-128503761D01*
X131150110Y-128617115D01*
X131151247Y-128622161D01*
X131151248Y-128622167D01*
X131165847Y-128686944D01*
X131199222Y-128835039D01*
X131259611Y-128983761D01*
X131281038Y-129036528D01*
X131283266Y-129042016D01*
X131323795Y-129108153D01*
X131387099Y-129211456D01*
X131399987Y-129232488D01*
X131546250Y-129401338D01*
X131718126Y-129544032D01*
X131911000Y-129656738D01*
X132119692Y-129736430D01*
X132124760Y-129737461D01*
X132124763Y-129737462D01*
X132232017Y-129759283D01*
X132338597Y-129780967D01*
X132343772Y-129781157D01*
X132343774Y-129781157D01*
X132556673Y-129788964D01*
X132556677Y-129788964D01*
X132561837Y-129789153D01*
X132566957Y-129788497D01*
X132566959Y-129788497D01*
X132778288Y-129761425D01*
X132778289Y-129761425D01*
X132783416Y-129760768D01*
X132788366Y-129759283D01*
X132992429Y-129698061D01*
X132992434Y-129698059D01*
X132997384Y-129696574D01*
X133197994Y-129598296D01*
X133379860Y-129468573D01*
X133538096Y-129310889D01*
X133556729Y-129284959D01*
X133665435Y-129133677D01*
X133668453Y-129129477D01*
X133684471Y-129097068D01*
X133765136Y-128933853D01*
X133765137Y-128933851D01*
X133767430Y-128929211D01*
X133827280Y-128732221D01*
X133830865Y-128720423D01*
X133830865Y-128720421D01*
X133832370Y-128715469D01*
X133861529Y-128493990D01*
X133861611Y-128490640D01*
X133863074Y-128430765D01*
X133863074Y-128430761D01*
X133863156Y-128427400D01*
X133844852Y-128204761D01*
X133790431Y-127988102D01*
X133701354Y-127783240D01*
X133594956Y-127618774D01*
X133582822Y-127600017D01*
X133582820Y-127600014D01*
X133580014Y-127595677D01*
X133429670Y-127430451D01*
X133425619Y-127427252D01*
X133425615Y-127427248D01*
X133258414Y-127295200D01*
X133258410Y-127295198D01*
X133254359Y-127291998D01*
X133213053Y-127269196D01*
X133163084Y-127218764D01*
X133148312Y-127149321D01*
X133173428Y-127082916D01*
X133200780Y-127056309D01*
X133253959Y-127018377D01*
X133379860Y-126928573D01*
X133418091Y-126890476D01*
X133502309Y-126806551D01*
X133538096Y-126770889D01*
X133546902Y-126758635D01*
X133665435Y-126593677D01*
X133668453Y-126589477D01*
X133745521Y-126433542D01*
X133765136Y-126393853D01*
X133765137Y-126393851D01*
X133767430Y-126389211D01*
X133832370Y-126175469D01*
X133861529Y-125953990D01*
X133863156Y-125887400D01*
X133844852Y-125664761D01*
X133790431Y-125448102D01*
X133701354Y-125243240D01*
X133650053Y-125163940D01*
X133582822Y-125060017D01*
X133582820Y-125060014D01*
X133580014Y-125055677D01*
X133429670Y-124890451D01*
X133425619Y-124887252D01*
X133425615Y-124887248D01*
X133258414Y-124755200D01*
X133258410Y-124755198D01*
X133254359Y-124751998D01*
X133212569Y-124728929D01*
X133162598Y-124678497D01*
X133147826Y-124609054D01*
X133172942Y-124542648D01*
X133200294Y-124516041D01*
X133375328Y-124391192D01*
X133383200Y-124384539D01*
X133534052Y-124234212D01*
X133540730Y-124226365D01*
X133665003Y-124053420D01*
X133670313Y-124044583D01*
X133764670Y-123853667D01*
X133768469Y-123844072D01*
X133830377Y-123640310D01*
X133832555Y-123630237D01*
X133833986Y-123619362D01*
X133831775Y-123605178D01*
X133818617Y-123601400D01*
X132372000Y-123601400D01*
X132303879Y-123581398D01*
X132257386Y-123527742D01*
X132246000Y-123475400D01*
X132246000Y-123075285D01*
X132754000Y-123075285D01*
X132758475Y-123090524D01*
X132759865Y-123091729D01*
X132767548Y-123093400D01*
X133818344Y-123093400D01*
X133831875Y-123089427D01*
X133833180Y-123080347D01*
X133791214Y-122913275D01*
X133787894Y-122903524D01*
X133702972Y-122708214D01*
X133698105Y-122699139D01*
X133582426Y-122520326D01*
X133576136Y-122512157D01*
X133432806Y-122354640D01*
X133425273Y-122347615D01*
X133258139Y-122215622D01*
X133249552Y-122209917D01*
X133212116Y-122189251D01*
X133162146Y-122138819D01*
X133147374Y-122069376D01*
X133172490Y-122002971D01*
X133199842Y-121976364D01*
X133375327Y-121851192D01*
X133383200Y-121844539D01*
X133534052Y-121694212D01*
X133540730Y-121686365D01*
X133665003Y-121513420D01*
X133670313Y-121504583D01*
X133764670Y-121313667D01*
X133768469Y-121304072D01*
X133830377Y-121100310D01*
X133832555Y-121090237D01*
X133833986Y-121079362D01*
X133831775Y-121065178D01*
X133818617Y-121061400D01*
X132772115Y-121061400D01*
X132756876Y-121065875D01*
X132755671Y-121067265D01*
X132754000Y-121074948D01*
X132754000Y-123075285D01*
X132246000Y-123075285D01*
X132246000Y-121079515D01*
X132241525Y-121064276D01*
X132240135Y-121063071D01*
X132232452Y-121061400D01*
X131183225Y-121061400D01*
X131169694Y-121065373D01*
X131168257Y-121075366D01*
X131198565Y-121209846D01*
X131201645Y-121219675D01*
X131281770Y-121417003D01*
X131286413Y-121426194D01*
X131397694Y-121607788D01*
X131403777Y-121616099D01*
X131543213Y-121777067D01*
X131550580Y-121784283D01*
X131714434Y-121920316D01*
X131722881Y-121926231D01*
X131792479Y-121966901D01*
X131841203Y-122018540D01*
X131854274Y-122088323D01*
X131827543Y-122154094D01*
X131787087Y-122187453D01*
X131778462Y-122191942D01*
X131769738Y-122197436D01*
X131599433Y-122325305D01*
X131591726Y-122332148D01*
X131444590Y-122486117D01*
X131438104Y-122494127D01*
X131318098Y-122670049D01*
X131313000Y-122679023D01*
X131223338Y-122872183D01*
X131219775Y-122881870D01*
X131162864Y-123087081D01*
X131160933Y-123097200D01*
X131155681Y-123146347D01*
X131128553Y-123211956D01*
X131070261Y-123252485D01*
X130999311Y-123255064D01*
X130975558Y-123246400D01*
X130955965Y-123236929D01*
X130942545Y-123229398D01*
X130914362Y-123211235D01*
X130907745Y-123208827D01*
X130907740Y-123208824D01*
X130873627Y-123196408D01*
X130861884Y-123191447D01*
X130829197Y-123175646D01*
X130829192Y-123175644D01*
X130822851Y-123172579D01*
X130815993Y-123170996D01*
X130815991Y-123170995D01*
X130790174Y-123165035D01*
X130775431Y-123160668D01*
X130743915Y-123149197D01*
X130736925Y-123148314D01*
X130736917Y-123148312D01*
X130700899Y-123143762D01*
X130688347Y-123141526D01*
X130652986Y-123133362D01*
X130652983Y-123133362D01*
X130646115Y-123131776D01*
X130639069Y-123131751D01*
X130639066Y-123131751D01*
X130605544Y-123131634D01*
X130604662Y-123131605D01*
X130603831Y-123131500D01*
X130567181Y-123131500D01*
X130566741Y-123131499D01*
X130468257Y-123131155D01*
X130468252Y-123131155D01*
X130464730Y-123131143D01*
X130463530Y-123131411D01*
X130461893Y-123131500D01*
X130311306Y-123131500D01*
X130243185Y-123111498D01*
X130229296Y-123100316D01*
X130229227Y-123100403D01*
X130223485Y-123095868D01*
X130218303Y-123090695D01*
X130213765Y-123087898D01*
X130173176Y-123030647D01*
X130169946Y-122959724D01*
X130205572Y-122898313D01*
X130214068Y-122890938D01*
X130224207Y-122882902D01*
X130338739Y-122768171D01*
X130347751Y-122756760D01*
X130432816Y-122618757D01*
X130438963Y-122605576D01*
X130490138Y-122451290D01*
X130493005Y-122437914D01*
X130502672Y-122343562D01*
X130503000Y-122337146D01*
X130503000Y-122312115D01*
X130498525Y-122296876D01*
X130497135Y-122295671D01*
X130489452Y-122294000D01*
X128055116Y-122294000D01*
X128012899Y-122306396D01*
X127977401Y-122311500D01*
X127905683Y-122311500D01*
X127837562Y-122291498D01*
X127813984Y-122270145D01*
X127813478Y-122270652D01*
X127732115Y-122189430D01*
X127698036Y-122127147D01*
X127703039Y-122056327D01*
X127745537Y-121999454D01*
X127808131Y-121974930D01*
X127829205Y-121972744D01*
X127842600Y-121969851D01*
X127979817Y-121924073D01*
X127992856Y-121915006D01*
X128004114Y-121887770D01*
X128017002Y-121843879D01*
X128070658Y-121797386D01*
X128123000Y-121786000D01*
X128997885Y-121786000D01*
X129013124Y-121781525D01*
X129014329Y-121780135D01*
X129016000Y-121772452D01*
X129016000Y-121767885D01*
X129524000Y-121767885D01*
X129528475Y-121783124D01*
X129529865Y-121784329D01*
X129537548Y-121786000D01*
X130484884Y-121786000D01*
X130500123Y-121781525D01*
X130501328Y-121780135D01*
X130502999Y-121772452D01*
X130502999Y-121742905D01*
X130502662Y-121736386D01*
X130492743Y-121640794D01*
X130489851Y-121627400D01*
X130438412Y-121473216D01*
X130432239Y-121460038D01*
X130346937Y-121322193D01*
X130337901Y-121310792D01*
X130223171Y-121196261D01*
X130211760Y-121187249D01*
X130073757Y-121102184D01*
X130060576Y-121096037D01*
X129906290Y-121044862D01*
X129892914Y-121041995D01*
X129798562Y-121032328D01*
X129792145Y-121032000D01*
X129542115Y-121032000D01*
X129526876Y-121036475D01*
X129525671Y-121037865D01*
X129524000Y-121045548D01*
X129524000Y-121767885D01*
X129016000Y-121767885D01*
X129016000Y-121050116D01*
X129011525Y-121034877D01*
X129010135Y-121033672D01*
X129002452Y-121032001D01*
X128747905Y-121032001D01*
X128741386Y-121032338D01*
X128645794Y-121042257D01*
X128632400Y-121045149D01*
X128585461Y-121060809D01*
X128514512Y-121063393D01*
X128453428Y-121027210D01*
X128449951Y-121021109D01*
X128432135Y-121005671D01*
X128424452Y-121004000D01*
X127302000Y-121004000D01*
X127233879Y-120983998D01*
X127187386Y-120930342D01*
X127176000Y-120878000D01*
X127176000Y-120622000D01*
X127196002Y-120553879D01*
X127249658Y-120507386D01*
X127302000Y-120496000D01*
X128419884Y-120496000D01*
X128435123Y-120491525D01*
X128436328Y-120490135D01*
X128437999Y-120482452D01*
X128437999Y-120424500D01*
X128458001Y-120356379D01*
X128511657Y-120309886D01*
X128563999Y-120298500D01*
X131066104Y-120298500D01*
X131134225Y-120318502D01*
X131180718Y-120372158D01*
X131190822Y-120442432D01*
X131187521Y-120458173D01*
X131164389Y-120541584D01*
X131165912Y-120550007D01*
X131178292Y-120553400D01*
X133818344Y-120553400D01*
X133831875Y-120549427D01*
X133833180Y-120540347D01*
X133791214Y-120373275D01*
X133787894Y-120363524D01*
X133702972Y-120168214D01*
X133698105Y-120159139D01*
X133582426Y-119980326D01*
X133576136Y-119972157D01*
X133432293Y-119814077D01*
X133401241Y-119750231D01*
X133409635Y-119679733D01*
X133454812Y-119624964D01*
X133481256Y-119611295D01*
X133588297Y-119571167D01*
X133596705Y-119568015D01*
X133713261Y-119480661D01*
X133800615Y-119364105D01*
X133851745Y-119227716D01*
X133858500Y-119165534D01*
X133858500Y-117369266D01*
X133851745Y-117307084D01*
X133800615Y-117170695D01*
X133713261Y-117054139D01*
X133596705Y-116966785D01*
X133460316Y-116915655D01*
X133398134Y-116908900D01*
X131601866Y-116908900D01*
X131539684Y-116915655D01*
X131403295Y-116966785D01*
X131286739Y-117054139D01*
X131199385Y-117170695D01*
X131148255Y-117307084D01*
X131141500Y-117369266D01*
X131141500Y-118430318D01*
X131121498Y-118498439D01*
X131104595Y-118519413D01*
X130979413Y-118644595D01*
X130917101Y-118678621D01*
X130890318Y-118681500D01*
X127564660Y-118681500D01*
X127496539Y-118661498D01*
X127450046Y-118607842D01*
X127439942Y-118537568D01*
X127469436Y-118472988D01*
X127475565Y-118466405D01*
X127666565Y-118275405D01*
X127728877Y-118241379D01*
X127755660Y-118238500D01*
X128958134Y-118238500D01*
X129020316Y-118231745D01*
X129156705Y-118180615D01*
X129273261Y-118093261D01*
X129360615Y-117976705D01*
X129411745Y-117840316D01*
X129418500Y-117778134D01*
X129418500Y-115981866D01*
X129411745Y-115919684D01*
X129360615Y-115783295D01*
X129305732Y-115710065D01*
X129280884Y-115643559D01*
X129295937Y-115574176D01*
X129346111Y-115523946D01*
X129406558Y-115508500D01*
X134123000Y-115508500D01*
X134191121Y-115528502D01*
X134237614Y-115582158D01*
X134249000Y-115634500D01*
X134249000Y-130632700D01*
X134228998Y-130700821D01*
X134175342Y-130747314D01*
X134123000Y-130758700D01*
X105231700Y-130758700D01*
X105163579Y-130738698D01*
X105117086Y-130685042D01*
X105105700Y-130632700D01*
X105105700Y-126900999D01*
X105896812Y-126900999D01*
X105918294Y-126990137D01*
X105922183Y-127001432D01*
X106004729Y-127182982D01*
X106010676Y-127193324D01*
X106126068Y-127355997D01*
X106133861Y-127365025D01*
X106277931Y-127502942D01*
X106287296Y-127510338D01*
X106454841Y-127618521D01*
X106465445Y-127624017D01*
X106650412Y-127698561D01*
X106661870Y-127701955D01*
X106859028Y-127740457D01*
X106867891Y-127741534D01*
X106870600Y-127741600D01*
X107049985Y-127741600D01*
X107065224Y-127737125D01*
X107066429Y-127735735D01*
X107068100Y-127728052D01*
X107068100Y-126905715D01*
X107063625Y-126890476D01*
X107062235Y-126889271D01*
X107054552Y-126887600D01*
X105911698Y-126887600D01*
X105898167Y-126891573D01*
X105896812Y-126900999D01*
X105105700Y-126900999D01*
X105105700Y-126361485D01*
X105864101Y-126361485D01*
X105868576Y-126376724D01*
X105869966Y-126377929D01*
X105877649Y-126379600D01*
X107049985Y-126379600D01*
X107065224Y-126375125D01*
X107066429Y-126373735D01*
X107068100Y-126366052D01*
X107068100Y-126305715D01*
X107063625Y-126290476D01*
X107062235Y-126289271D01*
X107054552Y-126287600D01*
X105882216Y-126287600D01*
X105866977Y-126292075D01*
X105865772Y-126293465D01*
X105864101Y-126301148D01*
X105864101Y-126361485D01*
X105105700Y-126361485D01*
X105105700Y-125761485D01*
X105864100Y-125761485D01*
X105868575Y-125776724D01*
X105869965Y-125777929D01*
X105877648Y-125779600D01*
X107049985Y-125779600D01*
X107065224Y-125775125D01*
X107066429Y-125773735D01*
X107068100Y-125766052D01*
X107068100Y-124405715D01*
X107063625Y-124390476D01*
X107062235Y-124389271D01*
X107054552Y-124387600D01*
X105882216Y-124387600D01*
X105866977Y-124392075D01*
X105865772Y-124393465D01*
X105864101Y-124401148D01*
X105864101Y-124928269D01*
X105864471Y-124935090D01*
X105869995Y-124985952D01*
X105873622Y-125001206D01*
X105916045Y-125114371D01*
X105921228Y-125185178D01*
X105916045Y-125202829D01*
X105873622Y-125315991D01*
X105869995Y-125331249D01*
X105864469Y-125382114D01*
X105864100Y-125388928D01*
X105864100Y-125761485D01*
X105105700Y-125761485D01*
X105105700Y-123861485D01*
X105864100Y-123861485D01*
X105868575Y-123876724D01*
X105869965Y-123877929D01*
X105877648Y-123879600D01*
X107049985Y-123879600D01*
X107065224Y-123875125D01*
X107066429Y-123873735D01*
X107068100Y-123866052D01*
X107068100Y-122405715D01*
X107063625Y-122390476D01*
X107062235Y-122389271D01*
X107054552Y-122387600D01*
X105882216Y-122387600D01*
X105866977Y-122392075D01*
X105865772Y-122393465D01*
X105864101Y-122401148D01*
X105864101Y-122928269D01*
X105864471Y-122935090D01*
X105869995Y-122985952D01*
X105873621Y-123001204D01*
X105906673Y-123089370D01*
X105911856Y-123160178D01*
X105906673Y-123177830D01*
X105873622Y-123265994D01*
X105869995Y-123281249D01*
X105864469Y-123332114D01*
X105864100Y-123338928D01*
X105864100Y-123861485D01*
X105105700Y-123861485D01*
X105105700Y-121861485D01*
X105864100Y-121861485D01*
X105868575Y-121876724D01*
X105869965Y-121877929D01*
X105877648Y-121879600D01*
X107049985Y-121879600D01*
X107065224Y-121875125D01*
X107066429Y-121873735D01*
X107068100Y-121866052D01*
X107068100Y-120505715D01*
X107063625Y-120490476D01*
X107062235Y-120489271D01*
X107054552Y-120487600D01*
X105882216Y-120487600D01*
X105866977Y-120492075D01*
X105865772Y-120493465D01*
X105864101Y-120501148D01*
X105864101Y-120878269D01*
X105864471Y-120885090D01*
X105869995Y-120935952D01*
X105873622Y-120951206D01*
X105916045Y-121064371D01*
X105921228Y-121135178D01*
X105916045Y-121152829D01*
X105873622Y-121265991D01*
X105869995Y-121281249D01*
X105864469Y-121332114D01*
X105864100Y-121338928D01*
X105864100Y-121861485D01*
X105105700Y-121861485D01*
X105105700Y-119961485D01*
X105864100Y-119961485D01*
X105868575Y-119976724D01*
X105869965Y-119977929D01*
X105877648Y-119979600D01*
X107049985Y-119979600D01*
X107065224Y-119975125D01*
X107066429Y-119973735D01*
X107068100Y-119966052D01*
X107068100Y-119905715D01*
X107063625Y-119890476D01*
X107062235Y-119889271D01*
X107054552Y-119887600D01*
X105882215Y-119887600D01*
X105866976Y-119892075D01*
X105865771Y-119893465D01*
X105864100Y-119901148D01*
X105864100Y-119961485D01*
X105105700Y-119961485D01*
X105105700Y-119365316D01*
X105892452Y-119365316D01*
X105893920Y-119375608D01*
X105907485Y-119379600D01*
X107049985Y-119379600D01*
X107065224Y-119375125D01*
X107066429Y-119373735D01*
X107068100Y-119366052D01*
X107068100Y-119361485D01*
X107576100Y-119361485D01*
X107580575Y-119376724D01*
X107581965Y-119377929D01*
X107589648Y-119379600D01*
X108732502Y-119379600D01*
X108746033Y-119375627D01*
X108747388Y-119366201D01*
X108725906Y-119277063D01*
X108722017Y-119265768D01*
X108639471Y-119084218D01*
X108633524Y-119073876D01*
X108518132Y-118911203D01*
X108510339Y-118902175D01*
X108366269Y-118764258D01*
X108356904Y-118756862D01*
X108189359Y-118648679D01*
X108178755Y-118643183D01*
X107993788Y-118568639D01*
X107982330Y-118565245D01*
X107785172Y-118526743D01*
X107776309Y-118525666D01*
X107773600Y-118525600D01*
X107594215Y-118525600D01*
X107578976Y-118530075D01*
X107577771Y-118531465D01*
X107576100Y-118539148D01*
X107576100Y-119361485D01*
X107068100Y-119361485D01*
X107068100Y-118543715D01*
X107063625Y-118528476D01*
X107062235Y-118527271D01*
X107054552Y-118525600D01*
X106922268Y-118525600D01*
X106916292Y-118525885D01*
X106767606Y-118540071D01*
X106755872Y-118542330D01*
X106564501Y-118598472D01*
X106553425Y-118602902D01*
X106376122Y-118694219D01*
X106366076Y-118700669D01*
X106209243Y-118823862D01*
X106200594Y-118832099D01*
X106069888Y-118982723D01*
X106062953Y-118992447D01*
X105963090Y-119165067D01*
X105958116Y-119175931D01*
X105892693Y-119364327D01*
X105892452Y-119365316D01*
X105105700Y-119365316D01*
X105105700Y-115634500D01*
X105125702Y-115566379D01*
X105179358Y-115519886D01*
X105231700Y-115508500D01*
X108925947Y-115508500D01*
X108994068Y-115528502D01*
G37*
%TD.AperFunction*%
%TA.AperFunction,Conductor*%
G36*
X117555801Y-124385067D02*
G01*
X117613946Y-124425807D01*
X117640834Y-124491515D01*
X117641500Y-124504448D01*
X117641500Y-124641376D01*
X117641498Y-124642146D01*
X117641024Y-124719720D01*
X117643491Y-124728351D01*
X117649150Y-124748152D01*
X117652728Y-124764914D01*
X117656920Y-124794186D01*
X117660634Y-124802354D01*
X117660634Y-124802355D01*
X117667548Y-124817561D01*
X117673996Y-124835085D01*
X117681051Y-124859770D01*
X117685843Y-124867364D01*
X117685844Y-124867367D01*
X117696830Y-124884779D01*
X117704969Y-124899863D01*
X117713582Y-124918806D01*
X117723570Y-124989097D01*
X117693969Y-125053628D01*
X117687977Y-125060053D01*
X117527880Y-125220150D01*
X117521615Y-125226004D01*
X117478015Y-125264039D01*
X117441272Y-125316319D01*
X117437339Y-125321614D01*
X117397924Y-125371882D01*
X117394801Y-125378798D01*
X117393417Y-125381084D01*
X117385043Y-125395765D01*
X117383778Y-125398125D01*
X117379410Y-125404339D01*
X117376650Y-125411418D01*
X117376649Y-125411420D01*
X117356198Y-125463875D01*
X117353647Y-125469944D01*
X117327355Y-125528173D01*
X117325971Y-125535640D01*
X117325170Y-125538195D01*
X117320541Y-125554448D01*
X117319878Y-125557028D01*
X117317118Y-125564109D01*
X117310472Y-125614595D01*
X117308779Y-125627452D01*
X117307748Y-125633959D01*
X117296104Y-125696786D01*
X117296541Y-125704366D01*
X117296541Y-125704367D01*
X117299691Y-125758992D01*
X117299900Y-125766246D01*
X117299900Y-126943386D01*
X117279898Y-127011507D01*
X117226242Y-127058000D01*
X117155968Y-127068104D01*
X117091388Y-127038610D01*
X117084882Y-127032559D01*
X117024083Y-126971866D01*
X117018903Y-126966695D01*
X117012424Y-126962701D01*
X116874568Y-126877725D01*
X116874566Y-126877724D01*
X116868338Y-126873885D01*
X116772554Y-126842115D01*
X116706989Y-126820368D01*
X116706987Y-126820368D01*
X116700461Y-126818203D01*
X116693625Y-126817503D01*
X116693622Y-126817502D01*
X116650569Y-126813091D01*
X116596000Y-126807500D01*
X115970200Y-126807500D01*
X115966954Y-126807837D01*
X115966950Y-126807837D01*
X115871292Y-126817762D01*
X115871288Y-126817763D01*
X115864434Y-126818474D01*
X115857898Y-126820655D01*
X115857896Y-126820655D01*
X115752797Y-126855719D01*
X115696654Y-126874450D01*
X115546252Y-126967522D01*
X115467037Y-127046876D01*
X115459408Y-127054518D01*
X115397126Y-127088597D01*
X115370235Y-127091500D01*
X115261480Y-127091500D01*
X115193359Y-127071498D01*
X115172462Y-127054673D01*
X115164652Y-127046876D01*
X115068303Y-126950695D01*
X115064084Y-126948094D01*
X115023583Y-126890970D01*
X115020351Y-126820047D01*
X115055976Y-126758635D01*
X115063530Y-126752078D01*
X115069348Y-126748478D01*
X115194305Y-126623303D01*
X115218015Y-126584838D01*
X115283275Y-126478968D01*
X115283276Y-126478966D01*
X115287115Y-126472738D01*
X115342797Y-126304861D01*
X115343804Y-126295039D01*
X115353172Y-126203598D01*
X115353500Y-126200400D01*
X115353500Y-125614595D01*
X115373502Y-125546474D01*
X115390405Y-125525499D01*
X115526922Y-125388983D01*
X115665501Y-125250404D01*
X115727813Y-125216379D01*
X115754596Y-125213500D01*
X116285633Y-125213500D01*
X116296816Y-125214027D01*
X116304309Y-125215702D01*
X116312235Y-125215453D01*
X116312236Y-125215453D01*
X116372386Y-125213562D01*
X116376345Y-125213500D01*
X116404256Y-125213500D01*
X116408191Y-125213003D01*
X116408256Y-125212995D01*
X116420093Y-125212062D01*
X116452351Y-125211048D01*
X116456370Y-125210922D01*
X116464289Y-125210673D01*
X116483743Y-125205021D01*
X116503100Y-125201013D01*
X116515330Y-125199468D01*
X116515331Y-125199468D01*
X116523197Y-125198474D01*
X116530568Y-125195555D01*
X116530570Y-125195555D01*
X116564312Y-125182196D01*
X116575542Y-125178351D01*
X116610383Y-125168229D01*
X116610384Y-125168229D01*
X116617993Y-125166018D01*
X116624812Y-125161985D01*
X116624817Y-125161983D01*
X116635428Y-125155707D01*
X116653176Y-125147012D01*
X116672017Y-125139552D01*
X116688756Y-125127391D01*
X116707787Y-125113564D01*
X116717707Y-125107048D01*
X116748935Y-125088580D01*
X116748938Y-125088578D01*
X116755762Y-125084542D01*
X116770083Y-125070221D01*
X116785117Y-125057380D01*
X116795093Y-125050132D01*
X116801507Y-125045472D01*
X116829688Y-125011407D01*
X116837678Y-125002626D01*
X117384658Y-124455647D01*
X117392937Y-124448113D01*
X117399418Y-124444000D01*
X117423650Y-124418196D01*
X117484861Y-124382230D01*
X117555801Y-124385067D01*
G37*
%TD.AperFunction*%
%TA.AperFunction,Conductor*%
G36*
X116709527Y-115528502D02*
G01*
X116756020Y-115582158D01*
X116766124Y-115652432D01*
X116736630Y-115717012D01*
X116730501Y-115723595D01*
X116699501Y-115754595D01*
X116637189Y-115788621D01*
X116610406Y-115791500D01*
X116404600Y-115791500D01*
X116401354Y-115791837D01*
X116401350Y-115791837D01*
X116305692Y-115801762D01*
X116305688Y-115801763D01*
X116298834Y-115802474D01*
X116292298Y-115804655D01*
X116292296Y-115804655D01*
X116162661Y-115847905D01*
X116131054Y-115858450D01*
X115980652Y-115951522D01*
X115975479Y-115956704D01*
X115961194Y-115971014D01*
X115855695Y-116076697D01*
X115851855Y-116082927D01*
X115851854Y-116082928D01*
X115800452Y-116166318D01*
X115762885Y-116227262D01*
X115738083Y-116302038D01*
X115713467Y-116376255D01*
X115707203Y-116395139D01*
X115696500Y-116499600D01*
X115696500Y-117500400D01*
X115707474Y-117606166D01*
X115763450Y-117773946D01*
X115856522Y-117924348D01*
X115981697Y-118049305D01*
X115987927Y-118053145D01*
X115987928Y-118053146D01*
X116125090Y-118137694D01*
X116132262Y-118142115D01*
X116201949Y-118165229D01*
X116293611Y-118195632D01*
X116293613Y-118195632D01*
X116300139Y-118197797D01*
X116306975Y-118198497D01*
X116306978Y-118198498D01*
X116344664Y-118202359D01*
X116404600Y-118208500D01*
X117030400Y-118208500D01*
X117033646Y-118208163D01*
X117033650Y-118208163D01*
X117129308Y-118198238D01*
X117129312Y-118198237D01*
X117136166Y-118197526D01*
X117142702Y-118195345D01*
X117142704Y-118195345D01*
X117274806Y-118151272D01*
X117303946Y-118141550D01*
X117454348Y-118048478D01*
X117540784Y-117961891D01*
X117603066Y-117927812D01*
X117673886Y-117932815D01*
X117718975Y-117961736D01*
X117731151Y-117973891D01*
X117806697Y-118049305D01*
X117812927Y-118053145D01*
X117812928Y-118053146D01*
X117950090Y-118137694D01*
X117957262Y-118142115D01*
X118026949Y-118165229D01*
X118118611Y-118195632D01*
X118118613Y-118195632D01*
X118125139Y-118197797D01*
X118131975Y-118198497D01*
X118131978Y-118198498D01*
X118169664Y-118202359D01*
X118229600Y-118208500D01*
X118390501Y-118208500D01*
X118458622Y-118228502D01*
X118505115Y-118282158D01*
X118516501Y-118334500D01*
X118516501Y-118382011D01*
X118496499Y-118450132D01*
X118442843Y-118496625D01*
X118372569Y-118506729D01*
X118364310Y-118505259D01*
X118317377Y-118495283D01*
X118211944Y-118472872D01*
X118211939Y-118472872D01*
X118205487Y-118471500D01*
X118014513Y-118471500D01*
X118008061Y-118472872D01*
X118008056Y-118472872D01*
X117921113Y-118491353D01*
X117827712Y-118511206D01*
X117821682Y-118513891D01*
X117821681Y-118513891D01*
X117659278Y-118586197D01*
X117659276Y-118586198D01*
X117653248Y-118588882D01*
X117647907Y-118592762D01*
X117647906Y-118592763D01*
X117637786Y-118600116D01*
X117498747Y-118701134D01*
X117494326Y-118706044D01*
X117494325Y-118706045D01*
X117400455Y-118810299D01*
X117370960Y-118843056D01*
X117353844Y-118872702D01*
X117291607Y-118980500D01*
X117275473Y-119008444D01*
X117216458Y-119190072D01*
X117215768Y-119196635D01*
X117215768Y-119196636D01*
X117213452Y-119218671D01*
X117186438Y-119284328D01*
X117128217Y-119324957D01*
X117088142Y-119331500D01*
X116914513Y-119331500D01*
X116908056Y-119332872D01*
X116901485Y-119333563D01*
X116901311Y-119331908D01*
X116838821Y-119327140D01*
X116782188Y-119284324D01*
X116758087Y-119222298D01*
X116752743Y-119170794D01*
X116749851Y-119157400D01*
X116698412Y-119003216D01*
X116692239Y-118990038D01*
X116606937Y-118852193D01*
X116597901Y-118840792D01*
X116483171Y-118726261D01*
X116471760Y-118717249D01*
X116333757Y-118632184D01*
X116320576Y-118626037D01*
X116166290Y-118574862D01*
X116152914Y-118571995D01*
X116058562Y-118562328D01*
X116052145Y-118562000D01*
X115802115Y-118562000D01*
X115786876Y-118566475D01*
X115785671Y-118567865D01*
X115784000Y-118575548D01*
X115784000Y-119698000D01*
X115763998Y-119766121D01*
X115710342Y-119812614D01*
X115658000Y-119824000D01*
X114351115Y-119824000D01*
X114300384Y-119838896D01*
X114264886Y-119844000D01*
X112932000Y-119844000D01*
X112863879Y-119823998D01*
X112817386Y-119770342D01*
X112806000Y-119718000D01*
X112806000Y-119317885D01*
X113314000Y-119317885D01*
X113318475Y-119333124D01*
X113319865Y-119334329D01*
X113327548Y-119336000D01*
X114238885Y-119336000D01*
X114289616Y-119321104D01*
X114325114Y-119316000D01*
X115257885Y-119316000D01*
X115273124Y-119311525D01*
X115274329Y-119310135D01*
X115276000Y-119302452D01*
X115276000Y-118580116D01*
X115271525Y-118564877D01*
X115270135Y-118563672D01*
X115262452Y-118562001D01*
X115007905Y-118562001D01*
X115001386Y-118562338D01*
X114905794Y-118572257D01*
X114892400Y-118575149D01*
X114738216Y-118626588D01*
X114725038Y-118632761D01*
X114587193Y-118718063D01*
X114575792Y-118727099D01*
X114461261Y-118841829D01*
X114452249Y-118853240D01*
X114396099Y-118944333D01*
X114343327Y-118991826D01*
X114273256Y-119003250D01*
X114208132Y-118974976D01*
X114181695Y-118944521D01*
X114136934Y-118872190D01*
X114127901Y-118860792D01*
X114013171Y-118746261D01*
X114001760Y-118737249D01*
X113863757Y-118652184D01*
X113850576Y-118646037D01*
X113696290Y-118594862D01*
X113682914Y-118591995D01*
X113588562Y-118582328D01*
X113582145Y-118582000D01*
X113332115Y-118582000D01*
X113316876Y-118586475D01*
X113315671Y-118587865D01*
X113314000Y-118595548D01*
X113314000Y-119317885D01*
X112806000Y-119317885D01*
X112806000Y-118600116D01*
X112801525Y-118584877D01*
X112800135Y-118583672D01*
X112792452Y-118582001D01*
X112537905Y-118582001D01*
X112531386Y-118582338D01*
X112435794Y-118592257D01*
X112422400Y-118595149D01*
X112268216Y-118646588D01*
X112255038Y-118652761D01*
X112117193Y-118738063D01*
X112105792Y-118747099D01*
X111991261Y-118861829D01*
X111982249Y-118873240D01*
X111897184Y-119011243D01*
X111891036Y-119024426D01*
X111881939Y-119051853D01*
X111841508Y-119110213D01*
X111775944Y-119137450D01*
X111706063Y-119124917D01*
X111673251Y-119101281D01*
X111025405Y-118453435D01*
X110991379Y-118391123D01*
X110988500Y-118364340D01*
X110988500Y-118354500D01*
X111008502Y-118286379D01*
X111062158Y-118239886D01*
X111114500Y-118228500D01*
X111178134Y-118228500D01*
X111240316Y-118221745D01*
X111376705Y-118170615D01*
X111493261Y-118083261D01*
X111580615Y-117966705D01*
X111624798Y-117848848D01*
X111667440Y-117792084D01*
X111734001Y-117767384D01*
X111803350Y-117782592D01*
X111838017Y-117810580D01*
X111863218Y-117839673D01*
X111870580Y-117846883D01*
X112034434Y-117982916D01*
X112042881Y-117988831D01*
X112226756Y-118096279D01*
X112236042Y-118100729D01*
X112435001Y-118176703D01*
X112444899Y-118179579D01*
X112548250Y-118200606D01*
X112562299Y-118199410D01*
X112566000Y-118189065D01*
X112566000Y-118188517D01*
X113074000Y-118188517D01*
X113078064Y-118202359D01*
X113091478Y-118204393D01*
X113098184Y-118203534D01*
X113108262Y-118201392D01*
X113312255Y-118140191D01*
X113321842Y-118136433D01*
X113513095Y-118042739D01*
X113521945Y-118037464D01*
X113695328Y-117913792D01*
X113703200Y-117907139D01*
X113854052Y-117756812D01*
X113860730Y-117748965D01*
X113985003Y-117576020D01*
X113990313Y-117567183D01*
X114084670Y-117376267D01*
X114088469Y-117366672D01*
X114150377Y-117162910D01*
X114152555Y-117152837D01*
X114153986Y-117141962D01*
X114151775Y-117127778D01*
X114138617Y-117124000D01*
X113092115Y-117124000D01*
X113076876Y-117128475D01*
X113075671Y-117129865D01*
X113074000Y-117137548D01*
X113074000Y-118188517D01*
X112566000Y-118188517D01*
X112566000Y-116742000D01*
X112586002Y-116673879D01*
X112639658Y-116627386D01*
X112692000Y-116616000D01*
X114138344Y-116616000D01*
X114151875Y-116612027D01*
X114153180Y-116602947D01*
X114111214Y-116435875D01*
X114107894Y-116426124D01*
X114022972Y-116230814D01*
X114018105Y-116221739D01*
X113902426Y-116042926D01*
X113896136Y-116034757D01*
X113752806Y-115877240D01*
X113745273Y-115870215D01*
X113574081Y-115735017D01*
X113575138Y-115733679D01*
X113534316Y-115685093D01*
X113525282Y-115614674D01*
X113555753Y-115550549D01*
X113616056Y-115513078D01*
X113649712Y-115508500D01*
X116641406Y-115508500D01*
X116709527Y-115528502D01*
G37*
%TD.AperFunction*%
%TA.AperFunction,Conductor*%
G36*
X112061930Y-115528502D02*
G01*
X112108423Y-115582158D01*
X112118527Y-115652432D01*
X112089033Y-115717012D01*
X112069462Y-115735260D01*
X111919433Y-115847905D01*
X111911726Y-115854748D01*
X111834478Y-115935584D01*
X111772954Y-115971014D01*
X111702042Y-115967557D01*
X111644255Y-115926311D01*
X111625402Y-115892763D01*
X111583767Y-115781703D01*
X111580615Y-115773295D01*
X111555248Y-115739447D01*
X111533227Y-115710065D01*
X111508379Y-115643558D01*
X111523432Y-115574176D01*
X111573606Y-115523946D01*
X111634053Y-115508500D01*
X111993809Y-115508500D01*
X112061930Y-115528502D01*
G37*
%TD.AperFunction*%
%TD*%
M02*
